STARTFONT 2.3
FONT -FontForge-Roboto-Book-R-Normal--11-110-72-72-P-62-ISO10646-1
SIZE 11 72 72  4
FONTBOUNDINGBOX 22 18 -9 -4
COMMENT "Generated by fontforge, http://fontforge.sourceforge.net"
COMMENT "Copyright 2011 Google Inc. All Rights Reserved."
STARTPROPERTIES 42
FOUNDRY "FontForge"
FAMILY_NAME "Roboto"
WEIGHT_NAME "Book"
SLANT "R"
SETWIDTH_NAME "Normal"
ADD_STYLE_NAME ""
PIXEL_SIZE 11
POINT_SIZE 110
RESOLUTION_X 72
RESOLUTION_Y 72
SPACING "P"
AVERAGE_WIDTH 62
CHARSET_REGISTRY "ISO10646"
CHARSET_ENCODING "1"
FONTNAME_REGISTRY ""
CHARSET_COLLECTIONS "ISO8859-2 ISO8859-5 ISO8859-7 ISO8859-9 ISO8859-4 ISO10646-1"
BITS_PER_PIXEL 4
FONT_NAME "Roboto-Regular"
FACE_NAME "Roboto"
COPYRIGHT "Copyright 2011 Google Inc. All Rights Reserved."
FONT_VERSION "2.137; 2017"
FONT_ASCENT 8
FONT_DESCENT 3
UNDERLINE_POSITION -1
UNDERLINE_THICKNESS 1
X_HEIGHT 5
CAP_HEIGHT 7
DEFAULT_CHAR 1
RAW_ASCENT 750
RAW_DESCENT 250
NORM_SPACE 3
RELATIVE_WEIGHT 40
RELATIVE_SETWIDTH 50
SUPERSCRIPT_X 0
SUPERSCRIPT_Y 5
SUPERSCRIPT_SIZE 7
SUBSCRIPT_X 0
SUBSCRIPT_Y 1
SUBSCRIPT_SIZE 7
FIGURE_WIDTH 6
AVG_LOWERCASE_WIDTH 60
AVG_UPPERCASE_WIDTH 73
ENDPROPERTIES
CHARS 1296
STARTCHAR glyph1.dup1
ENCODING 0
SWIDTH 0 0
DWIDTH 0 0
BBX 1 1 0 0
BITMAP
00
ENDCHAR
STARTCHAR uni0002
ENCODING 2
SWIDTH 0 0
DWIDTH 0 0
BBX 1 1 0 0
BITMAP
00
ENDCHAR
STARTCHAR uni000D
ENCODING 13
SWIDTH 247 0
DWIDTH 3 0
BBX 1 1 0 0
BITMAP
00
ENDCHAR
STARTCHAR space
ENCODING 32
SWIDTH 247 0
DWIDTH 3 0
BBX 1 1 0 0
BITMAP
00
ENDCHAR
STARTCHAR exclam
ENCODING 33
SWIDTH 257 0
DWIDTH 3 0
BBX 2 8 0 0
BITMAP
2E
1E
1E
1D
1D
09
01
1D
ENDCHAR
STARTCHAR quotedbl
ENCODING 34
SWIDTH 319 0
DWIDTH 4 0
BBX 3 3 0 5
BITMAP
47B0
47B0
4590
ENDCHAR
STARTCHAR numbersign
ENCODING 35
SWIDTH 615 0
DWIDTH 7 0
BBX 7 8 0 0
BITMAP
001A0C00
00572A00
0EFFFFA0
00A27400
00B0A200
5FFFFF40
0390B000
06638000
ENDCHAR
STARTCHAR dollar
ENCODING 36
SWIDTH 561 0
DWIDTH 6 0
BBX 6 11 0 -1
BITMAP
001200
003900
05EF90
0E31C5
1E1044
08D710
0039E2
240088
4D21B7
08EFA1
004800
ENDCHAR
STARTCHAR percent
ENCODING 37
SWIDTH 732 0
DWIDTH 8 0
BBX 8 8 0 0
BITMAP
1CE40000
673B0910
683B5600
1CE6A000
000A5DD2
00669568
00909558
00003DD2
ENDCHAR
STARTCHAR ampersand
ENCODING 38
SWIDTH 621 0
DWIDTH 7 0
BBX 7 8 0 0
BITMAP
04DE6000
0B62E000
0A65B000
03FB1000
1C9D1630
6905CC20
4C21CD00
08EE9B60
ENDCHAR
STARTCHAR quotesingle
ENCODING 39
SWIDTH 174 0
DWIDTH 2 0
BBX 2 2 0 6
BITMAP
75
74
ENDCHAR
STARTCHAR parenleft
ENCODING 40
SWIDTH 341 0
DWIDTH 4 0
BBX 4 12 0 -3
BITMAP
0046
02C1
0950
0E10
2C00
4B00
4B00
2D00
0E10
0950
02C0
0046
ENDCHAR
STARTCHAR parenright
ENCODING 41
SWIDTH 347 0
DWIDTH 4 0
BBX 3 12 0 -3
BITMAP
8200
2B00
0A50
04A0
02E0
00F0
00F0
01E0
04B0
0950
2B00
8200
ENDCHAR
STARTCHAR asterisk
ENCODING 42
SWIDTH 430 0
DWIDTH 5 0
BBX 5 5 0 3
BITMAP
00C000
76C750
29F610
1C5A00
020300
ENDCHAR
STARTCHAR plus
ENCODING 43
SWIDTH 566 0
DWIDTH 6 0
BBX 6 7 0 0
BITMAP
002300
006900
006900
9FFFFC
006900
006900
003400
ENDCHAR
STARTCHAR comma
ENCODING 44
SWIDTH 196 0
DWIDTH 2 0
BBX 2 4 0 -2
BITMAP
12
5A
78
92
ENDCHAR
STARTCHAR hyphen
ENCODING 45
SWIDTH 275 0
DWIDTH 3 0
BBX 3 1 0 3
BITMAP
CFC0
ENDCHAR
STARTCHAR period
ENCODING 46
SWIDTH 263 0
DWIDTH 3 0
BBX 2 2 0 0
BITMAP
01
2D
ENDCHAR
STARTCHAR slash
ENCODING 47
SWIDTH 412 0
DWIDTH 5 0
BBX 5 9 0 -1
BITMAP
000C10
003A00
008500
00C000
049000
0A3000
1C0000
570000
B20000
ENDCHAR
STARTCHAR zero
ENCODING 48
SWIDTH 561 0
DWIDTH 6 0
BBX 6 8 0 0
BITMAP
06DE80
1E32D4
4A0087
690078
690078
4A0087
1E32D3
06DE80
ENDCHAR
STARTCHAR one
ENCODING 49
SWIDTH 561 0
DWIDTH 6 0
BBX 4 8 0 0
BITMAP
038C
1C7E
001E
001E
001E
001E
001E
001E
ENDCHAR
STARTCHAR two
ENCODING 50
SWIDTH 561 0
DWIDTH 6 0
BBX 6 8 0 0
BITMAP
08EE90
4C22D4
3300A5
0002C1
001C30
01C400
1B5000
5FFFFC
ENDCHAR
STARTCHAR three
ENCODING 51
SWIDTH 561 0
DWIDTH 6 0
BBX 6 8 0 0
BITMAP
08EE80
4C21C4
1102C3
00EF80
0002D3
110096
5C12D4
08EE70
ENDCHAR
STARTCHAR four
ENCODING 52
SWIDTH 561 0
DWIDTH 6 0
BBX 6 8 0 0
BITMAP
0008D0
003DD0
00C5D0
0862D0
3B02D0
AFFFFE
0002D0
0002D0
ENDCHAR
STARTCHAR five
ENCODING 53
SWIDTH 561 0
DWIDTH 6 0
BBX 5 8 1 0
BITMAP
8FFF80
A40000
B30000
CDEB10
421A80
2004A0
E31A80
4DEA10
ENDCHAR
STARTCHAR six
ENCODING 54
SWIDTH 561 0
DWIDTH 6 0
BBX 6 8 0 0
BITMAP
008D80
08C300
1E1000
3DCEA1
4E31B7
3B0069
0D41B6
03DE90
ENDCHAR
STARTCHAR seven
ENCODING 55
SWIDTH 561 0
DWIDTH 6 0
BBX 6 8 0 0
BITMAP
9FFFFA
000095
0001D0
000870
001D10
006800
00D200
05A000
ENDCHAR
STARTCHAR eight
ENCODING 56
SWIDTH 561 0
DWIDTH 6 0
BBX 6 8 0 0
BITMAP
07EE90
2E21C4
1D21C3
07FF90
2D22C4
5A0078
3D21C6
07EE90
ENDCHAR
STARTCHAR nine
ENCODING 57
SWIDTH 561 0
DWIDTH 6 0
BBX 6 8 0 0
BITMAP
08ED50
4D23D2
780095
4D22C7
08ECC6
0000C3
0028C0
05EA10
ENDCHAR
STARTCHAR colon
ENCODING 58
SWIDTH 242 0
DWIDTH 3 0
BBX 2 6 0 0
BITMAP
2C
01
00
00
01
3C
ENDCHAR
STARTCHAR semicolon
ENCODING 59
SWIDTH 211 0
DWIDTH 2 0
BBX 2 8 0 -2
BITMAP
4A
01
00
00
12
4B
69
82
ENDCHAR
STARTCHAR less
ENCODING 60
SWIDTH 508 0
DWIDTH 6 0
BBX 5 5 0 1
BITMAP
0006A0
17D930
9D2000
17D930
0006A0
ENDCHAR
STARTCHAR equal
ENCODING 61
SWIDTH 548 0
DWIDTH 6 0
BBX 6 3 0 2
BITMAP
3FFFF4
000000
3FFFF4
ENDCHAR
STARTCHAR greater
ENCODING 62
SWIDTH 522 0
DWIDTH 6 0
BBX 6 5 0 1
BITMAP
4A3000
05CB40
0006F4
06CB40
4A3000
ENDCHAR
STARTCHAR question
ENCODING 63
SWIDTH 472 0
DWIDTH 5 0
BBX 5 8 0 0
BITMAP
1BEC20
7917A0
0005A0
002D30
00C500
01B000
001000
01D000
ENDCHAR
STARTCHAR at
ENCODING 64
SWIDTH 897 0
DWIDTH 10 0
BBX 10 10 0 -2
BITMAP
0029EEC500
02D6103B60
0A41BE80C0
1B0881B083
470C12A065
560D039064
480D1990B1
1D18E6BD60
06C4113000
005CED6000
ENDCHAR
STARTCHAR A
ENCODING 65
SWIDTH 652 0
DWIDTH 7 0
BBX 7 8 0 0
BITMAP
001F3000
006C9000
00C3D100
02C09500
08704B00
0EFFFF20
4C000970
A60003D0
ENDCHAR
STARTCHAR B
ENCODING 66
SWIDTH 622 0
DWIDTH 7 0
BBX 7 8 0 0
BITMAP
1FFFD500
1E004E00
1E005D00
1FFFF400
1E004E10
1E000D30
1E004E10
1FFFD500
ENDCHAR
STARTCHAR C
ENCODING 67
SWIDTH 650 0
DWIDTH 7 0
BBX 7 8 0 0
BITMAP
02BED700
0C812D50
3D000450
5A000000
5A000000
3D000450
0C712D40
02BED700
ENDCHAR
STARTCHAR D
ENCODING 68
SWIDTH 655 0
DWIDTH 7 0
BBX 7 8 0 0
BITMAP
1FFEB200
1E017D10
1E000A60
1E000780
1E000780
1E000B60
1E017D10
1FFEA200
ENDCHAR
STARTCHAR E
ENCODING 69
SWIDTH 568 0
DWIDTH 6 0
BBX 6 8 0 0
BITMAP
1FFFFC
1E0000
1E0000
1FFFF5
1E0000
1E0000
1E0000
1FFFFD
ENDCHAR
STARTCHAR F
ENCODING 70
SWIDTH 552 0
DWIDTH 6 0
BBX 6 8 0 0
BITMAP
1FFFFB
1E0000
1E0000
1E0000
1FFFF3
1E0000
1E0000
1E0000
ENDCHAR
STARTCHAR G
ENCODING 71
SWIDTH 681 0
DWIDTH 8 0
BBX 7 8 0 0
BITMAP
02BED700
0C812C60
3D000340
5B000000
5B02FFA0
3D0005A0
0B9118A0
01AEEB20
ENDCHAR
STARTCHAR H
ENCODING 72
SWIDTH 712 0
DWIDTH 8 0
BBX 7 8 0 0
BITMAP
1E0002E0
1E0002E0
1E0002E0
1FFFFFE0
1E0002E0
1E0002E0
1E0002E0
1E0002E0
ENDCHAR
STARTCHAR I
ENCODING 73
SWIDTH 271 0
DWIDTH 3 0
BBX 1 8 1 0
BITMAP
F0
F0
F0
F0
F0
F0
F0
F0
ENDCHAR
STARTCHAR J
ENCODING 74
SWIDTH 551 0
DWIDTH 6 0
BBX 6 8 0 0
BITMAP
0000C3
0000C3
0000C3
0000C3
0000C3
3100D3
9914E1
1BED50
ENDCHAR
STARTCHAR K
ENCODING 75
SWIDTH 626 0
DWIDTH 7 0
BBX 7 8 0 0
BITMAP
1E002D40
1E01C500
1E0B7000
1EAC0000
1FAD5000
1E03E200
1E007C00
1E000B80
ENDCHAR
STARTCHAR L
ENCODING 76
SWIDTH 538 0
DWIDTH 6 0
BBX 6 8 0 0
BITMAP
1E0000
1E0000
1E0000
1E0000
1E0000
1E0000
1E0000
1FFFFA
ENDCHAR
STARTCHAR M
ENCODING 77
SWIDTH 873 0
DWIDTH 10 0
BBX 9 8 0 0
BITMAP
1F60000DA0
1EC0003EA0
1DC3009AA0
1D6901D5A0
1E1D1695A0
1E096C35A0
1E03DC05A0
1E00C605A0
ENDCHAR
STARTCHAR N
ENCODING 78
SWIDTH 712 0
DWIDTH 8 0
BBX 7 8 0 0
BITMAP
1F4002E0
1FD102E0
1EA802E0
1E1E32E0
1E05C2E0
1E00B8E0
1E002EE0
1E0007E0
ENDCHAR
STARTCHAR O
ENCODING 79
SWIDTH 687 0
DWIDTH 8 0
BBX 7 8 0 0
BITMAP
01AED700
0C813D50
3D0005B0
5A0002D0
5A0002D0
3D0005B0
0C813C60
02BED700
ENDCHAR
STARTCHAR P
ENCODING 80
SWIDTH 630 0
DWIDTH 7 0
BBX 7 8 0 0
BITMAP
1FFFD700
1E002D40
1E000870
1E002C50
1FFFE800
1E000000
1E000000
1E000000
ENDCHAR
STARTCHAR Q
ENCODING 81
SWIDTH 687 0
DWIDTH 8 0
BBX 7 10 0 -2
BITMAP
02BED600
0C713D50
4C0005B0
6A0003D0
6A0003D0
4C0005B0
0D713D50
02BEEC00
00001A90
00000010
ENDCHAR
STARTCHAR R
ENCODING 82
SWIDTH 615 0
DWIDTH 7 0
BBX 7 8 0 0
BITMAP
1FFFC400
1E004E10
1E000D30
1E004E10
1FFFE400
1E01D300
1E006B00
1E000C50
ENDCHAR
STARTCHAR S
ENCODING 83
SWIDTH 593 0
DWIDTH 7 0
BBX 7 8 0 0
BITMAP
06DFC300
3E316D00
4D000500
09D83000
0028D800
33001F10
5C204E00
07DFC400
ENDCHAR
STARTCHAR T
ENCODING 84
SWIDTH 596 0
DWIDTH 7 0
BBX 7 8 0 0
BITMAP
BFFFFF50
004C0000
004C0000
004C0000
004C0000
004C0000
004C0000
004C0000
ENDCHAR
STARTCHAR U
ENCODING 85
SWIDTH 648 0
DWIDTH 7 0
BBX 7 8 0 0
BITMAP
4C000960
4C000960
4C000960
4C000960
4C000960
3C000A60
1E514E20
04CFD500
ENDCHAR
STARTCHAR V
ENCODING 86
SWIDTH 636 0
DWIDTH 7 0
BBX 7 8 0 0
BITMAP
A70007A0
5C000C50
0E202E00
09707900
03C0C300
00D4D000
007D7000
002F2000
ENDCHAR
STARTCHAR W
ENCODING 87
SWIDTH 887 0
DWIDTH 10 0
BBX 10 8 0 0
BITMAP
8700980096
5A00DC00D2
1E03BC11E0
0D277854A0
096B249870
069D01DB30
02E900BE00
00E4007B00
ENDCHAR
STARTCHAR X
ENCODING 88
SWIDTH 626 0
DWIDTH 7 0
BBX 7 8 0 0
BITMAP
5D001E40
0B709900
02E5E100
007F6000
007F6000
02E4E100
0B708A00
6C001D40
ENDCHAR
STARTCHAR Y
ENCODING 89
SWIDTH 600 0
DWIDTH 7 0
BBX 7 8 0 0
BITMAP
A8000D30
2E106A00
0981D300
01E89000
008F2000
003C0000
003C0000
003C0000
ENDCHAR
STARTCHAR Z
ENCODING 90
SWIDTH 598 0
DWIDTH 7 0
BBX 7 8 0 0
BITMAP
7FFFFF00
00009800
0005C000
001D3000
00B70000
06B00000
2D200000
8FFFFF20
ENDCHAR
STARTCHAR bracketleft
ENCODING 91
SWIDTH 265 0
DWIDTH 3 0
BBX 3 11 0 -2
BITMAP
3FC0
3C00
3C00
3C00
3C00
3C00
3C00
3C00
3C00
3C00
3FC0
ENDCHAR
STARTCHAR backslash
ENCODING 92
SWIDTH 410 0
DWIDTH 5 0
BBX 5 9 0 -1
BITMAP
950000
4A0000
0D1000
086000
02C000
00C200
006800
001D00
000A40
ENDCHAR
STARTCHAR bracketright
ENCODING 93
SWIDTH 265 0
DWIDTH 3 0
BBX 3 11 0 -2
BITMAP
EF10
0E10
0E10
0E10
0E10
0E10
0E10
0E10
0E10
0E10
EF10
ENDCHAR
STARTCHAR asciicircum
ENCODING 94
SWIDTH 417 0
DWIDTH 5 0
BBX 5 4 0 4
BITMAP
04C000
0AC300
1C4900
770D10
ENDCHAR
STARTCHAR underscore
ENCODING 95
SWIDTH 451 0
DWIDTH 5 0
BBX 5 1 0 -1
BITMAP
FFFFE0
ENDCHAR
STARTCHAR grave
ENCODING 96
SWIDTH 309 0
DWIDTH 3 0
BBX 3 2 0 7
BITMAP
5C00
0940
ENDCHAR
STARTCHAR a
ENCODING 97
SWIDTH 543 0
DWIDTH 6 0
BBX 6 6 0 0
BITMAP
09EE70
2611D1
08EFF3
4C20C3
5B14E3
0AEBC4
ENDCHAR
STARTCHAR b
ENCODING 98
SWIDTH 561 0
DWIDTH 6 0
BBX 6 8 0 0
BITMAP
4B0000
4B0000
4DBEA0
4E31C6
4B0069
4B0069
4E31C6
4CCEA0
ENDCHAR
STARTCHAR c
ENCODING 99
SWIDTH 523 0
DWIDTH 6 0
BBX 6 6 0 0
BITMAP
06EE70
3D21C3
780011
780000
3D21B4
06DE70
ENDCHAR
STARTCHAR d
ENCODING 100
SWIDTH 563 0
DWIDTH 6 0
BBX 6 8 0 0
BITMAP
000096
000096
07EDC6
3D22C6
690096
680096
3D22C6
07EDB6
ENDCHAR
STARTCHAR e
ENCODING 101
SWIDTH 529 0
DWIDTH 6 0
BBX 6 6 0 0
BITMAP
06DE70
3C22C3
7FFFF6
790000
3E3161
06DEA1
ENDCHAR
STARTCHAR f
ENCODING 102
SWIDTH 347 0
DWIDTH 4 0
BBX 4 9 0 0
BITMAP
03DC
0A70
0B40
AFF7
0C40
0C40
0C40
0C40
0C40
ENDCHAR
STARTCHAR g
ENCODING 103
SWIDTH 561 0
DWIDTH 6 0
BBX 6 8 0 -2
BITMAP
07EDB6
3E22C6
690096
690096
3E22C6
07EDC6
0412D3
09EE70
ENDCHAR
STARTCHAR h
ENCODING 104
SWIDTH 550 0
DWIDTH 6 0
BBX 6 8 0 0
BITMAP
4B0000
4B0000
4CBEA0
4E31D4
4B00A5
4B00A5
4B00A5
4B00A5
ENDCHAR
STARTCHAR i
ENCODING 105
SWIDTH 242 0
DWIDTH 3 0
BBX 2 9 0 0
BITMAP
01
2C
00
2C
2C
2C
2C
2C
2C
ENDCHAR
STARTCHAR j
ENCODING 106
SWIDTH 238 0
DWIDTH 3 0
BBX 3 11 -1 -2
BITMAP
0010
03B0
0000
03C0
03C0
03C0
03C0
03C0
03C0
05B0
5E60
ENDCHAR
STARTCHAR k
ENCODING 107
SWIDTH 506 0
DWIDTH 6 0
BBX 6 9 0 0
BITMAP
4B0000
4B0000
4B0000
4B05C1
4B4D10
4DE400
4E8B00
4B0A70
4B01D3
ENDCHAR
STARTCHAR l
ENCODING 108
SWIDTH 242 0
DWIDTH 3 0
BBX 2 9 0 0
BITMAP
2C
2C
2C
2C
2C
2C
2C
2C
2C
ENDCHAR
STARTCHAR m
ENCODING 109
SWIDTH 876 0
DWIDTH 10 0
BBX 9 6 0 0
BITMAP
4CBE96EE50
4E31DA15C0
4B00A501D0
4B00A501D0
4B00A501D0
4B00A501D0
ENDCHAR
STARTCHAR n
ENCODING 110
SWIDTH 551 0
DWIDTH 6 0
BBX 6 6 0 0
BITMAP
4CBEA0
4E31D4
4B00A5
4B00A5
4B00A5
4B00A5
ENDCHAR
STARTCHAR o
ENCODING 111
SWIDTH 570 0
DWIDTH 6 0
BBX 6 6 0 0
BITMAP
06DE80
3E31B6
78004B
78004B
3D31B7
06DE90
ENDCHAR
STARTCHAR p
ENCODING 112
SWIDTH 561 0
DWIDTH 6 0
BBX 6 8 0 -2
BITMAP
4CCE90
4E32C6
4B0069
4B0069
4E31C6
4DCE90
4B0000
4B0000
ENDCHAR
STARTCHAR q
ENCODING 113
SWIDTH 568 0
DWIDTH 6 0
BBX 6 8 0 -2
BITMAP
07EDB6
3E32C6
690096
680096
3D22C6
07EDC6
000096
000096
ENDCHAR
STARTCHAR r
ENCODING 114
SWIDTH 338 0
DWIDTH 4 0
BBX 4 6 0 0
BITMAP
4CC8
4E30
4B00
4B00
4B00
4B00
ENDCHAR
STARTCHAR s
ENCODING 115
SWIDTH 515 0
DWIDTH 6 0
BBX 6 6 0 0
BITMAP
09ED60
3C13C0
1DC710
0048D0
5A12E1
09EE60
ENDCHAR
STARTCHAR t
ENCODING 116
SWIDTH 326 0
DWIDTH 4 0
BBX 4 7 0 0
BITMAP
0D10
EFF3
0D10
0D10
0D10
0D30
08E3
ENDCHAR
STARTCHAR u
ENCODING 117
SWIDTH 551 0
DWIDTH 6 0
BBX 6 6 0 0
BITMAP
4B00A5
4B00A5
4B00A5
4B00A5
3D13D5
09ECC5
ENDCHAR
STARTCHAR v
ENCODING 118
SWIDTH 484 0
DWIDTH 5 0
BBX 5 6 0 0
BITMAP
A501E0
5A0590
0D1A40
095D00
04D800
00D300
ENDCHAR
STARTCHAR w
ENCODING 119
SWIDTH 751 0
DWIDTH 8 0
BBX 8 6 0 0
BITMAP
9507A02D
590BD059
1D1B9495
0C7748C1
08E30DB0
03D00A70
ENDCHAR
STARTCHAR x
ENCODING 120
SWIDTH 495 0
DWIDTH 5 0
BBX 5 6 0 0
BITMAP
6B05C0
0B5D30
02E800
03E900
0C4C40
7A04D0
ENDCHAR
STARTCHAR y
ENCODING 121
SWIDTH 473 0
DWIDTH 5 0
BBX 5 8 0 -2
BITMAP
A602D0
5B0780
0E1C30
098C00
04F700
00E200
04B000
8D3000
ENDCHAR
STARTCHAR z
ENCODING 122
SWIDTH 495 0
DWIDTH 5 0
BBX 6 6 0 0
BITMAP
7FFFE0
000B60
008A00
04C100
2D2000
8FFFF1
ENDCHAR
STARTCHAR braceleft
ENCODING 123
SWIDTH 338 0
DWIDTH 4 0
BBX 4 11 0 -2
BITMAP
0086
05B0
0770
0870
1B40
AC00
1B40
0870
0770
05B0
0086
ENDCHAR
STARTCHAR bar
ENCODING 124
SWIDTH 243 0
DWIDTH 3 0
BBX 2 9 0 -1
BITMAP
1B
1B
1B
1B
1B
1B
1B
1B
1B
ENDCHAR
STARTCHAR braceright
ENCODING 125
SWIDTH 338 0
DWIDTH 4 0
BBX 4 11 0 -2
BITMAP
9500
1D10
0C30
0B30
0970
02E5
0970
0B30
0C30
1E10
9500
ENDCHAR
STARTCHAR asciitilde
ENCODING 126
SWIDTH 680 0
DWIDTH 7 0
BBX 7 2 0 2
BITMAP
0AEA3390
3917ED30
ENDCHAR
STARTCHAR uni00A0
ENCODING 160
SWIDTH 247 0
DWIDTH 3 0
BBX 1 1 0 0
BITMAP
00
ENDCHAR
STARTCHAR exclamdown
ENCODING 161
SWIDTH 243 0
DWIDTH 3 0
BBX 2 8 0 -2
BITMAP
2C
01
19
2C
2D
2D
2D
2D
ENDCHAR
STARTCHAR cent
ENCODING 162
SWIDTH 546 0
DWIDTH 6 0
BBX 6 10 0 -2
BITMAP
001200
006900
06EF90
2E31B5
690000
690000
2E31A5
06EF90
006900
002200
ENDCHAR
STARTCHAR sterling
ENCODING 163
SWIDTH 581 0
DWIDTH 6 0
BBX 7 8 0 0
BITMAP
01AED300
07B16C00
0A500100
0A600000
8FFF1000
09600000
0B500000
7FFFFF10
ENDCHAR
STARTCHAR currency
ENCODING 164
SWIDTH 712 0
DWIDTH 8 0
BBX 8 7 0 0
BITMAP
3C9EE8D2
0C912BB0
1D0001E0
3B0000C2
1D0001E0
0DA12BC0
3B9EE8B2
ENDCHAR
STARTCHAR yen
ENCODING 165
SWIDTH 524 0
DWIDTH 6 0
BBX 6 8 0 0
BITMAP
A700A7
3D02E1
0A6970
03DD10
5FFFF2
00A600
5FFFF2
00A600
ENDCHAR
STARTCHAR brokenbar
ENCODING 166
SWIDTH 239 0
DWIDTH 3 0
BBX 2 9 0 -1
BITMAP
3C
3C
3C
3C
00
3C
3C
3C
3C
ENDCHAR
STARTCHAR section
ENCODING 167
SWIDTH 613 0
DWIDTH 7 0
BBX 7 11 0 -3
BITMAP
06DEC300
2E306D00
2D100500
0BE83000
4C59E900
69001E10
1DA54D00
015AF600
23004C00
5C207C00
08EEC300
ENDCHAR
STARTCHAR dieresis
ENCODING 168
SWIDTH 417 0
DWIDTH 5 0
BBX 4 2 0 7
BITMAP
0101
591D
ENDCHAR
STARTCHAR copyright
ENCODING 169
SWIDTH 785 0
DWIDTH 9 0
BBX 9 8 0 0
BITMAP
007DEB4000
0A8214C400
382CE81B00
7395150910
7395050910
392DE91B00
0A8204C400
007DEC4000
ENDCHAR
STARTCHAR ordfeminine
ENCODING 170
SWIDTH 446 0
DWIDTH 5 0
BBX 5 4 0 4
BITMAP
0AEA00
161D10
1CFF10
1DED20
ENDCHAR
STARTCHAR guillemotleft
ENCODING 171
SWIDTH 469 0
DWIDTH 5 0
BBX 5 4 0 1
BITMAP
048850
2B5900
2B5900
048850
ENDCHAR
STARTCHAR logicalnot
ENCODING 172
SWIDTH 553 0
DWIDTH 6 0
BBX 6 2 0 2
BITMAP
5FFFF2
0000D2
ENDCHAR
STARTCHAR uni00AD
ENCODING 173
SWIDTH 275 0
DWIDTH 3 0
BBX 3 1 0 3
BITMAP
CFC0
ENDCHAR
STARTCHAR registered
ENCODING 174
SWIDTH 786 0
DWIDTH 9 0
BBX 9 8 0 0
BITMAP
007DEB4000
0A8214C400
384FE81B00
72481D0910
734FF90910
38480C1B00
0A8204C400
007DEC4000
ENDCHAR
STARTCHAR macron
ENCODING 175
SWIDTH 458 0
DWIDTH 5 0
BBX 5 1 0 7
BITMAP
4FFF60
ENDCHAR
STARTCHAR degree
ENCODING 176
SWIDTH 373 0
DWIDTH 4 0
BBX 4 3 0 5
BITMAP
1CD1
4976
1CD2
ENDCHAR
STARTCHAR plusminus
ENCODING 177
SWIDTH 534 0
DWIDTH 6 0
BBX 6 8 0 0
BITMAP
001200
006700
006700
7FFFF7
006700
006700
002200
4FFFF3
ENDCHAR
STARTCHAR uni00B2
ENCODING 178
SWIDTH 366 0
DWIDTH 4 0
BBX 4 4 0 4
BITMAP
4EE4
43A4
1A50
8FFA
ENDCHAR
STARTCHAR uni00B3
ENCODING 179
SWIDTH 366 0
DWIDTH 4 0
BBX 4 4 0 4
BITMAP
5EE4
19F3
2178
5ED3
ENDCHAR
STARTCHAR acute
ENCODING 180
SWIDTH 313 0
DWIDTH 3 0
BBX 3 2 0 7
BITMAP
0A80
2B00
ENDCHAR
STARTCHAR mu
ENCODING 181
SWIDTH 566 0
DWIDTH 6 0
BBX 6 8 0 -2
BITMAP
3C0096
3C0096
3C0096
3D0096
3F32C6
3EEDA5
3C0000
3C0000
ENDCHAR
STARTCHAR paragraph
ENCODING 182
SWIDTH 488 0
DWIDTH 5 0
BBX 5 8 0 0
BITMAP
08EF70
6FFF70
9FFF70
7FFF70
1BFF70
001970
000870
000870
ENDCHAR
STARTCHAR periodcentered
ENCODING 183
SWIDTH 260 0
DWIDTH 3 0
BBX 2 2 0 3
BITMAP
2D
01
ENDCHAR
STARTCHAR cedilla
ENCODING 184
SWIDTH 247 0
DWIDTH 3 0
BBX 3 3 0 -3
BITMAP
3B10
2C30
3600
ENDCHAR
STARTCHAR uni00B9
ENCODING 185
SWIDTH 366 0
DWIDTH 4 0
BBX 3 4 0 4
BITMAP
0790
5BA0
03A0
03A0
ENDCHAR
STARTCHAR ordmasculine
ENCODING 186
SWIDTH 454 0
DWIDTH 5 0
BBX 5 4 0 4
BITMAP
0AEA00
4B1B40
4B1B40
0BEA00
ENDCHAR
STARTCHAR guillemotright
ENCODING 187
SWIDTH 468 0
DWIDTH 5 0
BBX 5 4 0 1
BITMAP
2A4900
068860
068860
2A4900
ENDCHAR
STARTCHAR onequarter
ENCODING 188
SWIDTH 732 0
DWIDTH 8 0
BBX 8 8 0 0
BITMAP
18600000
8D700910
06706600
0672A000
000A24F1
006639C1
0190BFFA
000000B1
ENDCHAR
STARTCHAR onehalf
ENCODING 189
SWIDTH 775 0
DWIDTH 9 0
BBX 8 8 0 0
BITMAP
18600000
8D701900
06709300
06747000
001A1CE7
00932469
03700780
00004FFE
ENDCHAR
STARTCHAR threequarters
ENCODING 190
SWIDTH 777 0
DWIDTH 9 0
BBX 9 8 0 0
BITMAP
2DF8000000
05F7018000
353C0A2000
2DE6560000
0002A0B900
000A288900
00464FFF20
0000004900
ENDCHAR
STARTCHAR questiondown
ENCODING 191
SWIDTH 473 0
DWIDTH 5 0
BBX 5 8 0 -2
BITMAP
00C200
001000
00A100
04D000
2D2000
870000
8917A0
2BEC20
ENDCHAR
STARTCHAR Agrave
ENCODING 192
SWIDTH 652 0
DWIDTH 7 0
BBX 7 11 0 0
BITMAP
00B70000
001C1000
00000000
001F3000
006C9000
00C3D100
02C09500
08704B00
0EFFFF20
4C000970
A60003D0
ENDCHAR
STARTCHAR Aacute
ENCODING 193
SWIDTH 652 0
DWIDTH 7 0
BBX 7 11 0 0
BITMAP
0004D100
000A4000
00000000
001F3000
006C9000
00C3D100
02C09500
08704B00
0EFFFF20
4C000970
A60003D0
ENDCHAR
STARTCHAR Acircumflex
ENCODING 194
SWIDTH 652 0
DWIDTH 7 0
BBX 7 11 0 0
BITMAP
003E5000
00A3B100
00000000
001F3000
006C9000
00C3D100
02C09500
08704B00
0EFFFF20
4C000970
A60003D0
ENDCHAR
STARTCHAR Atilde
ENCODING 195
SWIDTH 652 0
DWIDTH 7 0
BBX 7 11 0 0
BITMAP
00C95700
0386E200
00000000
001F3000
006C9000
00C3D100
02C09500
08704B00
0EFFFF20
4C000970
A60003D0
ENDCHAR
STARTCHAR Adieresis
ENCODING 196
SWIDTH 652 0
DWIDTH 7 0
BBX 7 11 0 0
BITMAP
00101000
00D0A400
00000000
001F3000
006C9000
00C3D100
02C09500
08704B00
0EFFFF20
4C000970
A60003D0
ENDCHAR
STARTCHAR Aring
ENCODING 197
SWIDTH 652 0
DWIDTH 7 0
BBX 7 11 0 0
BITMAP
00587000
00587000
00000000
001F3000
006C9000
00C3D100
02C09500
08704B00
0EFFFF20
4C000970
A60003D0
ENDCHAR
STARTCHAR AE
ENCODING 198
SWIDTH 934 0
DWIDTH 10 0
BBX 11 8 0 0
BITMAP
0000AFFFFC00
0004CE100000
000C4D200000
006A0DFFF500
01D20C300000
09FFFF400000
3E100B400000
C6000AFFFF10
ENDCHAR
STARTCHAR Ccedilla
ENCODING 199
SWIDTH 650 0
DWIDTH 7 0
BBX 7 11 0 -3
BITMAP
02BED700
0C812D50
3D000450
5A000000
5A000000
3D000450
0C712D40
02BED700
000A5000
0006B000
00072000
ENDCHAR
STARTCHAR Egrave
ENCODING 200
SWIDTH 568 0
DWIDTH 6 0
BBX 6 11 0 0
BITMAP
01D300
005900
000000
1FFFFC
1E0000
1E0000
1FFFF5
1E0000
1E0000
1E0000
1FFFFD
ENDCHAR
STARTCHAR Eacute
ENCODING 201
SWIDTH 568 0
DWIDTH 6 0
BBX 6 11 0 0
BITMAP
0008A0
001B10
000000
1FFFFC
1E0000
1E0000
1FFFF5
1E0000
1E0000
1E0000
1FFFFD
ENDCHAR
STARTCHAR Ecircumflex
ENCODING 202
SWIDTH 568 0
DWIDTH 6 0
BBX 6 11 0 0
BITMAP
006D20
01B4A0
000000
1FFFFC
1E0000
1E0000
1FFFF5
1E0000
1E0000
1E0000
1FFFFD
ENDCHAR
STARTCHAR Edieresis
ENCODING 203
SWIDTH 568 0
DWIDTH 6 0
BBX 6 11 0 0
BITMAP
001010
0490D0
000000
1FFFFC
1E0000
1E0000
1FFFF5
1E0000
1E0000
1E0000
1FFFFD
ENDCHAR
STARTCHAR Igrave
ENCODING 204
SWIDTH 271 0
DWIDTH 3 0
BBX 2 11 0 0
BITMAP
C5
3B
00
0F
0F
0F
0F
0F
0F
0F
0F
ENDCHAR
STARTCHAR Iacute
ENCODING 205
SWIDTH 271 0
DWIDTH 3 0
BBX 2 11 1 0
BITMAP
5C
B2
00
F0
F0
F0
F0
F0
F0
F0
F0
ENDCHAR
STARTCHAR Icircumflex
ENCODING 206
SWIDTH 271 0
DWIDTH 3 0
BBX 3 11 0 0
BITMAP
4E40
B3B0
0000
0F00
0F00
0F00
0F00
0F00
0F00
0F00
0F00
ENDCHAR
STARTCHAR Idieresis
ENCODING 207
SWIDTH 271 0
DWIDTH 3 0
BBX 5 11 -1 0
BITMAP
010100
2C0C20
000000
00F000
00F000
00F000
00F000
00F000
00F000
00F000
00F000
ENDCHAR
STARTCHAR Eth
ENCODING 208
SWIDTH 670 0
DWIDTH 7 0
BBX 7 8 0 0
BITMAP
0EFFB300
0E115E20
0E100880
FFF705A0
0E1005A0
0E100880
0E116E20
0EFEB300
ENDCHAR
STARTCHAR Ntilde
ENCODING 209
SWIDTH 712 0
DWIDTH 8 0
BBX 7 11 0 0
BITMAP
008C2B00
00B3E600
00000000
1F4002E0
1FD102E0
1EA802E0
1E1E32E0
1E05C2E0
1E00B8E0
1E002EE0
1E0007E0
ENDCHAR
STARTCHAR Ograve
ENCODING 210
SWIDTH 687 0
DWIDTH 8 0
BBX 7 11 0 0
BITMAP
008A0000
000B2000
00000000
01AED700
0C813D50
3D0005B0
5A0002D0
5A0002D0
3D0005B0
0C813C60
02BED700
ENDCHAR
STARTCHAR Oacute
ENCODING 211
SWIDTH 687 0
DWIDTH 8 0
BBX 7 11 0 0
BITMAP
0002E200
00076000
00000000
01AED700
0C813D50
3D0005B0
5A0002D0
5A0002D0
3D0005B0
0C813C60
02BED700
ENDCHAR
STARTCHAR Ocircumflex
ENCODING 212
SWIDTH 687 0
DWIDTH 8 0
BBX 7 11 0 0
BITMAP
001D8000
0085A300
00000000
01AED700
0C813D50
3D0005B0
5A0002D0
5A0002D0
3D0005B0
0C813C60
02BED700
ENDCHAR
STARTCHAR Otilde
ENCODING 213
SWIDTH 687 0
DWIDTH 8 0
BBX 7 11 0 0
BITMAP
00AB3900
01A4E400
00000000
01AED700
0C813D50
3D0005B0
5A0002D0
5A0002D0
3D0005B0
0C813C60
02BED700
ENDCHAR
STARTCHAR Odieresis
ENCODING 214
SWIDTH 687 0
DWIDTH 8 0
BBX 7 11 0 0
BITMAP
00100000
00C28600
00000000
01AED700
0C813D50
3D0005B0
5A0002D0
5A0002D0
3D0005B0
0C813C60
02BED700
ENDCHAR
STARTCHAR multiply
ENCODING 215
SWIDTH 533 0
DWIDTH 6 0
BBX 6 5 0 1
BITMAP
4901B1
0A9B80
01EC00
0A9B80
4901B1
ENDCHAR
STARTCHAR Oslash
ENCODING 216
SWIDTH 687 0
DWIDTH 8 0
BBX 7 10 0 -1
BITMAP
00000020
01AED880
0C812E50
3D0069B0
5A02A2D0
5A0A22D0
3D5705B0
0CC13D60
09BED700
04000000
ENDCHAR
STARTCHAR Ugrave
ENCODING 217
SWIDTH 648 0
DWIDTH 7 0
BBX 7 11 0 0
BITMAP
00B70000
002C0000
00000000
4C000960
4C000960
4C000960
4C000960
4C000960
3C000A60
1E514E20
04CFD500
ENDCHAR
STARTCHAR Uacute
ENCODING 218
SWIDTH 648 0
DWIDTH 7 0
BBX 7 11 0 0
BITMAP
0004D100
000A3000
00000000
4C000960
4C000960
4C000960
4C000960
4C000960
3C000A60
1E514E20
04CFD500
ENDCHAR
STARTCHAR Ucircumflex
ENCODING 219
SWIDTH 648 0
DWIDTH 7 0
BBX 7 11 0 0
BITMAP
003E5000
00B3B100
00000000
4C000960
4C000960
4C000960
4C000960
4C000960
3C000A60
1E514E20
04CFD500
ENDCHAR
STARTCHAR Udieresis
ENCODING 220
SWIDTH 648 0
DWIDTH 7 0
BBX 7 11 0 0
BITMAP
00101000
01D0A300
00000000
4C000960
4C000960
4C000960
4C000960
4C000960
3C000A60
1E514E20
04CFD500
ENDCHAR
STARTCHAR Yacute
ENCODING 221
SWIDTH 600 0
DWIDTH 7 0
BBX 7 11 0 0
BITMAP
0008A000
001B1000
00000000
A8000D30
2E106A00
0981D300
01E89000
008F2000
003C0000
003C0000
003C0000
ENDCHAR
STARTCHAR Thorn
ENCODING 222
SWIDTH 590 0
DWIDTH 7 0
BBX 6 8 0 0
BITMAP
2D0000
2D0000
2FFFC4
2D005D
2D005D
2FFFC3
2D0000
2D0000
ENDCHAR
STARTCHAR germandbls
ENCODING 223
SWIDTH 594 0
DWIDTH 7 0
BBX 6 9 0 0
BITMAP
07ED40
1E24C0
3B03C0
4B0960
4B0B50
4B03D3
4B003D
4B212E
4B6EE6
ENDCHAR
STARTCHAR agrave
ENCODING 224
SWIDTH 543 0
DWIDTH 6 0
BBX 6 9 0 0
BITMAP
03D100
008600
000000
09EE70
2611D1
08EFF3
4C20C3
5B14E3
0AEBC4
ENDCHAR
STARTCHAR aacute
ENCODING 225
SWIDTH 543 0
DWIDTH 6 0
BBX 6 9 0 0
BITMAP
000B70
003A00
000000
09EE70
2611D1
08EFF3
4C20C3
5B14E3
0AEBC4
ENDCHAR
STARTCHAR acircumflex
ENCODING 226
SWIDTH 543 0
DWIDTH 6 0
BBX 6 9 0 0
BITMAP
009C10
049670
000000
09EE70
2611D1
08EFF3
4C20C3
5B14E3
0AEBC4
ENDCHAR
STARTCHAR atilde
ENCODING 227
SWIDTH 543 0
DWIDTH 6 0
BBX 6 9 0 0
BITMAP
05D3B0
0A2C90
000000
09EE70
2611D1
08EFF3
4C20C3
5B14E3
0AEBC4
ENDCHAR
STARTCHAR adieresis
ENCODING 228
SWIDTH 543 0
DWIDTH 6 0
BBX 6 9 0 0
BITMAP
000010
0773B0
000000
09EE70
2611D1
08EFF3
4C20C3
5B14E3
0AEBC4
ENDCHAR
STARTCHAR aring
ENCODING 229
SWIDTH 543 0
DWIDTH 6 0
BBX 6 9 0 0
BITMAP
009920
009920
000000
09EE70
2611D1
08EFF3
4C20C3
5B14E3
0AEBC4
ENDCHAR
STARTCHAR ae
ENCODING 230
SWIDTH 844 0
DWIDTH 9 0
BBX 9 6 0 0
BITMAP
1BED5AEC30
2512F605B0
1BEFFFFFE0
7A10F10000
7915F91120
2CEC4AED60
ENDCHAR
STARTCHAR ccedilla
ENCODING 231
SWIDTH 523 0
DWIDTH 6 0
BBX 6 9 0 -3
BITMAP
06EE70
3D21C3
780011
780000
3D21B4
06DE70
007800
004D00
006400
ENDCHAR
STARTCHAR egrave
ENCODING 232
SWIDTH 529 0
DWIDTH 6 0
BBX 6 9 0 0
BITMAP
04D100
009500
000000
06DE70
3C22C3
7FFFF6
790000
3E3161
06DEA1
ENDCHAR
STARTCHAR eacute
ENCODING 233
SWIDTH 529 0
DWIDTH 6 0
BBX 6 9 0 0
BITMAP
000C60
004900
000000
06DE70
3C22C3
7FFFF6
790000
3E3161
06DEA1
ENDCHAR
STARTCHAR ecircumflex
ENCODING 234
SWIDTH 529 0
DWIDTH 6 0
BBX 6 9 0 0
BITMAP
00AB00
058750
000000
06DE70
3C22C3
7FFFF6
790000
3E3161
06DEA1
ENDCHAR
STARTCHAR edieresis
ENCODING 235
SWIDTH 529 0
DWIDTH 6 0
BBX 6 9 0 0
BITMAP
010010
0954A0
000000
06DE70
3C22C3
7FFFF6
790000
3E3161
06DEA1
ENDCHAR
STARTCHAR igrave
ENCODING 236
SWIDTH 247 0
DWIDTH 3 0
BBX 3 9 -1 0
BITMAP
1D30
0490
0000
03C0
03C0
03C0
03C0
03C0
03C0
ENDCHAR
STARTCHAR iacute
ENCODING 237
SWIDTH 247 0
DWIDTH 3 0
BBX 3 9 0 0
BITMAP
08A0
1B10
0000
3C00
3C00
3C00
3C00
3C00
3C00
ENDCHAR
STARTCHAR icircumflex
ENCODING 238
SWIDTH 247 0
DWIDTH 3 0
BBX 4 9 -1 0
BITMAP
06E3
1B3A
0000
03C0
03C0
03C0
03C0
03C0
03C0
ENDCHAR
STARTCHAR idieresis
ENCODING 239
SWIDTH 247 0
DWIDTH 3 0
BBX 5 9 -1 0
BITMAP
010100
4A0D10
000000
03C000
03C000
03C000
03C000
03C000
03C000
ENDCHAR
STARTCHAR eth
ENCODING 240
SWIDTH 585 0
DWIDTH 6 0
BBX 6 9 0 0
BITMAP
07B351
006FA0
0096E1
05DDC7
1E419A
4B004B
4B006A
1E41C6
04DE80
ENDCHAR
STARTCHAR ntilde
ENCODING 241
SWIDTH 551 0
DWIDTH 6 0
BBX 6 9 0 0
BITMAP
06D3B0
0A2D80
000000
4CBEA0
4E31D4
4B00A5
4B00A5
4B00A5
4B00A5
ENDCHAR
STARTCHAR ograve
ENCODING 242
SWIDTH 570 0
DWIDTH 6 0
BBX 6 9 0 0
BITMAP
04D100
008500
000000
06DE80
3E31B6
78004B
78004B
3D31B7
06DE90
ENDCHAR
STARTCHAR oacute
ENCODING 243
SWIDTH 570 0
DWIDTH 6 0
BBX 6 9 0 0
BITMAP
000B60
003A00
000000
06DE80
3E31B6
78004B
78004B
3D31B7
06DE90
ENDCHAR
STARTCHAR ocircumflex
ENCODING 244
SWIDTH 570 0
DWIDTH 6 0
BBX 6 9 0 0
BITMAP
00AC10
049760
000000
06DE80
3E31B6
78004B
78004B
3D31B7
06DE90
ENDCHAR
STARTCHAR otilde
ENCODING 245
SWIDTH 570 0
DWIDTH 6 0
BBX 6 9 0 0
BITMAP
06D3B0
0A2C80
000000
06DE80
3E31B6
78004B
78004B
3D31B7
06DE90
ENDCHAR
STARTCHAR odieresis
ENCODING 246
SWIDTH 570 0
DWIDTH 6 0
BBX 6 9 0 0
BITMAP
000010
0863B0
000000
06DE80
3E31B6
78004B
78004B
3D31B7
06DE90
ENDCHAR
STARTCHAR divide
ENCODING 247
SWIDTH 570 0
DWIDTH 6 0
BBX 6 7 0 0
BITMAP
001200
006800
000000
9FFFFB
000000
005800
001200
ENDCHAR
STARTCHAR oslash
ENCODING 248
SWIDTH 566 0
DWIDTH 6 0
BBX 6 8 0 -1
BITMAP
000041
06DED0
3E36D7
780A4B
78744B
3EA1B7
09DE90
060000
ENDCHAR
STARTCHAR ugrave
ENCODING 249
SWIDTH 551 0
DWIDTH 6 0
BBX 6 9 0 0
BITMAP
04D100
009500
000000
4B00A5
4B00A5
4B00A5
4B00A5
3D13D5
09ECC5
ENDCHAR
STARTCHAR uacute
ENCODING 250
SWIDTH 551 0
DWIDTH 6 0
BBX 6 9 0 0
BITMAP
000C60
004A00
000000
4B00A5
4B00A5
4B00A5
4B00A5
3D13D5
09ECC5
ENDCHAR
STARTCHAR ucircumflex
ENCODING 251
SWIDTH 551 0
DWIDTH 6 0
BBX 6 9 0 0
BITMAP
00AB10
058760
000000
4B00A5
4B00A5
4B00A5
4B00A5
3D13D5
09ECC5
ENDCHAR
STARTCHAR udieresis
ENCODING 252
SWIDTH 551 0
DWIDTH 6 0
BBX 6 9 0 0
BITMAP
010010
0864A0
000000
4B00A5
4B00A5
4B00A5
4B00A5
3D13D5
09ECC5
ENDCHAR
STARTCHAR yacute
ENCODING 253
SWIDTH 473 0
DWIDTH 5 0
BBX 5 11 0 -2
BITMAP
002E20
008500
000000
A602D0
5B0780
0E1C30
098C00
04F700
00E200
04B000
8D3000
ENDCHAR
STARTCHAR thorn
ENCODING 254
SWIDTH 576 0
DWIDTH 6 0
BBX 6 10 0 -2
BITMAP
3C0000
3C0000
3DBEA0
3E31C6
3C005A
3C005A
3E31B6
3DBEA0
3C0000
3C0000
ENDCHAR
STARTCHAR ydieresis
ENCODING 255
SWIDTH 473 0
DWIDTH 5 0
BBX 5 11 0 -2
BITMAP
010100
0D1950
000000
A602D0
5B0780
0E1C30
098C00
04F700
00E200
04B000
8D3000
ENDCHAR
STARTCHAR Amacron
ENCODING 256
SWIDTH 652 0
DWIDTH 7 0
BBX 7 10 0 0
BITMAP
03FFF700
00000000
001F3000
006C9000
00C3D100
02C09500
08704B00
0EFFFF20
4C000970
A60003D0
ENDCHAR
STARTCHAR amacron
ENCODING 257
SWIDTH 543 0
DWIDTH 6 0
BBX 6 8 0 0
BITMAP
0AFFE0
000000
09EE70
2611D1
08EFF3
4C20C3
5B14E3
0AEBC4
ENDCHAR
STARTCHAR Abreve
ENCODING 258
SWIDTH 652 0
DWIDTH 7 0
BBX 7 11 0 0
BITMAP
00D1B200
006E9000
00000000
001F3000
006C9000
00C3D100
02C09500
08704B00
0EFFFF20
4C000970
A60003D0
ENDCHAR
STARTCHAR abreve
ENCODING 259
SWIDTH 543 0
DWIDTH 6 0
BBX 6 9 0 0
BITMAP
0684A0
01CE30
000000
09EE70
2611D1
08EFF3
4C20C3
5B14E3
0AEBC4
ENDCHAR
STARTCHAR Aogonek
ENCODING 260
SWIDTH 652 0
DWIDTH 7 0
BBX 7 10 0 -2
BITMAP
001F3000
006C9000
00C3D100
02C09500
08704B00
0EFFFF20
4C000970
A60003D0
00000940
00000BC0
ENDCHAR
STARTCHAR aogonek
ENCODING 261
SWIDTH 543 0
DWIDTH 6 0
BBX 6 8 0 -2
BITMAP
09EE70
2611D1
08EFF3
4C20C3
5B14E3
0AEBC4
000481
0006E3
ENDCHAR
STARTCHAR Cacute
ENCODING 262
SWIDTH 650 0
DWIDTH 7 0
BBX 7 11 0 0
BITMAP
0003D100
00094000
00000000
02BED700
0C812D50
3D000450
5A000000
5A000000
3D000450
0C712D40
02BED700
ENDCHAR
STARTCHAR cacute
ENCODING 263
SWIDTH 523 0
DWIDTH 6 0
BBX 6 9 0 0
BITMAP
001D30
006700
000000
06EE70
3D21C3
780011
780000
3D21B4
06DE70
ENDCHAR
STARTCHAR Ccircumflex
ENCODING 264
SWIDTH 650 0
DWIDTH 7 0
BBX 7 11 0 0
BITMAP
003E6000
00A4B100
00000000
02BED700
0C812D50
3D000450
5A000000
5A000000
3D000450
0C712D40
02BED700
ENDCHAR
STARTCHAR ccircumflex
ENCODING 265
SWIDTH 523 0
DWIDTH 6 0
BBX 6 9 0 0
BITMAP
01C900
076A30
000000
06EE70
3D21C3
780011
780000
3D21B4
06DE70
ENDCHAR
STARTCHAR Cdotaccent
ENCODING 266
SWIDTH 650 0
DWIDTH 7 0
BBX 7 11 0 0
BITMAP
00010000
000C2000
00000000
02BED700
0C812D50
3D000450
5A000000
5A000000
3D000450
0C712D40
02BED700
ENDCHAR
STARTCHAR cdotaccent
ENCODING 267
SWIDTH 523 0
DWIDTH 6 0
BBX 6 9 0 0
BITMAP
001000
009500
000000
06EE70
3D21C3
780011
780000
3D21B4
06DE70
ENDCHAR
STARTCHAR Ccaron
ENCODING 268
SWIDTH 650 0
DWIDTH 7 0
BBX 7 11 0 0
BITMAP
00A3C100
001D5000
00000000
02BED700
0C812D50
3D000450
5A000000
5A000000
3D000450
0C712D40
02BED700
ENDCHAR
STARTCHAR ccaron
ENCODING 269
SWIDTH 523 0
DWIDTH 6 0
BBX 6 9 0 0
BITMAP
086A30
00B800
000000
06EE70
3D21C3
780011
780000
3D21B4
06DE70
ENDCHAR
STARTCHAR Dcaron
ENCODING 270
SWIDTH 655 0
DWIDTH 7 0
BBX 7 11 0 0
BITMAP
02B49000
006D1000
00000000
1FFEB200
1E017D10
1E000A60
1E000780
1E000780
1E000B60
1E017D10
1FFEA200
ENDCHAR
STARTCHAR dcaron
ENCODING 271
SWIDTH 637 0
DWIDTH 7 0
BBX 8 8 0 0
BITMAP
000096D1
000097A0
07EDC600
3D22C600
69009600
68009600
3D22C600
07EDB600
ENDCHAR
STARTCHAR Dcroat
ENCODING 272
SWIDTH 670 0
DWIDTH 7 0
BBX 7 8 0 0
BITMAP
0EFFB300
0E115E20
0E100880
FFF705A0
0E1005A0
0E100880
0E116E20
0EFEB300
ENDCHAR
STARTCHAR dcroat
ENCODING 273
SWIDTH 597 0
DWIDTH 7 0
BBX 7 9 0 0
BITMAP
00009600
000FFF60
00009600
07EDC600
3D22C600
69009600
68009600
3D22C600
07EDB600
ENDCHAR
STARTCHAR Emacron
ENCODING 274
SWIDTH 568 0
DWIDTH 6 0
BBX 6 10 0 0
BITMAP
07FFF2
000000
1FFFFC
1E0000
1E0000
1FFFF5
1E0000
1E0000
1E0000
1FFFFD
ENDCHAR
STARTCHAR emacron
ENCODING 275
SWIDTH 529 0
DWIDTH 6 0
BBX 6 8 0 0
BITMAP
0BFFD0
000000
06DE70
3C22C3
7FFFF6
790000
3E3161
06DEA1
ENDCHAR
STARTCHAR Ebreve
ENCODING 276
SWIDTH 568 0
DWIDTH 6 0
BBX 6 11 0 0
BITMAP
03B1C0
00AE60
000000
1FFFFC
1E0000
1E0000
1FFFF5
1E0000
1E0000
1E0000
1FFFFD
ENDCHAR
STARTCHAR ebreve
ENCODING 277
SWIDTH 529 0
DWIDTH 6 0
BBX 6 9 0 0
BITMAP
086590
02DD20
000000
06DE70
3C22C3
7FFFF6
790000
3E3161
06DEA1
ENDCHAR
STARTCHAR Edotaccent
ENCODING 278
SWIDTH 568 0
DWIDTH 6 0
BBX 6 11 0 0
BITMAP
000100
002C00
000000
1FFFFC
1E0000
1E0000
1FFFF5
1E0000
1E0000
1E0000
1FFFFD
ENDCHAR
STARTCHAR edotaccent
ENCODING 279
SWIDTH 529 0
DWIDTH 6 0
BBX 6 8 0 0
BITMAP
007700
000000
06DE70
3C22C3
7FFFF6
790000
3E3161
06DEA1
ENDCHAR
STARTCHAR Eogonek
ENCODING 280
SWIDTH 568 0
DWIDTH 6 0
BBX 6 10 0 -2
BITMAP
1FFFFC
1E0000
1E0000
1FFFF5
1E0000
1E0000
1E0000
1FFFFD
0001A1
0002E7
ENDCHAR
STARTCHAR eogonek
ENCODING 281
SWIDTH 529 0
DWIDTH 6 0
BBX 6 8 0 -2
BITMAP
06DE70
3C22C3
7FFFF6
790000
3E3161
06DFA1
003900
004E50
ENDCHAR
STARTCHAR Ecaron
ENCODING 282
SWIDTH 568 0
DWIDTH 6 0
BBX 6 11 0 0
BITMAP
02B4A0
005D10
000000
1FFFFC
1E0000
1E0000
1FFFF5
1E0000
1E0000
1E0000
1FFFFD
ENDCHAR
STARTCHAR ecaron
ENCODING 283
SWIDTH 529 0
DWIDTH 6 0
BBX 6 9 0 0
BITMAP
058760
009A00
000000
06DE70
3C22C3
7FFFF6
790000
3E3161
06DEA1
ENDCHAR
STARTCHAR Gcircumflex
ENCODING 284
SWIDTH 681 0
DWIDTH 8 0
BBX 7 11 0 0
BITMAP
003E5000
00A3B100
00000000
02BED700
0C812C60
3D000340
5B000000
5B02FFA0
3D0005A0
0B9118A0
01AEEB20
ENDCHAR
STARTCHAR gcircumflex
ENCODING 285
SWIDTH 561 0
DWIDTH 6 0
BBX 6 11 0 -2
BITMAP
00BB00
058850
000000
07EDB6
3E22C6
690096
690096
3E22C6
07EDC6
0412D3
09EE70
ENDCHAR
STARTCHAR Gbreve
ENCODING 286
SWIDTH 681 0
DWIDTH 8 0
BBX 7 11 0 0
BITMAP
00D1B200
006E9000
00000000
02BED700
0C812C60
3D000340
5B000000
5B02FFA0
3D0005A0
0B9118A0
01AEEB20
ENDCHAR
STARTCHAR gbreve
ENCODING 287
SWIDTH 561 0
DWIDTH 6 0
BBX 6 11 0 -2
BITMAP
086680
02DD20
000000
07EDB6
3E22C6
690096
690096
3E22C6
07EDC6
0412D3
09EE70
ENDCHAR
STARTCHAR Gdotaccent
ENCODING 288
SWIDTH 681 0
DWIDTH 8 0
BBX 7 11 0 0
BITMAP
00010000
000D2000
00000000
02BED700
0C812C60
3D000340
5B000000
5B02FFA0
3D0005A0
0B9118A0
01AEEB20
ENDCHAR
STARTCHAR gdotaccent
ENCODING 289
SWIDTH 561 0
DWIDTH 6 0
BBX 6 10 0 -2
BITMAP
007700
000000
07EDB6
3E22C6
690096
690096
3E22C6
07EDC6
0412D3
09EE70
ENDCHAR
STARTCHAR uni0122
ENCODING 290
SWIDTH 681 0
DWIDTH 8 0
BBX 7 11 0 -3
BITMAP
02BED700
0C812C60
3D000340
5B000000
5B02FFA0
3D0005A0
0B9118A0
01AEEB20
00000000
00095000
000A1000
ENDCHAR
STARTCHAR uni0123
ENCODING 291
SWIDTH 561 0
DWIDTH 6 0
BBX 6 11 0 -2
BITMAP
003800
008700
000000
07EDB6
3E22C6
690096
690096
3E22C6
07EDC6
0412D3
09EE70
ENDCHAR
STARTCHAR Hcircumflex
ENCODING 292
SWIDTH 712 0
DWIDTH 8 0
BBX 7 11 0 0
BITMAP
001C9000
0085A300
00000000
1E0002E0
1E0002E0
1E0002E0
1FFFFFE0
1E0002E0
1E0002E0
1E0002E0
1E0002E0
ENDCHAR
STARTCHAR hcircumflex
ENCODING 293
SWIDTH 550 0
DWIDTH 6 0
BBX 6 11 0 0
BITMAP
02D700
0A4B10
000000
4B0000
4B0000
4CBEA0
4E31D4
4B00A5
4B00A5
4B00A5
4B00A5
ENDCHAR
STARTCHAR Hbar
ENCODING 294
SWIDTH 700 0
DWIDTH 8 0
BBX 8 8 0 0
BITMAP
2E0002D0
DFFFFFF9
2E0002D0
2FFFFFD0
2E0002D0
2E0002D0
2E0002D0
2E0002D0
ENDCHAR
STARTCHAR hbar
ENCODING 295
SWIDTH 565 0
DWIDTH 6 0
BBX 7 9 -1 0
BITMAP
01E00000
2FFF4000
01E00000
01E9EC10
01F51B60
01E00870
01E00870
01E00870
01E00870
ENDCHAR
STARTCHAR Itilde
ENCODING 296
SWIDTH 271 0
DWIDTH 3 0
BBX 5 11 -1 0
BITMAP
1D7650
568D10
000000
00F000
00F000
00F000
00F000
00F000
00F000
00F000
00F000
ENDCHAR
STARTCHAR itilde
ENCODING 297
SWIDTH 247 0
DWIDTH 3 0
BBX 5 9 -1 0
BITMAP
2E6830
749C00
000000
03C000
03C000
03C000
03C000
03C000
03C000
ENDCHAR
STARTCHAR Imacron
ENCODING 298
SWIDTH 271 0
DWIDTH 3 0
BBX 5 10 -1 0
BITMAP
4FFF50
000000
00F000
00F000
00F000
00F000
00F000
00F000
00F000
00F000
ENDCHAR
STARTCHAR imacron
ENCODING 299
SWIDTH 247 0
DWIDTH 3 0
BBX 5 8 -1 0
BITMAP
6FFF30
000000
03C000
03C000
03C000
03C000
03C000
03C000
ENDCHAR
STARTCHAR Ibreve
ENCODING 300
SWIDTH 271 0
DWIDTH 3 0
BBX 5 11 -1 0
BITMAP
1D1D10
08E800
000000
00F000
00F000
00F000
00F000
00F000
00F000
00F000
00F000
ENDCHAR
STARTCHAR ibreve
ENCODING 301
SWIDTH 247 0
DWIDTH 3 0
BBX 4 9 -1 0
BITMAP
3B1D
0AE6
0000
03C0
03C0
03C0
03C0
03C0
03C0
ENDCHAR
STARTCHAR Iogonek
ENCODING 302
SWIDTH 271 0
DWIDTH 3 0
BBX 2 10 0 -2
BITMAP
0F
0F
0F
0F
0F
0F
0F
4F
C2
9D
ENDCHAR
STARTCHAR iogonek
ENCODING 303
SWIDTH 242 0
DWIDTH 3 0
BBX 2 11 0 -2
BITMAP
01
2C
00
2C
2C
2C
2C
2C
8F
D1
CB
ENDCHAR
STARTCHAR Idotaccent
ENCODING 304
SWIDTH 271 0
DWIDTH 3 0
BBX 1 11 1 0
BITMAP
10
D0
00
F0
F0
F0
F0
F0
F0
F0
F0
ENDCHAR
STARTCHAR dotlessi
ENCODING 305
SWIDTH 247 0
DWIDTH 3 0
BBX 2 6 0 0
BITMAP
3C
3C
3C
3C
3C
3C
ENDCHAR
STARTCHAR IJ
ENCODING 306
SWIDTH 823 0
DWIDTH 9 0
BBX 8 8 1 0
BITMAP
F00000C3
F00000C3
F00000C3
F00000C3
F00000C3
F03100D3
F09914E1
F01BED50
ENDCHAR
STARTCHAR ij
ENCODING 307
SWIDTH 481 0
DWIDTH 5 0
BBX 5 11 0 -2
BITMAP
010000
2C0860
000000
2C0870
2C0870
2C0870
2C0870
2C0870
2C0870
000A60
00AD20
ENDCHAR
STARTCHAR Jcircumflex
ENCODING 308
SWIDTH 551 0
DWIDTH 6 0
BBX 7 11 0 0
BITMAP
0003E500
000B3B10
00000000
0000C300
0000C300
0000C300
0000C300
0000C300
3100D300
9914E100
1BED5000
ENDCHAR
STARTCHAR jcircumflex
ENCODING 309
SWIDTH 251 0
DWIDTH 3 0
BBX 4 11 -1 -2
BITMAP
05E3
1B3B
0000
01E0
01E0
01E0
01E0
01E0
01E0
04D0
5E60
ENDCHAR
STARTCHAR uni0136
ENCODING 310
SWIDTH 626 0
DWIDTH 7 0
BBX 7 10 0 -2
BITMAP
1E002D40
1E01C500
1E0B7000
1EAC0000
1FAD5000
1E03E200
1E007C00
1E000B80
000E0000
00290000
ENDCHAR
STARTCHAR uni0137
ENCODING 311
SWIDTH 506 0
DWIDTH 6 0
BBX 6 12 0 -3
BITMAP
4B0000
4B0000
4B0000
4B05C1
4B4D10
4DE400
4E8B00
4B0A70
4B01D3
000000
00A400
00A100
ENDCHAR
STARTCHAR kgreenlandic
ENCODING 312
SWIDTH 556 0
DWIDTH 6 0
BBX 6 6 0 0
BITMAP
3C03D3
3C3D30
3FF600
3C4E10
3C08B0
3C00B7
ENDCHAR
STARTCHAR Lacute
ENCODING 313
SWIDTH 538 0
DWIDTH 6 0
BBX 6 11 0 0
BITMAP
07B000
0B2000
000000
1E0000
1E0000
1E0000
1E0000
1E0000
1E0000
1E0000
1FFFFA
ENDCHAR
STARTCHAR lacute
ENCODING 314
SWIDTH 242 0
DWIDTH 3 0
BBX 3 12 0 0
BITMAP
08A0
1C10
0000
2C00
2C00
2C00
2C00
2C00
2C00
2C00
2C00
2C00
ENDCHAR
STARTCHAR uni013B
ENCODING 315
SWIDTH 538 0
DWIDTH 6 0
BBX 6 11 0 -3
BITMAP
1E0000
1E0000
1E0000
1E0000
1E0000
1E0000
1E0000
1FFFFA
000000
003B00
005600
ENDCHAR
STARTCHAR uni013C
ENCODING 316
SWIDTH 242 0
DWIDTH 3 0
BBX 2 12 0 -3
BITMAP
2C
2C
2C
2C
2C
2C
2C
2C
2C
00
2B
56
ENDCHAR
STARTCHAR Lcaron
ENCODING 317
SWIDTH 538 0
DWIDTH 6 0
BBX 6 8 0 0
BITMAP
1E0950
1E0A10
1E0000
1E0000
1E0000
1E0000
1E0000
1FFFFA
ENDCHAR
STARTCHAR lcaron
ENCODING 318
SWIDTH 315 0
DWIDTH 3 0
BBX 4 9 0 0
BITMAP
2C00
2C4A
2C74
2C00
2C00
2C00
2C00
2C00
2C00
ENDCHAR
STARTCHAR Ldot
ENCODING 319
SWIDTH 538 0
DWIDTH 6 0
BBX 6 8 0 0
BITMAP
1E0000
1E0000
1E0100
1E0B30
1E0000
1E0000
1E0000
1FFFFA
ENDCHAR
STARTCHAR ldot
ENCODING 320
SWIDTH 350 0
DWIDTH 4 0
BBX 4 9 0 0
BITMAP
2C00
2C00
2C00
2C00
2C77
2C00
2C00
2C00
2C00
ENDCHAR
STARTCHAR Lslash
ENCODING 321
SWIDTH 538 0
DWIDTH 6 0
BBX 6 8 0 0
BITMAP
1E0000
1E0000
1E0000
3FB500
BF4000
1E0000
1E0000
1FFFFA
ENDCHAR
STARTCHAR lslash
ENCODING 322
SWIDTH 270 0
DWIDTH 3 0
BBX 3 9 0 0
BITMAP
1E00
1E00
1E00
1E00
2FA0
AF20
1E00
1E00
1E00
ENDCHAR
STARTCHAR Nacute
ENCODING 323
SWIDTH 712 0
DWIDTH 8 0
BBX 7 11 0 0
BITMAP
0001D400
00068000
00000000
1F4002E0
1FD102E0
1EA802E0
1E1E32E0
1E05C2E0
1E00B8E0
1E002EE0
1E0007E0
ENDCHAR
STARTCHAR nacute
ENCODING 324
SWIDTH 551 0
DWIDTH 6 0
BBX 6 9 0 0
BITMAP
000C60
003A00
000000
4CBEA0
4E31D4
4B00A5
4B00A5
4B00A5
4B00A5
ENDCHAR
STARTCHAR uni0145
ENCODING 325
SWIDTH 712 0
DWIDTH 8 0
BBX 7 11 0 -3
BITMAP
1F4002E0
1FD102E0
1EA802E0
1E1E32E0
1E05C2E0
1E00B8E0
1E002EE0
1E0007E0
00000000
000A4000
000A1000
ENDCHAR
STARTCHAR uni0146
ENCODING 326
SWIDTH 551 0
DWIDTH 6 0
BBX 6 9 0 -3
BITMAP
4CBEA0
4E31D4
4B00A5
4B00A5
4B00A5
4B00A5
000000
007700
009200
ENDCHAR
STARTCHAR Ncaron
ENCODING 327
SWIDTH 712 0
DWIDTH 8 0
BBX 7 11 0 0
BITMAP
00769400
000B8000
00000000
1F4002E0
1FD102E0
1EA802E0
1E1E32E0
1E05C2E0
1E00B8E0
1E002EE0
1E0007E0
ENDCHAR
STARTCHAR ncaron
ENCODING 328
SWIDTH 551 0
DWIDTH 6 0
BBX 6 9 0 0
BITMAP
049770
009B00
000000
4CBEA0
4E31D4
4B00A5
4B00A5
4B00A5
4B00A5
ENDCHAR
STARTCHAR napostrophe
ENCODING 329
SWIDTH 551 0
DWIDTH 6 0
BBX 7 8 -1 0
BITMAP
0E000000
38000000
04CBEA00
04E31D40
04B00A50
04B00A50
04B00A50
04B00A50
ENDCHAR
STARTCHAR Eng
ENCODING 330
SWIDTH 692 0
DWIDTH 8 0
BBX 7 10 0 -2
BITMAP
2F3004C0
2FC004C0
2E9704C0
2E1D24C0
2E04A4C0
2E00A8C0
2E001DC0
2E0005C0
000006B0
00008E40
ENDCHAR
STARTCHAR eng
ENCODING 331
SWIDTH 566 0
DWIDTH 6 0
BBX 6 8 0 -2
BITMAP
3BAEB0
3E31C5
3C0096
3C0096
3C0096
3C0096
0001B6
000DC1
ENDCHAR
STARTCHAR Omacron
ENCODING 332
SWIDTH 687 0
DWIDTH 8 0
BBX 7 10 0 0
BITMAP
00FFF900
00000000
01AED700
0C813D50
3D0005B0
5A0002D0
5A0002D0
3D0005B0
0C813C60
02BED700
ENDCHAR
STARTCHAR omacron
ENCODING 333
SWIDTH 570 0
DWIDTH 6 0
BBX 6 8 0 0
BITMAP
0AFFE0
000000
06DE80
3E31B6
78004B
78004B
3D31B7
06DE90
ENDCHAR
STARTCHAR Obreve
ENCODING 334
SWIDTH 687 0
DWIDTH 8 0
BBX 7 11 0 0
BITMAP
00B39500
004EC100
00000000
01AED700
0C813D50
3D0005B0
5A0002D0
5A0002D0
3D0005B0
0C813C60
02BED700
ENDCHAR
STARTCHAR obreve
ENCODING 335
SWIDTH 570 0
DWIDTH 6 0
BBX 6 9 0 0
BITMAP
077490
01CD30
000000
06DE80
3E31B6
78004B
78004B
3D31B7
06DE90
ENDCHAR
STARTCHAR Ohungarumlaut
ENCODING 336
SWIDTH 687 0
DWIDTH 8 0
BBX 7 11 0 0
BITMAP
001D6D10
0048A400
00000000
01AED700
0C813D50
3D0005B0
5A0002D0
5A0002D0
3D0005B0
0C813C60
02BED700
ENDCHAR
STARTCHAR ohungarumlaut
ENCODING 337
SWIDTH 570 0
DWIDTH 6 0
BBX 6 9 0 0
BITMAP
00A8D4
01B680
000000
06DE80
3E31B6
78004B
78004B
3D31B7
06DE90
ENDCHAR
STARTCHAR OE
ENCODING 338
SWIDTH 953 0
DWIDTH 10 0
BBX 10 8 0 0
BITMAP
03CFFFFFF9
1E505B0000
5A004B0000
78004FFFF2
78004B0000
5A004B0000
1E505B0000
03CFFFFFFA
ENDCHAR
STARTCHAR oe
ENCODING 339
SWIDTH 908 0
DWIDTH 10 0
BBX 10 6 0 0
BITMAP
06DE83CEA1
2E31CE3197
79005FFFF9
69005D0000
2D31CF6031
06DE83CFC3
ENDCHAR
STARTCHAR Racute
ENCODING 340
SWIDTH 615 0
DWIDTH 7 0
BBX 7 11 0 0
BITMAP
00099000
001B1000
00000000
1FFFC400
1E004E10
1E000D30
1E004E10
1FFFE400
1E01D300
1E006B00
1E000C50
ENDCHAR
STARTCHAR racute
ENCODING 341
SWIDTH 338 0
DWIDTH 4 0
BBX 4 9 0 0
BITMAP
00A8
02B0
0000
4CC8
4E30
4B00
4B00
4B00
4B00
ENDCHAR
STARTCHAR uni0156
ENCODING 342
SWIDTH 615 0
DWIDTH 7 0
BBX 7 11 0 -3
BITMAP
1FFFC400
1E004E10
1E000D30
1E004E10
1FFFE400
1E01D300
1E006B00
1E000C50
00000000
003B0000
00650000
ENDCHAR
STARTCHAR uni0157
ENCODING 343
SWIDTH 338 0
DWIDTH 4 0
BBX 4 9 0 -3
BITMAP
4CC8
4E30
4B00
4B00
4B00
4B00
0000
3B00
5600
ENDCHAR
STARTCHAR Rcaron
ENCODING 344
SWIDTH 615 0
DWIDTH 7 0
BBX 7 11 0 0
BITMAP
02B49000
006D1000
00000000
1FFFC400
1E004E10
1E000D30
1E004E10
1FFFE400
1E01D300
1E006B00
1E000C50
ENDCHAR
STARTCHAR rcaron
ENCODING 345
SWIDTH 338 0
DWIDTH 4 0
BBX 4 9 0 0
BITMAP
3A58
07C0
0000
4CC8
4E30
4B00
4B00
4B00
4B00
ENDCHAR
STARTCHAR Sacute
ENCODING 346
SWIDTH 593 0
DWIDTH 7 0
BBX 7 11 0 0
BITMAP
0008A000
001C1000
00000000
06DFC300
3E316D00
4D000500
09D83000
0028D800
33001F10
5C204E00
07DFC400
ENDCHAR
STARTCHAR sacute
ENCODING 347
SWIDTH 515 0
DWIDTH 6 0
BBX 6 9 0 0
BITMAP
000C50
004900
000000
09ED60
3C13C0
1DC710
0048D0
5A12E1
09EE60
ENDCHAR
STARTCHAR Scircumflex
ENCODING 348
SWIDTH 593 0
DWIDTH 7 0
BBX 7 11 0 0
BITMAP
006E2000
01B4A000
00000000
06DFC300
3E316D00
4D000500
09D83000
0028D800
33001F10
5C204E00
07DFC400
ENDCHAR
STARTCHAR scircumflex
ENCODING 349
SWIDTH 515 0
DWIDTH 6 0
BBX 6 9 0 0
BITMAP
00BB00
058850
000000
09ED60
3C13C0
1DC710
0048D0
5A12E1
09EE60
ENDCHAR
STARTCHAR Scedilla
ENCODING 350
SWIDTH 593 0
DWIDTH 7 0
BBX 7 11 0 -3
BITMAP
06DFC300
3E316D00
4D000500
09D83000
0028D800
33001F10
5C204E00
07DFC400
001C2000
001A7000
00181000
ENDCHAR
STARTCHAR scedilla
ENCODING 351
SWIDTH 515 0
DWIDTH 6 0
BBX 6 9 0 -3
BITMAP
09ED60
3C13C0
1DC710
0048D0
5A12E1
09EE60
005A00
003D10
004500
ENDCHAR
STARTCHAR Scaron
ENCODING 352
SWIDTH 593 0
DWIDTH 7 0
BBX 7 11 0 0
BITMAP
02B4A000
005D1000
00000000
06DFC300
3E316D00
4D000500
09D83000
0028D800
33001F10
5C204E00
07DFC400
ENDCHAR
STARTCHAR scaron
ENCODING 353
SWIDTH 515 0
DWIDTH 6 0
BBX 6 9 0 0
BITMAP
058860
009A00
000000
09ED60
3C13C0
1DC710
0048D0
5A12E1
09EE60
ENDCHAR
STARTCHAR uni0162
ENCODING 354
SWIDTH 596 0
DWIDTH 7 0
BBX 7 11 0 -3
BITMAP
BFFFFF50
004C0000
004C0000
004C0000
004C0000
004C0000
004C0000
004C0000
001B2000
001A6000
00270000
ENDCHAR
STARTCHAR uni0163
ENCODING 355
SWIDTH 326 0
DWIDTH 4 0
BBX 4 10 0 -3
BITMAP
0D10
EFF3
0D10
0D10
0D10
0D30
08E3
00C3
0097
0181
ENDCHAR
STARTCHAR Tcaron
ENCODING 356
SWIDTH 596 0
DWIDTH 7 0
BBX 7 11 0 0
BITMAP
02B49000
006D1000
00000000
BFFFFF50
004C0000
004C0000
004C0000
004C0000
004C0000
004C0000
004C0000
ENDCHAR
STARTCHAR tcaron
ENCODING 357
SWIDTH 346 0
DWIDTH 4 0
BBX 4 9 0 0
BITMAP
000E
0029
0D10
EFF3
0D10
0D10
0D10
0D30
08E3
ENDCHAR
STARTCHAR Tbar
ENCODING 358
SWIDTH 596 0
DWIDTH 7 0
BBX 7 8 0 0
BITMAP
BFFFFF50
004C0000
004C0000
06FFF000
004C0000
004C0000
004C0000
004C0000
ENDCHAR
STARTCHAR tbar
ENCODING 359
SWIDTH 326 0
DWIDTH 4 0
BBX 5 7 -1 0
BITMAP
00D100
0EFF30
00D100
1FFF50
00D100
00D300
008E30
ENDCHAR
STARTCHAR Utilde
ENCODING 360
SWIDTH 648 0
DWIDTH 7 0
BBX 7 11 0 0
BITMAP
00C85600
0477E200
00000000
4C000960
4C000960
4C000960
4C000960
4C000960
3C000A60
1E514E20
04CFD500
ENDCHAR
STARTCHAR utilde
ENCODING 361
SWIDTH 551 0
DWIDTH 6 0
BBX 6 9 0 0
BITMAP
06D2B0
0B2D80
000000
4B00A5
4B00A5
4B00A5
4B00A5
3D13D5
09ECC5
ENDCHAR
STARTCHAR Umacron
ENCODING 362
SWIDTH 648 0
DWIDTH 7 0
BBX 7 10 0 0
BITMAP
03FFF600
00000000
4C000960
4C000960
4C000960
4C000960
4C000960
3C000A60
1E514E20
04CFD500
ENDCHAR
STARTCHAR umacron
ENCODING 363
SWIDTH 551 0
DWIDTH 6 0
BBX 6 8 0 0
BITMAP
0BFFD0
000000
4B00A5
4B00A5
4B00A5
4B00A5
3D13D5
09ECC5
ENDCHAR
STARTCHAR Ubreve
ENCODING 364
SWIDTH 648 0
DWIDTH 7 0
BBX 7 11 0 0
BITMAP
00D1C200
007E9000
00000000
4C000960
4C000960
4C000960
4C000960
4C000960
3C000A60
1E514E20
04CFD500
ENDCHAR
STARTCHAR ubreve
ENCODING 365
SWIDTH 551 0
DWIDTH 6 0
BBX 6 9 0 0
BITMAP
076590
02DD30
000000
4B00A5
4B00A5
4B00A5
4B00A5
3D13D5
09ECC5
ENDCHAR
STARTCHAR Uring
ENCODING 366
SWIDTH 648 0
DWIDTH 7 0
BBX 7 11 0 0
BITMAP
00587000
00587000
00000000
4C000960
4C000960
4C000960
4C000960
4C000960
3C000A60
1E514E20
04CFD500
ENDCHAR
STARTCHAR uring
ENCODING 367
SWIDTH 551 0
DWIDTH 6 0
BBX 6 9 0 0
BITMAP
009910
009910
000000
4B00A5
4B00A5
4B00A5
4B00A5
3D13D5
09ECC5
ENDCHAR
STARTCHAR Uhungarumlaut
ENCODING 368
SWIDTH 648 0
DWIDTH 7 0
BBX 7 11 0 0
BITMAP
003D7B00
0076C100
00000000
4C000960
4C000960
4C000960
4C000960
4C000960
3C000A60
1E514E20
04CFD500
ENDCHAR
STARTCHAR uhungarumlaut
ENCODING 369
SWIDTH 551 0
DWIDTH 6 0
BBX 6 9 0 0
BITMAP
00A7D3
01B770
000000
4B00A5
4B00A5
4B00A5
4B00A5
3D13D5
09ECC5
ENDCHAR
STARTCHAR Uogonek
ENCODING 370
SWIDTH 648 0
DWIDTH 7 0
BBX 7 10 0 -2
BITMAP
4C000960
4C000960
4C000960
4C000960
4C000960
3C000A60
1E514E20
04CFE500
00095000
0008E100
ENDCHAR
STARTCHAR uogonek
ENCODING 371
SWIDTH 551 0
DWIDTH 6 0
BBX 6 8 0 -2
BITMAP
4B00A5
4B00A5
4B00A5
4B00A5
3D13D5
09ECC5
000381
0005E4
ENDCHAR
STARTCHAR Wcircumflex
ENCODING 372
SWIDTH 887 0
DWIDTH 10 0
BBX 10 11 0 0
BITMAP
0000BA0000
0006785000
0000000000
8700980096
5A00DC00D2
1E03BC11E0
0D277854A0
096B249870
069D01DB30
02E900BE00
00E4007B00
ENDCHAR
STARTCHAR wcircumflex
ENCODING 373
SWIDTH 751 0
DWIDTH 8 0
BBX 8 9 0 0
BITMAP
000AC100
00497600
00000000
9507A02D
590BD059
1D1B9495
0C7748C1
08E30DB0
03D00A70
ENDCHAR
STARTCHAR Ycircumflex
ENCODING 374
SWIDTH 600 0
DWIDTH 7 0
BBX 7 11 0 0
BITMAP
007D2000
02B49000
00000000
A8000D30
2E106A00
0981D300
01E89000
008F2000
003C0000
003C0000
003C0000
ENDCHAR
STARTCHAR ycircumflex
ENCODING 375
SWIDTH 473 0
DWIDTH 5 0
BBX 5 11 0 -2
BITMAP
02D700
094B20
000000
A602D0
5B0780
0E1C30
098C00
04F700
00E200
04B000
8D3000
ENDCHAR
STARTCHAR Ydieresis
ENCODING 376
SWIDTH 600 0
DWIDTH 7 0
BBX 7 11 0 0
BITMAP
00101000
0490D000
00000000
A8000D30
2E106A00
0981D300
01E89000
008F2000
003C0000
003C0000
003C0000
ENDCHAR
STARTCHAR Zacute
ENCODING 377
SWIDTH 598 0
DWIDTH 7 0
BBX 7 11 0 0
BITMAP
0008A000
001B1000
00000000
7FFFFF00
00009800
0005C000
001D3000
00B70000
06B00000
2D200000
8FFFFF20
ENDCHAR
STARTCHAR zacute
ENCODING 378
SWIDTH 495 0
DWIDTH 5 0
BBX 6 9 0 0
BITMAP
002E20
008600
000000
7FFFE0
000B60
008A00
04C100
2D2000
8FFFF1
ENDCHAR
STARTCHAR Zdotaccent
ENCODING 379
SWIDTH 598 0
DWIDTH 7 0
BBX 7 11 0 0
BITMAP
00010000
003B0000
00000000
7FFFFF00
00009800
0005C000
001D3000
00B70000
06B00000
2D200000
8FFFFF20
ENDCHAR
STARTCHAR zdotaccent
ENCODING 380
SWIDTH 495 0
DWIDTH 5 0
BBX 6 9 0 0
BITMAP
001000
00A400
000000
7FFFE0
000B60
008A00
04C100
2D2000
8FFFF1
ENDCHAR
STARTCHAR Zcaron
ENCODING 381
SWIDTH 598 0
DWIDTH 7 0
BBX 7 11 0 0
BITMAP
02B4A000
005D1000
00000000
7FFFFF00
00009800
0005C000
001D3000
00B70000
06B00000
2D200000
8FFFFF20
ENDCHAR
STARTCHAR zcaron
ENCODING 382
SWIDTH 495 0
DWIDTH 5 0
BBX 6 9 0 0
BITMAP
094B20
01C600
000000
7FFFE0
000B60
008A00
04C100
2D2000
8FFFF1
ENDCHAR
STARTCHAR longs
ENCODING 383
SWIDTH 248 0
DWIDTH 3 0
BBX 4 9 0 0
BITMAP
08E5
1E20
2D00
2D00
2D00
2D00
2D00
2D00
2D00
ENDCHAR
STARTCHAR uni018F
ENCODING 399
SWIDTH 690 0
DWIDTH 8 0
BBX 7 8 0 0
BITMAP
06DFD600
03214D50
000005B0
000002E0
7FFFFFE0
690003C0
1D412C50
03BED600
ENDCHAR
STARTCHAR florin
ENCODING 402
SWIDTH 340 0
DWIDTH 4 0
BBX 5 11 -1 -2
BITMAP
003DA0
00B600
00C300
0BFF40
00C300
00C300
00C300
00C300
00C300
01E200
2E9000
ENDCHAR
STARTCHAR Ohorn
ENCODING 416
SWIDTH 686 0
DWIDTH 8 0
BBX 8 9 0 0
BITMAP
00000026
02BED697
0D713D90
4C0006A0
690003C0
690003C0
4C0006A0
0D713D40
02BED600
ENDCHAR
STARTCHAR ohorn
ENCODING 417
SWIDTH 571 0
DWIDTH 6 0
BBX 7 7 0 0
BITMAP
00000340
06DE9A40
3E31B900
78004B00
78004B00
3D31B700
06DE9000
ENDCHAR
STARTCHAR Uhorn
ENCODING 431
SWIDTH 695 0
DWIDTH 8 0
BBX 9 9 0 0
BITMAP
0000000320
4C00096A40
4C0009D800
4C00096000
4C00096000
4C00096000
3C000A6000
1E514E2000
04CFD50000
ENDCHAR
STARTCHAR uhorn
ENCODING 432
SWIDTH 618 0
DWIDTH 7 0
BBX 7 7 0 0
BITMAP
00000050
4B00A8B0
4B00A810
4B00A500
4B00A500
3D13D500
09ECC500
ENDCHAR
STARTCHAR uni01F0
ENCODING 496
SWIDTH 251 0
DWIDTH 3 0
BBX 4 11 -1 -2
BITMAP
1B3B
04E2
0000
01E0
01E0
01E0
01E0
01E0
01E0
04D0
5E60
ENDCHAR
STARTCHAR Aringacute
ENCODING 506
SWIDTH 652 0
DWIDTH 7 0
BBX 7 12 0 0
BITMAP
0002D000
00065000
002E5000
002E5000
001F3000
006C9000
00C3D100
02C09500
08704B00
0EFFFF20
4C000970
A60003D0
ENDCHAR
STARTCHAR aringacute
ENCODING 507
SWIDTH 543 0
DWIDTH 6 0
BBX 6 10 0 0
BITMAP
000860
000A00
009D00
009D00
09EE70
2611D1
08EFF3
4C20C3
5B14E3
0AEBC4
ENDCHAR
STARTCHAR AEacute
ENCODING 508
SWIDTH 934 0
DWIDTH 10 0
BBX 11 11 0 0
BITMAP
00000C600000
000049000000
000000000000
0000AFFFFC00
0004CE100000
000C4D200000
006A0DFFF500
01D20C300000
09FFFF400000
3E100B400000
C6000AFFFF10
ENDCHAR
STARTCHAR aeacute
ENCODING 509
SWIDTH 844 0
DWIDTH 9 0
BBX 9 9 0 0
BITMAP
00004D1000
0000A40000
0000000000
1BED5AEC30
2512F605B0
1BEFFFFFE0
7A10F10000
7915F91120
2CEC4AED60
ENDCHAR
STARTCHAR Oslashacute
ENCODING 510
SWIDTH 687 0
DWIDTH 8 0
BBX 7 12 0 -1
BITMAP
0001D300
00067000
00000020
01AED880
0C812E50
3D0069B0
5A02A2D0
5A0A22D0
3D5705B0
0CC13D60
09BED700
04000000
ENDCHAR
STARTCHAR oslashacute
ENCODING 511
SWIDTH 566 0
DWIDTH 6 0
BBX 6 10 0 -1
BITMAP
001D30
006700
000041
06DED0
3E36D7
780A4B
78744B
3EA1B7
09DE90
060000
ENDCHAR
STARTCHAR uni0218
ENCODING 536
SWIDTH 593 0
DWIDTH 7 0
BBX 7 11 0 -3
BITMAP
06DFC300
3E316D00
4D000500
09D83000
0028D800
33001F10
5C204E00
07DFC400
00000000
002C0000
00460000
ENDCHAR
STARTCHAR uni0219
ENCODING 537
SWIDTH 515 0
DWIDTH 6 0
BBX 6 9 0 -3
BITMAP
09ED60
3C13C0
1DC710
0048D0
5A12E1
09EE60
000000
007700
009200
ENDCHAR
STARTCHAR uni021A
ENCODING 538
SWIDTH 596 0
DWIDTH 7 0
BBX 7 11 0 -3
BITMAP
BFFFFF50
004C0000
004C0000
004C0000
004C0000
004C0000
004C0000
004C0000
00000000
003B0000
00650000
ENDCHAR
STARTCHAR uni021B
ENCODING 539
SWIDTH 326 0
DWIDTH 4 0
BBX 4 10 0 -3
BITMAP
0D10
EFF3
0D10
0D10
0D10
0D30
08E3
0000
01D0
0470
ENDCHAR
STARTCHAR uni0237
ENCODING 567
SWIDTH 251 0
DWIDTH 3 0
BBX 3 8 -1 -2
BITMAP
01E0
01E0
01E0
01E0
01E0
01E0
04D0
5E60
ENDCHAR
STARTCHAR uni0259
ENCODING 601
SWIDTH 526 0
DWIDTH 6 0
BBX 6 6 0 0
BITMAP
1BED40
0314E1
0000B5
7FFFF5
4B12D1
09ED40
ENDCHAR
STARTCHAR uni02BC
ENCODING 700
SWIDTH 199 0
DWIDTH 2 0
BBX 2 3 0 6
BITMAP
3B
5A
83
ENDCHAR
STARTCHAR circumflex
ENCODING 710
SWIDTH 470 0
DWIDTH 5 0
BBX 3 2 1 7
BITMAP
4E40
B3B0
ENDCHAR
STARTCHAR caron
ENCODING 711
SWIDTH 443 0
DWIDTH 5 0
BBX 4 2 0 7
BITMAP
1B3B
04E2
ENDCHAR
STARTCHAR uni02C9
ENCODING 713
SWIDTH 458 0
DWIDTH 5 0
BBX 5 1 0 7
BITMAP
4FFF60
ENDCHAR
STARTCHAR breve
ENCODING 728
SWIDTH 426 0
DWIDTH 5 0
BBX 4 2 0 7
BITMAP
4A2C
0BE5
ENDCHAR
STARTCHAR dotaccent
ENCODING 729
SWIDTH 242 0
DWIDTH 3 0
BBX 2 2 0 7
BITMAP
01
2C
ENDCHAR
STARTCHAR ring
ENCODING 730
SWIDTH 334 0
DWIDTH 4 0
BBX 3 2 0 6
BITMAP
2980
2990
ENDCHAR
STARTCHAR ogonek
ENCODING 731
SWIDTH 270 0
DWIDTH 3 0
BBX 3 3 0 -2
BITMAP
2900
A400
7E10
ENDCHAR
STARTCHAR tilde
ENCODING 732
SWIDTH 471 0
DWIDTH 5 0
BBX 5 2 0 7
BITMAP
1D8660
477D20
ENDCHAR
STARTCHAR hungarumlaut
ENCODING 733
SWIDTH 373 0
DWIDTH 4 0
BBX 5 2 0 7
BITMAP
0D6D10
49A400
ENDCHAR
STARTCHAR uni02F3
ENCODING 755
SWIDTH 293 0
DWIDTH 3 0
BBX 3 2 0 -3
BITMAP
2950
3950
ENDCHAR
STARTCHAR gravecomb
ENCODING 768
SWIDTH 0 0
DWIDTH 0 0
BBX 3 2 -5 7
BITMAP
4D10
0850
ENDCHAR
STARTCHAR acutecomb
ENCODING 769
SWIDTH 0 0
DWIDTH 0 0
BBX 3 2 -4 7
BITMAP
0C50
4900
ENDCHAR
STARTCHAR tildecomb
ENCODING 771
SWIDTH 0 0
DWIDTH 0 0
BBX 4 2 -5 7
BITMAP
5D3B
A2C9
ENDCHAR
STARTCHAR hookabovecomb
ENCODING 777
SWIDTH 0 0
DWIDTH 0 0
BBX 2 3 -4 7
BITMAP
59
2D
86
ENDCHAR
STARTCHAR uni030F
ENCODING 783
SWIDTH 0 0
DWIDTH 0 0
BBX 5 2 -6 7
BITMAP
1C8D10
02C860
ENDCHAR
STARTCHAR dotbelowcomb
ENCODING 803
SWIDTH 0 0
DWIDTH 0 0
BBX 2 2 -4 -3
BITMAP
A4
10
ENDCHAR
STARTCHAR tonos
ENCODING 900
SWIDTH 256 0
DWIDTH 3 0
BBX 2 2 1 7
BITMAP
C1
90
ENDCHAR
STARTCHAR dieresistonos
ENCODING 901
SWIDTH 505 0
DWIDTH 6 0
BBX 5 2 0 7
BITMAP
016510
4A04A0
ENDCHAR
STARTCHAR Alphatonos
ENCODING 902
SWIDTH 652 0
DWIDTH 7 0
BBX 7 9 0 0
BITMAP
0C100000
091F3000
006C9000
00C3D100
02C09500
08704B00
0EFFFF20
4C000970
A60003D0
ENDCHAR
STARTCHAR anoteleia
ENCODING 903
SWIDTH 261 0
DWIDTH 3 0
BBX 2 2 0 3
BITMAP
2D
01
ENDCHAR
STARTCHAR Epsilontonos
ENCODING 904
SWIDTH 568 0
DWIDTH 6 0
BBX 8 9 -2 0
BITMAP
0D000000
181FFFFC
001E0000
001E0000
001FFFF5
001E0000
001E0000
001E0000
001FFFFD
ENDCHAR
STARTCHAR Etatonos
ENCODING 905
SWIDTH 712 0
DWIDTH 8 0
BBX 8 9 -1 0
BITMAP
D0000000
81E0002E
01E0002E
01E0002E
01FFFFFE
01E0002E
01E0002E
01E0002E
01E0002E
ENDCHAR
STARTCHAR Iotatonos
ENCODING 906
SWIDTH 271 0
DWIDTH 3 0
BBX 3 9 -1 0
BITMAP
C100
90F0
00F0
00F0
00F0
00F0
00F0
00F0
00F0
ENDCHAR
STARTCHAR Omicrontonos
ENCODING 908
SWIDTH 697 0
DWIDTH 8 0
BBX 8 9 -1 0
BITMAP
0D000000
1819EE80
00A912C7
01E1003D
03C0001F
03C0000F
01E1003D
00A912B7
001AEE80
ENDCHAR
STARTCHAR Upsilontonos
ENCODING 910
SWIDTH 649 0
DWIDTH 7 0
BBX 9 9 -2 0
BITMAP
1C00000000
272E1006B0
0009800D30
0001E16A00
000089D200
00001E9000
00000A5000
00000A5000
00000A5000
ENDCHAR
STARTCHAR Omegatonos
ENCODING 911
SWIDTH 674 0
DWIDTH 7 0
BBX 8 9 -1 0
BITMAP
0D000000
182BED50
00C813E3
03E00079
04C0005A
03C0006A
01E10086
007914C1
04FF6EFA
ENDCHAR
STARTCHAR iotadieresistonos
ENCODING 912
SWIDTH 323 0
DWIDTH 4 0
BBX 5 9 -1 0
BITMAP
009300
670680
000000
00E100
00E100
00E100
00E100
00E200
009E20
ENDCHAR
STARTCHAR Alpha
ENCODING 913
SWIDTH 652 0
DWIDTH 7 0
BBX 7 8 0 0
BITMAP
001F3000
006C9000
00C3D100
02C09500
08704B00
0EFFFF20
4C000970
A60003D0
ENDCHAR
STARTCHAR Beta
ENCODING 914
SWIDTH 622 0
DWIDTH 7 0
BBX 7 8 0 0
BITMAP
1FFFD500
1E004E00
1E005D00
1FFFF400
1E004E10
1E000D30
1E004E10
1FFFD500
ENDCHAR
STARTCHAR Gamma
ENCODING 915
SWIDTH 556 0
DWIDTH 6 0
BBX 6 8 0 0
BITMAP
1FFFFC
1F0000
1F0000
1F0000
1F0000
1F0000
1F0000
1F0000
ENDCHAR
STARTCHAR uni0394
ENCODING 916
SWIDTH 705 0
DWIDTH 8 0
BBX 8 8 0 0
BITMAP
000B9000
002DD100
00869500
01D14B00
06900D20
0C300780
3C0001D0
9FFFFFF5
ENDCHAR
STARTCHAR Epsilon
ENCODING 917
SWIDTH 568 0
DWIDTH 6 0
BBX 6 8 0 0
BITMAP
1FFFFC
1E0000
1E0000
1FFFF5
1E0000
1E0000
1E0000
1FFFFD
ENDCHAR
STARTCHAR Zeta
ENCODING 918
SWIDTH 598 0
DWIDTH 7 0
BBX 7 8 0 0
BITMAP
7FFFFF00
00009800
0005C000
001D3000
00B70000
06B00000
2D200000
8FFFFF20
ENDCHAR
STARTCHAR Eta
ENCODING 919
SWIDTH 712 0
DWIDTH 8 0
BBX 7 8 0 0
BITMAP
1E0002E0
1E0002E0
1E0002E0
1FFFFFE0
1E0002E0
1E0002E0
1E0002E0
1E0002E0
ENDCHAR
STARTCHAR Theta
ENCODING 920
SWIDTH 680 0
DWIDTH 7 0
BBX 7 8 0 0
BITMAP
02BED600
0D713D40
4C0006A0
699FF6C0
690003C0
4C0006A0
0D713D40
02BED600
ENDCHAR
STARTCHAR Iota
ENCODING 921
SWIDTH 271 0
DWIDTH 3 0
BBX 1 8 1 0
BITMAP
F0
F0
F0
F0
F0
F0
F0
F0
ENDCHAR
STARTCHAR Kappa
ENCODING 922
SWIDTH 626 0
DWIDTH 7 0
BBX 7 8 0 0
BITMAP
1E002D40
1E01C500
1E0B7000
1EAC0000
1FAD5000
1E03E200
1E007C00
1E000B80
ENDCHAR
STARTCHAR Lambda
ENCODING 923
SWIDTH 655 0
DWIDTH 7 0
BBX 7 8 0 0
BITMAP
001F3000
006E9000
00C6E000
02E0C400
07906A00
0D401E10
3D000B50
880006B0
ENDCHAR
STARTCHAR Mu
ENCODING 924
SWIDTH 873 0
DWIDTH 10 0
BBX 9 8 0 0
BITMAP
1F60000DA0
1EC0003EA0
1DC3009AA0
1D6901D5A0
1E1D1695A0
1E096C35A0
1E03DC05A0
1E00C605A0
ENDCHAR
STARTCHAR Nu
ENCODING 925
SWIDTH 712 0
DWIDTH 8 0
BBX 7 8 0 0
BITMAP
1F4002E0
1FD102E0
1EA802E0
1E1E32E0
1E05C2E0
1E00B8E0
1E002EE0
1E0007E0
ENDCHAR
STARTCHAR Xi
ENCODING 926
SWIDTH 570 0
DWIDTH 6 0
BBX 6 8 0 0
BITMAP
5FFFF9
000000
000000
0DFFF2
000000
000000
000000
5FFFFA
ENDCHAR
STARTCHAR Omicron
ENCODING 927
SWIDTH 687 0
DWIDTH 8 0
BBX 7 8 0 0
BITMAP
01AED700
0C813D50
3D0005B0
5A0002D0
5A0002D0
3D0005B0
0C813C60
02BED700
ENDCHAR
STARTCHAR Pi
ENCODING 928
SWIDTH 713 0
DWIDTH 8 0
BBX 7 8 0 0
BITMAP
1FFFFFD0
1F0002D0
1F0002D0
1F0002D0
1F0002D0
1F0002D0
1F0002D0
1F0002D0
ENDCHAR
STARTCHAR Rho
ENCODING 929
SWIDTH 630 0
DWIDTH 7 0
BBX 7 8 0 0
BITMAP
1FFFD700
1E002D40
1E000870
1E002C50
1FFFE800
1E000000
1E000000
1E000000
ENDCHAR
STARTCHAR Sigma
ENCODING 931
SWIDTH 570 0
DWIDTH 6 0
BBX 6 8 0 0
BITMAP
9FFFF9
3D2000
05C100
007A00
007A00
05C100
3D2000
9FFFFD
ENDCHAR
STARTCHAR Tau
ENCODING 932
SWIDTH 596 0
DWIDTH 7 0
BBX 7 8 0 0
BITMAP
BFFFFF50
004C0000
004C0000
004C0000
004C0000
004C0000
004C0000
004C0000
ENDCHAR
STARTCHAR Upsilon
ENCODING 933
SWIDTH 600 0
DWIDTH 7 0
BBX 7 8 0 0
BITMAP
A8000D30
2E106A00
0981D300
01E89000
008F2000
003C0000
003C0000
003C0000
ENDCHAR
STARTCHAR Phi
ENCODING 934
SWIDTH 716 0
DWIDTH 8 0
BBX 8 8 0 0
BITMAP
00087000
05CFFC40
3E4984E2
88087097
88087097
3D3984E2
05CFFC40
00087000
ENDCHAR
STARTCHAR Chi
ENCODING 935
SWIDTH 626 0
DWIDTH 7 0
BBX 7 8 0 0
BITMAP
5D001E40
0B709900
02E5E100
007F6000
007F6000
02E4E100
0B708A00
6C001D40
ENDCHAR
STARTCHAR Psi
ENCODING 936
SWIDTH 691 0
DWIDTH 8 0
BBX 8 8 0 0
BITMAP
880C40F1
880C40F1
880C40F1
690C42F0
2E5C5A90
04CFE910
000C4000
000C4000
ENDCHAR
STARTCHAR uni03A9
ENCODING 937
SWIDTH 665 0
DWIDTH 7 0
BBX 7 8 0 0
BITMAP
03CFC400
0D614E20
4C000970
6A000790
5A000780
2D000A40
09705B00
5FF5FF80
ENDCHAR
STARTCHAR Iotadieresis
ENCODING 938
SWIDTH 271 0
DWIDTH 3 0
BBX 5 11 -1 0
BITMAP
010100
2C0C20
000000
00F000
00F000
00F000
00F000
00F000
00F000
00F000
00F000
ENDCHAR
STARTCHAR Upsilondieresis
ENCODING 939
SWIDTH 600 0
DWIDTH 7 0
BBX 7 11 0 0
BITMAP
00101000
0490D000
00000000
A8000D30
2E106A00
0981D300
01E89000
008F2000
003C0000
003C0000
003C0000
ENDCHAR
STARTCHAR alphatonos
ENCODING 940
SWIDTH 564 0
DWIDTH 6 0
BBX 7 9 0 0
BITMAP
000C1000
00090000
00000000
07ECA600
2E32D600
69009600
69009600
3D22D700
08EC7E10
ENDCHAR
STARTCHAR epsilontonos
ENCODING 941
SWIDTH 539 0
DWIDTH 6 0
BBX 6 9 0 0
BITMAP
003A00
004500
000000
1BEE90
4C2151
0CFF00
5B1000
5B12A4
09EE90
ENDCHAR
STARTCHAR etatonos
ENCODING 942
SWIDTH 566 0
DWIDTH 6 0
BBX 6 11 0 -2
BITMAP
001C00
002700
000000
3CBEB1
3E31C5
3C0096
3C0096
3C0096
3C0096
000096
000096
ENDCHAR
STARTCHAR iotatonos
ENCODING 943
SWIDTH 323 0
DWIDTH 4 0
BBX 3 9 1 0
BITMAP
9400
8000
0000
E100
E100
E100
E100
E200
9E20
ENDCHAR
STARTCHAR upsilondieresistonos
ENCODING 944
SWIDTH 545 0
DWIDTH 6 0
BBX 6 9 0 0
BITMAP
014710
2C01D0
000000
4C01E1
4C00B4
4C0096
3C00A5
1E24E2
07ED50
ENDCHAR
STARTCHAR alpha
ENCODING 945
SWIDTH 564 0
DWIDTH 6 0
BBX 7 6 0 0
BITMAP
07ECA600
2E32D600
69009600
69009600
3D22D700
08EC7E10
ENDCHAR
STARTCHAR beta
ENCODING 946
SWIDTH 592 0
DWIDTH 7 0
BBX 6 10 0 -2
BITMAP
03DEA1
1E41A7
2D01A6
2D3FD1
2D008A
2D002D
2E318A
2ECEB2
2D0000
2D0000
ENDCHAR
STARTCHAR gamma
ENCODING 947
SWIDTH 500 0
DWIDTH 6 0
BBX 6 8 0 -2
BITMAP
8700D2
3C03C0
0C2960
078D10
01EA00
00B500
00B400
00B400
ENDCHAR
STARTCHAR delta
ENCODING 948
SWIDTH 566 0
DWIDTH 6 0
BBX 6 9 0 0
BITMAP
05DE80
0B6120
057000
07FD50
3E32D4
790069
69006A
2D31C6
05DE90
ENDCHAR
STARTCHAR epsilon
ENCODING 949
SWIDTH 539 0
DWIDTH 6 0
BBX 6 6 0 0
BITMAP
1BEE90
4C2151
0CFF00
5B1000
5B12A4
09EE90
ENDCHAR
STARTCHAR zeta
ENCODING 950
SWIDTH 518 0
DWIDTH 6 0
BBX 6 10 0 -2
BITMAP
6FFFF2
000790
006B00
02C100
0A4000
0E1000
0E4000
05DC60
0003D0
000460
ENDCHAR
STARTCHAR eta
ENCODING 951
SWIDTH 566 0
DWIDTH 6 0
BBX 6 8 0 -2
BITMAP
3CBEB1
3E31C5
3C0096
3C0096
3C0096
3C0096
000096
000096
ENDCHAR
STARTCHAR theta
ENCODING 952
SWIDTH 569 0
DWIDTH 6 0
BBX 6 8 0 0
BITMAP
05DE70
1D31C3
4A0077
5FFFF9
5A0069
4C0087
1E42D3
04DE70
ENDCHAR
STARTCHAR iota
ENCODING 953
SWIDTH 323 0
DWIDTH 4 0
BBX 3 6 1 0
BITMAP
E100
E100
E100
E100
E200
9E20
ENDCHAR
STARTCHAR kappa
ENCODING 954
SWIDTH 556 0
DWIDTH 6 0
BBX 6 6 0 0
BITMAP
3C03D3
3C3D30
3FF600
3C4E10
3C08B0
3C00B7
ENDCHAR
STARTCHAR lambda
ENCODING 955
SWIDTH 553 0
DWIDTH 6 0
BBX 6 8 0 0
BITMAP
2E7000
03E100
00C600
01FC00
079D30
0D3790
3D02E1
97009C
ENDCHAR
STARTCHAR uni03BC
ENCODING 956
SWIDTH 566 0
DWIDTH 6 0
BBX 6 8 0 -2
BITMAP
3C0096
3C0096
3C0096
3D0096
3F32C6
3EEDA5
3C0000
3C0000
ENDCHAR
STARTCHAR nu
ENCODING 957
SWIDTH 484 0
DWIDTH 5 0
BBX 5 6 0 0
BITMAP
A501E0
5A0590
0D1A40
095D00
04D800
00D300
ENDCHAR
STARTCHAR xi
ENCODING 958
SWIDTH 490 0
DWIDTH 5 0
BBX 5 10 0 -2
BITMAP
05DEA0
1E3010
0D4000
04FF60
2D3000
690000
4D2000
07DC60
0003E0
000380
ENDCHAR
STARTCHAR omicron
ENCODING 959
SWIDTH 570 0
DWIDTH 6 0
BBX 6 6 0 0
BITMAP
06DE80
3E31B6
78004B
78004B
3D31B7
06DE90
ENDCHAR
STARTCHAR pi
ENCODING 960
SWIDTH 595 0
DWIDTH 7 0
BBX 7 6 0 0
BITMAP
CFFFFF20
0D20B400
0D20B400
0D20B400
0D20B500
0D206E50
ENDCHAR
STARTCHAR rho
ENCODING 961
SWIDTH 566 0
DWIDTH 6 0
BBX 6 8 0 -2
BITMAP
04DE80
1E41C5
3D0069
3C0069
3E31B6
3DCEA0
3C0000
3C0000
ENDCHAR
STARTCHAR sigma1
ENCODING 962
SWIDTH 537 0
DWIDTH 6 0
BBX 6 8 0 -2
BITMAP
06DE80
2E31C3
690010
690000
2E5000
04CE70
0003D0
000460
ENDCHAR
STARTCHAR sigma
ENCODING 963
SWIDTH 566 0
DWIDTH 6 0
BBX 7 6 0 0
BITMAP
06EFFF20
3E31B300
79005900
69005A00
2E31C600
06DE8000
ENDCHAR
STARTCHAR tau
ENCODING 964
SWIDTH 521 0
DWIDTH 6 0
BBX 6 6 0 0
BITMAP
8FFFF4
00B400
00B400
00B400
00A600
006E60
ENDCHAR
STARTCHAR upsilon
ENCODING 965
SWIDTH 545 0
DWIDTH 6 0
BBX 6 6 0 0
BITMAP
4C01E1
4C00B4
4C0096
3C00A5
1E24E2
07ED50
ENDCHAR
STARTCHAR phi
ENCODING 966
SWIDTH 704 0
DWIDTH 8 0
BBX 8 9 0 -3
BITMAP
0A35EC30
4C0A65D0
780A50C3
790A50C3
2E5A68D0
04CFEA20
000A5000
000A5000
000A5000
ENDCHAR
STARTCHAR chi
ENCODING 967
SWIDTH 495 0
DWIDTH 5 0
BBX 6 8 0 -2
BITMAP
BB00D2
1B6690
03DD20
00BA00
00DC00
06AC40
0D35B0
6A00AA
ENDCHAR
STARTCHAR psi
ENCODING 968
SWIDTH 700 0
DWIDTH 8 0
BBX 8 9 0 -3
BITMAP
780B44C0
780B40E1
780B40C3
6A0B40E2
1E5B59C0
04CFEA20
000B4000
000B4000
000B4000
ENDCHAR
STARTCHAR omega
ENCODING 969
SWIDTH 823 0
DWIDTH 9 0
BBX 9 6 0 0
BITMAP
0C30003D00
2D00400C30
4B00F00A50
4B00F10A50
1E25E62E20
06EC3CE700
ENDCHAR
STARTCHAR iotadieresis
ENCODING 970
SWIDTH 323 0
DWIDTH 4 0
BBX 5 9 -1 0
BITMAP
010100
1D0A30
000000
00E100
00E100
00E100
00E100
00E200
009E20
ENDCHAR
STARTCHAR upsilondieresis
ENCODING 971
SWIDTH 545 0
DWIDTH 6 0
BBX 6 9 0 0
BITMAP
010000
0A4680
000000
4C01E1
4C00B4
4C0096
3C00A5
1E24E2
07ED50
ENDCHAR
STARTCHAR omicrontonos
ENCODING 972
SWIDTH 570 0
DWIDTH 6 0
BBX 6 9 0 0
BITMAP
001C00
002600
000000
06DE80
3E31B6
78004B
78004B
3D31B7
06DE90
ENDCHAR
STARTCHAR upsilontonos
ENCODING 973
SWIDTH 545 0
DWIDTH 6 0
BBX 6 9 0 0
BITMAP
004900
004400
000000
4C01E1
4C00B4
4C0096
3C00A5
1E24E2
07ED50
ENDCHAR
STARTCHAR omegatonos
ENCODING 974
SWIDTH 823 0
DWIDTH 9 0
BBX 9 9 0 0
BITMAP
0000940000
0000800000
0000000000
0C30003D00
2D00400C30
4B00F00A50
4B00F10A50
1E25E62E20
06EC3CE700
ENDCHAR
STARTCHAR theta1
ENCODING 977
SWIDTH 578 0
DWIDTH 6 0
BBX 7 8 0 0
BITMAP
009EB000
02D1B400
02D09600
12C8A600
5A1AFE20
5A009600
2E21D400
06EE8000
ENDCHAR
STARTCHAR Upsilon1
ENCODING 978
SWIDTH 532 0
DWIDTH 6 0
BBX 7 8 -1 0
BITMAP
1E6007E0
03E01E20
00A68800
003CD200
000CA000
00097000
00097000
00097000
ENDCHAR
STARTCHAR omega1
ENCODING 982
SWIDTH 785 0
DWIDTH 9 0
BBX 9 6 0 0
BITMAP
9FFFFFFF60
2E00104C00
4B02D01F00
4B03D01E00
2E28E35C00
07EB4DD300
ENDCHAR
STARTCHAR uni0400
ENCODING 1024
SWIDTH 568 0
DWIDTH 6 0
BBX 6 11 0 0
BITMAP
01D300
005900
000000
1FFFFC
1E0000
1E0000
1FFFF5
1E0000
1E0000
1E0000
1FFFFD
ENDCHAR
STARTCHAR uni0401
ENCODING 1025
SWIDTH 568 0
DWIDTH 6 0
BBX 6 11 0 0
BITMAP
001010
0490D0
000000
1FFFFC
1E0000
1E0000
1FFFF5
1E0000
1E0000
1E0000
1FFFFD
ENDCHAR
STARTCHAR uni0402
ENCODING 1026
SWIDTH 749 0
DWIDTH 8 0
BBX 8 8 0 0
BITMAP
CFFFFF40
00870000
00870000
008DEEA1
00891199
0087004C
00870199
00760CB1
ENDCHAR
STARTCHAR uni0403
ENCODING 1027
SWIDTH 556 0
DWIDTH 6 0
BBX 6 11 0 0
BITMAP
0007B0
001B10
000000
1FFFFC
1F0000
1F0000
1F0000
1F0000
1F0000
1F0000
1F0000
ENDCHAR
STARTCHAR uni0404
ENCODING 1028
SWIDTH 673 0
DWIDTH 7 0
BBX 7 8 0 0
BITMAP
02AED700
0C612C50
3C000460
5FFFC000
5B000000
3E000450
0C912C50
02BED700
ENDCHAR
STARTCHAR uni0405
ENCODING 1029
SWIDTH 593 0
DWIDTH 7 0
BBX 7 8 0 0
BITMAP
06DFC300
3E316D00
4D000500
09D83000
0028D800
33001F10
5C204E00
07DFC400
ENDCHAR
STARTCHAR uni0406
ENCODING 1030
SWIDTH 271 0
DWIDTH 3 0
BBX 1 8 1 0
BITMAP
F0
F0
F0
F0
F0
F0
F0
F0
ENDCHAR
STARTCHAR uni0407
ENCODING 1031
SWIDTH 271 0
DWIDTH 3 0
BBX 5 11 -1 0
BITMAP
010100
2C0C20
000000
00F000
00F000
00F000
00F000
00F000
00F000
00F000
00F000
ENDCHAR
STARTCHAR uni0408
ENCODING 1032
SWIDTH 551 0
DWIDTH 6 0
BBX 6 8 0 0
BITMAP
0000C3
0000C3
0000C3
0000C3
0000C3
3100D3
9914E1
1BED50
ENDCHAR
STARTCHAR uni0409
ENCODING 1033
SWIDTH 1070 0
DWIDTH 12 0
BBX 12 8 0 0
BITMAP
00FFFFC00000
01F004C00000
01E004C00000
02D004FFFD50
03C004C004E2
05B004C000B4
1A7004C004E2
BC1004FFFD50
ENDCHAR
STARTCHAR uni040A
ENCODING 1034
SWIDTH 1080 0
DWIDTH 12 0
BBX 12 8 0 0
BITMAP
1F0002D00000
1F0002D00000
1F0002D00000
1FFFFFFFFD60
1F0002D003E3
1F0002D000A5
1F0002D003E3
1F0002FFFD60
ENDCHAR
STARTCHAR uni040B
ENCODING 1035
SWIDTH 813 0
DWIDTH 9 0
BBX 8 8 0 0
BITMAP
AFFFFF60
00780000
00780000
007EEEC3
007A206C
0078001F
0078000F
0078000F
ENDCHAR
STARTCHAR uni040C
ENCODING 1036
SWIDTH 626 0
DWIDTH 7 0
BBX 7 11 0 0
BITMAP
00099000
001B0000
00000000
1E002D40
1E01C500
1E0B7000
1EAC0000
1FAD5000
1E03E200
1E007C00
1E000B80
ENDCHAR
STARTCHAR uni040D
ENCODING 1037
SWIDTH 712 0
DWIDTH 8 0
BBX 7 11 0 0
BITMAP
006C0000
000A4000
00000000
1F0007D0
1F002ED0
1F00B9D0
1F05C2D0
1F1D32D0
1F9802D0
1FD102D0
1F4002D0
ENDCHAR
STARTCHAR uni040E
ENCODING 1038
SWIDTH 628 0
DWIDTH 7 0
BBX 7 11 0 0
BITMAP
01C1D000
008E8000
00000000
5C000C60
0D303E10
07A09800
01E2E200
008DA000
002F4000
005D0000
09D40000
ENDCHAR
STARTCHAR uni040F
ENCODING 1039
SWIDTH 712 0
DWIDTH 8 0
BBX 7 10 0 -2
BITMAP
1F0002D0
1F0002D0
1F0002D0
1F0002D0
1F0002D0
1F0002D0
1F0002D0
1FFFFFD0
00097000
00097000
ENDCHAR
STARTCHAR uni0410
ENCODING 1040
SWIDTH 652 0
DWIDTH 7 0
BBX 7 8 0 0
BITMAP
001F3000
006C9000
00C3D100
02C09500
08704B00
0EFFFF20
4C000970
A60003D0
ENDCHAR
STARTCHAR uni0411
ENCODING 1041
SWIDTH 630 0
DWIDTH 7 0
BBX 7 8 0 0
BITMAP
2FFFFA00
2E000000
2E000000
2FFFD700
2E002D30
2E000960
2E002D30
2FFFD700
ENDCHAR
STARTCHAR uni0412
ENCODING 1042
SWIDTH 622 0
DWIDTH 7 0
BBX 7 8 0 0
BITMAP
1FFFD500
1E004E00
1E005D00
1FFFF400
1E004E10
1E000D30
1E004E10
1FFFD500
ENDCHAR
STARTCHAR uni0413
ENCODING 1043
SWIDTH 556 0
DWIDTH 6 0
BBX 6 8 0 0
BITMAP
1FFFFC
1F0000
1F0000
1F0000
1F0000
1F0000
1F0000
1F0000
ENDCHAR
STARTCHAR uni0414
ENCODING 1044
SWIDTH 751 0
DWIDTH 8 0
BBX 8 10 0 -2
BITMAP
00CFFFE0
00C302E0
00D302E0
00E202E0
02F002E0
05B002E0
0C5002E0
BFFFFFFE
B500001E
B500001E
ENDCHAR
STARTCHAR uni0415
ENCODING 1045
SWIDTH 568 0
DWIDTH 6 0
BBX 6 8 0 0
BITMAP
1FFFFC
1E0000
1E0000
1FFFF5
1E0000
1E0000
1E0000
1FFFFD
ENDCHAR
STARTCHAR uni0416
ENCODING 1046
SWIDTH 907 0
DWIDTH 10 0
BBX 10 8 0 0
BITMAP
4D107800C5
0890780890
00C4784D10
006FFFF700
00D5785D10
07C0780B70
1E407803E2
9B007800A9
ENDCHAR
STARTCHAR uni0417
ENCODING 1047
SWIDTH 593 0
DWIDTH 7 0
BBX 6 8 0 0
BITMAP
07EEC3
5D206D
12006C
009FE3
00006C
22000F
6C217C
08EEB2
ENDCHAR
STARTCHAR uni0418
ENCODING 1048
SWIDTH 712 0
DWIDTH 8 0
BBX 7 8 0 0
BITMAP
1F0007D0
1F002ED0
1F00B9D0
1F05C2D0
1F1D32D0
1F9802D0
1FD102D0
1F4002D0
ENDCHAR
STARTCHAR uni0419
ENCODING 1049
SWIDTH 712 0
DWIDTH 8 0
BBX 7 11 0 0
BITMAP
00957700
003DD200
00000000
1F0007D0
1F002ED0
1F00B9D0
1F05C2D0
1F1D32D0
1F9802D0
1FD102D0
1F4002D0
ENDCHAR
STARTCHAR uni041A
ENCODING 1050
SWIDTH 642 0
DWIDTH 7 0
BBX 7 8 0 0
BITMAP
1F001D60
1F01C700
1F0B9000
1FFE1000
1F0B9000
1F01E400
1F004E10
1F0009A0
ENDCHAR
STARTCHAR uni041B
ENCODING 1051
SWIDTH 707 0
DWIDTH 8 0
BBX 7 8 0 0
BITMAP
00FFFFC0
01E003C0
02E003C0
02D003C0
03C003C0
05B003C0
1B7003C0
BB1003C0
ENDCHAR
STARTCHAR uni041C
ENCODING 1052
SWIDTH 873 0
DWIDTH 10 0
BBX 9 8 0 0
BITMAP
1F60000DA0
1EC0003EA0
1DC3009AA0
1D6901D5A0
1E1D1695A0
1E096C35A0
1E03DC05A0
1E00C605A0
ENDCHAR
STARTCHAR uni041D
ENCODING 1053
SWIDTH 712 0
DWIDTH 8 0
BBX 7 8 0 0
BITMAP
1E0002E0
1E0002E0
1E0002E0
1FFFFFE0
1E0002E0
1E0002E0
1E0002E0
1E0002E0
ENDCHAR
STARTCHAR uni041E
ENCODING 1054
SWIDTH 687 0
DWIDTH 8 0
BBX 7 8 0 0
BITMAP
01AED700
0C813D50
3D0005B0
5A0002D0
5A0002D0
3D0005B0
0C813C60
02BED700
ENDCHAR
STARTCHAR uni041F
ENCODING 1055
SWIDTH 713 0
DWIDTH 8 0
BBX 7 8 0 0
BITMAP
1FFFFFD0
1F0002D0
1F0002D0
1F0002D0
1F0002D0
1F0002D0
1F0002D0
1F0002D0
ENDCHAR
STARTCHAR uni0420
ENCODING 1056
SWIDTH 630 0
DWIDTH 7 0
BBX 7 8 0 0
BITMAP
1FFFD700
1E002D40
1E000870
1E002C50
1FFFE800
1E000000
1E000000
1E000000
ENDCHAR
STARTCHAR uni0421
ENCODING 1057
SWIDTH 650 0
DWIDTH 7 0
BBX 7 8 0 0
BITMAP
02BED700
0C812D50
3D000450
5A000000
5A000000
3D000450
0C712D40
02BED700
ENDCHAR
STARTCHAR uni0422
ENCODING 1058
SWIDTH 596 0
DWIDTH 7 0
BBX 7 8 0 0
BITMAP
BFFFFF50
004C0000
004C0000
004C0000
004C0000
004C0000
004C0000
004C0000
ENDCHAR
STARTCHAR uni0423
ENCODING 1059
SWIDTH 628 0
DWIDTH 7 0
BBX 7 8 0 0
BITMAP
5C000C60
0D303E10
07A09800
01E2E200
008DA000
002F4000
005D0000
09D40000
ENDCHAR
STARTCHAR uni0424
ENCODING 1060
SWIDTH 771 0
DWIDTH 8 0
BBX 9 8 0 0
BITMAP
0004C00000
04CFFE9100
2E44C19A00
7804C00F10
7804C00E00
2E44C19A00
04CFFE9100
0004C00000
ENDCHAR
STARTCHAR uni0425
ENCODING 1061
SWIDTH 626 0
DWIDTH 7 0
BBX 7 8 0 0
BITMAP
5D001E40
0B709900
02E5E100
007F6000
007F6000
02E4E100
0B708A00
6C001D40
ENDCHAR
STARTCHAR uni0426
ENCODING 1062
SWIDTH 730 0
DWIDTH 8 0
BBX 8 10 0 -2
BITMAP
1F0003D0
1F0003D0
1F0003D0
1F0003D0
1F0003D0
1F0003D0
1F0003D0
1FFFFFFA
0000005A
00000059
ENDCHAR
STARTCHAR uni0427
ENCODING 1063
SWIDTH 684 0
DWIDTH 8 0
BBX 7 8 0 0
BITMAP
3D000790
3D000790
3D000790
1E401990
05DFED90
00000790
00000790
00000790
ENDCHAR
STARTCHAR uni0428
ENCODING 1064
SWIDTH 940 0
DWIDTH 10 0
BBX 10 8 0 0
BITMAP
1F005B0096
1F005B0096
1F005B0096
1F005B0096
1F005B0096
1F005B0096
1F005B0096
1FFFFFFFF6
ENDCHAR
STARTCHAR uni0429
ENCODING 1065
SWIDTH 968 0
DWIDTH 11 0
BBX 11 10 0 -2
BITMAP
1F005B009600
1F005B009600
1F005B009600
1F005B009600
1F005B009600
1F005B009600
1F005B009600
1FFFFFFFFF20
000000000C20
000000000C20
ENDCHAR
STARTCHAR uni042A
ENCODING 1066
SWIDTH 758 0
DWIDTH 8 0
BBX 8 8 0 0
BITMAP
EFF50000
00B50000
00B50000
00BFFEB1
00B5019A
00B5003C
00B50199
00BFFEB1
ENDCHAR
STARTCHAR uni042B
ENCODING 1067
SWIDTH 864 0
DWIDTH 10 0
BBX 9 8 0 0
BITMAP
1F00000880
1F00000880
1F00000880
1FFFE80880
1F002D5880
1F00087880
1F002D4880
1FFFE80880
ENDCHAR
STARTCHAR uni042C
ENCODING 1068
SWIDTH 627 0
DWIDTH 7 0
BBX 7 8 0 0
BITMAP
2E000000
2E000000
2E000000
2FFFD700
2E002D30
2E000960
2E002D30
2FFFD700
ENDCHAR
STARTCHAR uni042D
ENCODING 1069
SWIDTH 673 0
DWIDTH 7 0
BBX 7 8 0 0
BITMAP
03BED600
0D613C40
190005A0
004FFFC0
000004C0
180007A0
0D614E40
02BED600
ENDCHAR
STARTCHAR uni042E
ENCODING 1070
SWIDTH 894 0
DWIDTH 10 0
BBX 9 8 1 0
BITMAP
F008DEB200
F07D317D00
F0C6000C40
FFF3000A60
F0C3000A60
F096000C40
F03D317D00
F005DEB200
ENDCHAR
STARTCHAR uni042F
ENCODING 1071
SWIDTH 636 0
DWIDTH 7 0
BBX 6 8 0 0
BITMAP
04CFFF
1E400F
3D000F
1E500F
03EFFF
02D10F
0A600F
4D000F
ENDCHAR
STARTCHAR uni0430
ENCODING 1072
SWIDTH 543 0
DWIDTH 6 0
BBX 6 6 0 0
BITMAP
09EE70
2611D1
08EFF3
4C20C3
5B14E3
0AEBC4
ENDCHAR
STARTCHAR uni0431
ENCODING 1073
SWIDTH 552 0
DWIDTH 6 0
BBX 6 9 0 0
BITMAP
0002C3
02CC60
0C3000
4ACE90
6E31B6
79005A
69006A
2E31C6
05DE80
ENDCHAR
STARTCHAR uni0432
ENCODING 1074
SWIDTH 571 0
DWIDTH 6 0
BBX 6 6 0 0
BITMAP
2FFEC2
2D01A6
2FFFD1
2D0089
2D008A
2FFFC2
ENDCHAR
STARTCHAR uni0433
ENCODING 1075
SWIDTH 419 0
DWIDTH 5 0
BBX 5 6 0 0
BITMAP
3FFF80
3C0000
3C0000
3C0000
3C0000
3C0000
ENDCHAR
STARTCHAR uni0434
ENCODING 1076
SWIDTH 603 0
DWIDTH 7 0
BBX 7 8 0 -2
BITMAP
03FFF800
04B07800
05A07800
08807800
1D207800
BFFFFF40
B4000B40
B4000B40
ENDCHAR
STARTCHAR uni0435
ENCODING 1077
SWIDTH 529 0
DWIDTH 6 0
BBX 6 6 0 0
BITMAP
06DE70
3C22C3
7FFFF6
790000
3E3161
06DEA1
ENDCHAR
STARTCHAR uni0436
ENCODING 1078
SWIDTH 765 0
DWIDTH 8 0
BBX 9 6 0 0
BITMAP
5D14A08A00
08A4A4D100
00EFFF5000
06B4A5C000
1E34A0C600
9A04A04E10
ENDCHAR
STARTCHAR uni0437
ENCODING 1079
SWIDTH 507 0
DWIDTH 6 0
BBX 5 6 0 0
BITMAP
1BEE60
2414D0
02FF60
0003E0
5913E0
1AED50
ENDCHAR
STARTCHAR uni0438
ENCODING 1080
SWIDTH 577 0
DWIDTH 6 0
BBX 6 6 0 0
BITMAP
2C00C8
2C06E8
2C1D88
2CA578
2EB078
2F2078
ENDCHAR
STARTCHAR uni0439
ENCODING 1081
SWIDTH 577 0
DWIDTH 6 0
BBX 6 9 0 0
BITMAP
0583B0
01CE40
000000
2C00C8
2C06E8
2C1D88
2CA578
2EB078
2F2078
ENDCHAR
STARTCHAR uni043A
ENCODING 1082
SWIDTH 540 0
DWIDTH 6 0
BBX 6 6 0 0
BITMAP
2D02D3
2D2D30
2FF800
2D2E20
2D06C0
2D00B7
ENDCHAR
STARTCHAR uni043B
ENCODING 1083
SWIDTH 578 0
DWIDTH 6 0
BBX 6 6 0 0
BITMAP
06FFF8
078078
087078
096078
1D3078
BA0078
ENDCHAR
STARTCHAR uni043C
ENCODING 1084
SWIDTH 741 0
DWIDTH 8 0
BBX 8 6 0 0
BITMAP
2F5002F5
2EB008F5
2DB31DB5
2D5968A5
2D0DD2A5
2D07A0A5
ENDCHAR
STARTCHAR uni043D
ENCODING 1085
SWIDTH 576 0
DWIDTH 6 0
BBX 6 6 0 0
BITMAP
2D0088
2D0088
2FFFF8
2D0088
2D0088
2D0088
ENDCHAR
STARTCHAR uni043E
ENCODING 1086
SWIDTH 570 0
DWIDTH 6 0
BBX 6 6 0 0
BITMAP
06DE80
3E31B6
78004B
78004B
3D31B7
06DE90
ENDCHAR
STARTCHAR uni043F
ENCODING 1087
SWIDTH 577 0
DWIDTH 6 0
BBX 6 6 0 0
BITMAP
2FFFF8
2D0078
2D0078
2D0078
2D0078
2D0078
ENDCHAR
STARTCHAR uni0440
ENCODING 1088
SWIDTH 561 0
DWIDTH 6 0
BBX 6 8 0 -2
BITMAP
4CCE90
4E32C6
4B0069
4B0069
4E31C6
4DCE90
4B0000
4B0000
ENDCHAR
STARTCHAR uni0441
ENCODING 1089
SWIDTH 523 0
DWIDTH 6 0
BBX 6 6 0 0
BITMAP
06EE70
3D21C3
780011
780000
3D21B4
06DE70
ENDCHAR
STARTCHAR uni0442
ENCODING 1090
SWIDTH 480 0
DWIDTH 5 0
BBX 6 6 0 0
BITMAP
CFFFF1
00D200
00D200
00D200
00D200
00D200
ENDCHAR
STARTCHAR uni0443
ENCODING 1091
SWIDTH 473 0
DWIDTH 5 0
BBX 5 8 0 -2
BITMAP
A602D0
5B0780
0E1C30
098C00
04F700
00E200
04B000
8D3000
ENDCHAR
STARTCHAR uni0444
ENCODING 1092
SWIDTH 725 0
DWIDTH 8 0
BBX 8 10 0 -2
BITMAP
00087000
00087000
08EEEE70
3D2972E2
69087095
69087096
4D2972D3
09EEEE80
00087000
00087000
ENDCHAR
STARTCHAR uni0445
ENCODING 1093
SWIDTH 495 0
DWIDTH 5 0
BBX 5 6 0 0
BITMAP
6B05C0
0B5D30
02E800
03E900
0C4C40
7A04D0
ENDCHAR
STARTCHAR uni0446
ENCODING 1094
SWIDTH 592 0
DWIDTH 7 0
BBX 7 8 0 -2
BITMAP
2D007800
2D007800
2D007800
2D007800
2D007800
2FFFFF30
00000C20
00000C20
ENDCHAR
STARTCHAR uni0447
ENCODING 1095
SWIDTH 543 0
DWIDTH 6 0
BBX 6 6 0 0
BITMAP
7800D2
7800D2
5C11D2
0AEEF2
0000D2
0000D2
ENDCHAR
STARTCHAR uni0448
ENCODING 1096
SWIDTH 808 0
DWIDTH 9 0
BBX 9 6 0 0
BITMAP
2D00E00E10
2D00E00E10
2D00E00E10
2D00E00E10
2D00E00E10
2FFFFFFF10
ENDCHAR
STARTCHAR uni0449
ENCODING 1097
SWIDTH 827 0
DWIDTH 9 0
BBX 9 8 0 -2
BITMAP
3C01E00F00
3C01E00F00
3C01E00F00
3C01E00F00
3C01E00F00
3FFFFFFFC0
00000002C0
00000002B0
ENDCHAR
STARTCHAR uni044A
ENCODING 1098
SWIDTH 620 0
DWIDTH 7 0
BBX 7 6 0 0
BITMAP
DFD00000
02D00000
02FFFB10
02D00A70
02D00A60
02FFFA10
ENDCHAR
STARTCHAR uni044B
ENCODING 1099
SWIDTH 776 0
DWIDTH 9 0
BBX 8 6 0 0
BITMAP
2D000078
2D000078
2FFEA078
2D01B678
2D01B678
2FFEA078
ENDCHAR
STARTCHAR uni044C
ENCODING 1100
SWIDTH 542 0
DWIDTH 6 0
BBX 6 6 0 0
BITMAP
2D0000
2D0000
2FFEA0
2D01B6
2D01B6
2FFEA0
ENDCHAR
STARTCHAR uni044D
ENCODING 1101
SWIDTH 537 0
DWIDTH 6 0
BBX 6 6 0 0
BITMAP
19ED40
3612C1
00DFF4
1100C4
5B14E1
09ED40
ENDCHAR
STARTCHAR uni044E
ENCODING 1102
SWIDTH 815 0
DWIDTH 9 0
BBX 9 6 0 0
BITMAP
2D01AED500
2D09B13E30
2FFF400870
2D0A400870
2D05B13E30
2D008ED600
ENDCHAR
STARTCHAR uni044F
ENCODING 1103
SWIDTH 548 0
DWIDTH 6 0
BBX 6 6 0 0
BITMAP
0AEFF3
5B10C3
5B10C3
0BFFF3
0B50C3
6A00C3
ENDCHAR
STARTCHAR uni0450
ENCODING 1104
SWIDTH 529 0
DWIDTH 6 0
BBX 6 9 0 0
BITMAP
04D100
009500
000000
06DE70
3C22C3
7FFFF6
790000
3E3161
06DEA1
ENDCHAR
STARTCHAR uni0451
ENCODING 1105
SWIDTH 529 0
DWIDTH 6 0
BBX 6 9 0 0
BITMAP
010010
0954A0
000000
06DE70
3C22C3
7FFFF6
790000
3E3161
06DEA1
ENDCHAR
STARTCHAR uni0452
ENCODING 1106
SWIDTH 550 0
DWIDTH 6 0
BBX 7 11 -1 -2
BITMAP
04B00000
2FFF4000
04B00000
04CBEA00
04E31D40
04B00A50
04B00A50
04B00A50
04B00A50
00001C40
0000EB00
ENDCHAR
STARTCHAR uni0453
ENCODING 1107
SWIDTH 419 0
DWIDTH 5 0
BBX 5 9 0 0
BITMAP
008A00
01B100
000000
3FFF80
3C0000
3C0000
3C0000
3C0000
3C0000
ENDCHAR
STARTCHAR uni0454
ENCODING 1108
SWIDTH 537 0
DWIDTH 6 0
BBX 6 6 0 0
BITMAP
06DEA1
3C2173
6FFB00
6A0000
2E31B4
06DE80
ENDCHAR
STARTCHAR uni0455
ENCODING 1109
SWIDTH 515 0
DWIDTH 6 0
BBX 6 6 0 0
BITMAP
09ED60
3C13C0
1DC710
0048D0
5A12E1
09EE60
ENDCHAR
STARTCHAR uni0456
ENCODING 1110
SWIDTH 242 0
DWIDTH 3 0
BBX 2 9 0 0
BITMAP
01
2C
00
2C
2C
2C
2C
2C
2C
ENDCHAR
STARTCHAR uni0457
ENCODING 1111
SWIDTH 247 0
DWIDTH 3 0
BBX 5 9 -1 0
BITMAP
010100
4A0D10
000000
03C000
03C000
03C000
03C000
03C000
03C000
ENDCHAR
STARTCHAR uni0458
ENCODING 1112
SWIDTH 238 0
DWIDTH 3 0
BBX 3 11 -1 -2
BITMAP
0010
03B0
0000
03C0
03C0
03C0
03C0
03C0
03C0
05B0
5E60
ENDCHAR
STARTCHAR uni0459
ENCODING 1113
SWIDTH 848 0
DWIDTH 9 0
BBX 9 6 0 0
BITMAP
07FFF50000
0870A50000
0860AFFD40
0950A504D0
1D30A504D0
CA00AFFD40
ENDCHAR
STARTCHAR uni045A
ENCODING 1114
SWIDTH 861 0
DWIDTH 9 0
BBX 10 6 0 0
BITMAP
2D00880000
2D00880000
2FFFFFFE60
2D008802E1
2D008802E1
2D008FFE60
ENDCHAR
STARTCHAR uni045B
ENCODING 1115
SWIDTH 566 0
DWIDTH 6 0
BBX 6 9 0 0
BITMAP
4B0000
FFF600
4B0000
4CBEA0
4E31D4
4B00A5
4B00A5
4B00A5
4B00A5
ENDCHAR
STARTCHAR uni045C
ENCODING 1116
SWIDTH 540 0
DWIDTH 6 0
BBX 6 9 0 0
BITMAP
001D40
006800
000000
2D02D3
2D2D30
2FF800
2D2E20
2D06C0
2D00B7
ENDCHAR
STARTCHAR uni045D
ENCODING 1117
SWIDTH 577 0
DWIDTH 6 0
BBX 6 9 0 0
BITMAP
03E200
007700
000000
2C00C8
2C06E8
2C1D88
2CA578
2EB078
2F2078
ENDCHAR
STARTCHAR uni045E
ENCODING 1118
SWIDTH 473 0
DWIDTH 5 0
BBX 5 11 0 -2
BITMAP
0C2A40
05EB00
000000
A602D0
5B0780
0E1C30
098C00
04F700
00E200
04B000
8D3000
ENDCHAR
STARTCHAR uni045F
ENCODING 1119
SWIDTH 577 0
DWIDTH 6 0
BBX 6 8 0 -2
BITMAP
2D0078
2D0078
2D0078
2D0078
2D0078
2FFFF8
005A00
005A00
ENDCHAR
STARTCHAR uni0460
ENCODING 1120
SWIDTH 878 0
DWIDTH 10 0
BBX 9 8 0 0
BITMAP
2D00A602D0
2D00A602D0
2D00A602D0
2D00A602D0
2D00A602D0
2D00A602D0
1E32EA17B0
06ED69EC30
ENDCHAR
STARTCHAR uni0461
ENCODING 1121
SWIDTH 770 0
DWIDTH 8 0
BBX 8 6 0 0
BITMAP
5A04B03C
5A04B03C
5A04B03C
5A04B03C
3D18E16B
09EB7ED3
ENDCHAR
STARTCHAR uni0462
ENCODING 1122
SWIDTH 627 0
DWIDTH 7 0
BBX 8 8 -1 0
BITMAP
02E00000
4FFF3000
02E00000
02FFFD70
02E002D3
02E00096
02E002D3
02FFFD70
ENDCHAR
STARTCHAR uni0463
ENCODING 1123
SWIDTH 541 0
DWIDTH 6 0
BBX 7 9 -1 0
BITMAP
03C00000
03C00000
3FFF8000
03C00000
03C00000
03FFEA00
03C01B60
03C01B60
03FFFA00
ENDCHAR
STARTCHAR uni0464
ENCODING 1124
SWIDTH 895 0
DWIDTH 10 0
BBX 8 8 1 0
BITMAP
F008EEB2
F07C218B
F0D30009
FFFFFF00
F0D20000
F0B50009
F05D317B
F007EEA2
ENDCHAR
STARTCHAR uni0465
ENCODING 1125
SWIDTH 746 0
DWIDTH 8 0
BBX 8 6 0 0
BITMAP
3C05DFC3
3C1E3156
3FFFFF30
3C1E0000
3C0B6179
3C02CEA1
ENDCHAR
STARTCHAR uni0466
ENCODING 1126
SWIDTH 602 0
DWIDTH 7 0
BBX 7 8 0 0
BITMAP
002F2000
007E7000
00D6C000
03D0D200
08809800
0DFFFD00
4D1E0E30
971E0880
ENDCHAR
STARTCHAR uni0467
ENCODING 1127
SWIDTH 534 0
DWIDTH 6 0
BBX 6 6 0 0
BITMAP
00B800
02DD00
088C50
0E37B0
5FFFF2
B696A8
ENDCHAR
STARTCHAR uni0468
ENCODING 1128
SWIDTH 880 0
DWIDTH 10 0
BBX 9 8 1 0
BITMAP
E2004E0000
E2009E5000
E200E6A000
E204B1E100
E20960B500
EFFFFFFA00
E25B3C2E10
E2B53C0A60
ENDCHAR
STARTCHAR uni0469
ENCODING 1129
SWIDTH 755 0
DWIDTH 8 0
BBX 7 6 1 0
BITMAP
F005D000
F00AD500
F01D6B00
F0591F20
FFFFFF70
F3C3C4D0
ENDCHAR
STARTCHAR uni046A
ENCODING 1130
SWIDTH 852 0
DWIDTH 9 0
BBX 9 8 0 0
BITMAP
04FFFFFA00
00B601E300
003D07A000
000A7E2000
06DFFFEA10
1E30C31B70
3C00C30790
3C00C30790
ENDCHAR
STARTCHAR uni046B
ENCODING 1131
SWIDTH 734 0
DWIDTH 8 0
BBX 8 6 0 0
BITMAP
04FFFF60
00B53D00
003CA600
07EFFE80
1E2782E2
3C0780B4
ENDCHAR
STARTCHAR uni046C
ENCODING 1132
SWIDTH 1126 0
DWIDTH 12 0
BBX 11 8 1 0
BITMAP
F003FFFFFB00
F000A701E300
F0003D17A000
F0000A7D2000
FFFFFFFFEA10
F01E41C42B70
F03D00C40690
F03D00C40690
ENDCHAR
STARTCHAR uni046D
ENCODING 1133
SWIDTH 977 0
DWIDTH 11 0
BBX 10 6 0 0
BITMAP
3C009FFFE1
3C002D1880
3C00088D10
3FFFFFFFD4
3C06B1C35C
3C0870C31E
ENDCHAR
STARTCHAR uni046E
ENCODING 1134
SWIDTH 517 0
DWIDTH 6 0
BBX 5 13 0 -2
BITMAP
077940
00B900
000000
4FFC30
0006C0
0006B0
08FE20
0006C0
0000F0
0006C0
4DFC30
880000
1B1000
ENDCHAR
STARTCHAR uni046F
ENCODING 1135
SWIDTH 481 0
DWIDTH 5 0
BBX 5 11 0 -2
BITMAP
0B3B00
03E300
000000
5FFC30
000980
08FE20
0007A0
0008A0
4DFB20
880000
2B1000
ENDCHAR
STARTCHAR uni0470
ENCODING 1136
SWIDTH 691 0
DWIDTH 8 0
BBX 8 8 0 0
BITMAP
880C40F1
880C40F1
880C40F1
690C42F0
2E5C5A90
04CFE910
000C4000
000C4000
ENDCHAR
STARTCHAR uni0471
ENCODING 1137
SWIDTH 700 0
DWIDTH 8 0
BBX 8 9 0 -3
BITMAP
780B44C0
780B40E1
780B40C3
6A0B40E2
1E5B59C0
04CFEA20
000B4000
000B4000
000B4000
ENDCHAR
STARTCHAR uni0472
ENCODING 1138
SWIDTH 680 0
DWIDTH 7 0
BBX 7 8 0 0
BITMAP
02BED600
0D512C40
4A0004A0
6FFFFFC0
6A0004C0
4D0007A0
0D814E40
02BED600
ENDCHAR
STARTCHAR uni0473
ENCODING 1139
SWIDTH 567 0
DWIDTH 6 0
BBX 6 6 0 0
BITMAP
06DE80
3C2196
7FFFFB
79005B
3E32C7
06DE90
ENDCHAR
STARTCHAR uni0474
ENCODING 1140
SWIDTH 629 0
DWIDTH 7 0
BBX 7 8 0 0
BITMAP
B60008A0
6B002E10
1E107900
0A50B400
05A1D000
01E69000
00AD4000
005E0000
ENDCHAR
STARTCHAR uni0475
ENCODING 1141
SWIDTH 501 0
DWIDTH 6 0
BBX 6 6 0 0
BITMAP
9601C7
4B06A0
0D1A40
085D00
03C900
00D300
ENDCHAR
STARTCHAR uni0476
ENCODING 1142
SWIDTH 629 0
DWIDTH 7 0
BBX 7 11 0 0
BITMAP
2D8C0000
04B93000
00000000
B60008A0
6B002E10
1E107900
0A50B400
05A1D000
01E69000
00AD4000
005E0000
ENDCHAR
STARTCHAR uni0477
ENCODING 1143
SWIDTH 501 0
DWIDTH 6 0
BBX 6 9 0 0
BITMAP
9AD400
0B7900
000000
9601C7
4B06A0
0D1A40
085D00
03C900
00D300
ENDCHAR
STARTCHAR uni0478
ENCODING 1144
SWIDTH 1160 0
DWIDTH 13 0
BBX 13 10 0 -2
BITMAP
01AED700000000
0C813D50000000
3D0005B2E00970
5A0002D0C40D20
5A0002D0693B00
3D0005B01E8600
0C813C600AE100
02BED70005A000
000000001A5000
00000000EA0000
ENDCHAR
STARTCHAR uni0479
ENCODING 1145
SWIDTH 1043 0
DWIDTH 11 0
BBX 12 8 0 -2
BITMAP
06DE806A00D3
3E31B61E13C0
78004B0A5870
78004B05AC20
3D31B700EB00
06DE9000A600
00000002D100
0000004E6000
ENDCHAR
STARTCHAR uni047A
ENCODING 1146
SWIDTH 680 0
DWIDTH 7 0
BBX 7 10 0 -1
BITMAP
00072000
02BFD600
0D664D40
4C0006A0
690003C0
690003C0
4C0006A0
0D664D40
02BFD600
00082000
ENDCHAR
STARTCHAR uni047B
ENCODING 1147
SWIDTH 566 0
DWIDTH 6 0
BBX 6 8 0 -1
BITMAP
003500
06EF90
3D55B7
78004B
78004B
3D55B7
06EF90
003500
ENDCHAR
STARTCHAR uni047C
ENCODING 1148
SWIDTH 875 0
DWIDTH 10 0
BBX 9 11 0 0
BITMAP
0007E92000
000B27E400
0000670000
05E0825C20
0E300008A0
2D000003C0
2D006303D0
2D00A503D0
2D00A603C0
0E32EA18A0
05EE69EC20
ENDCHAR
STARTCHAR uni047D
ENCODING 1149
SWIDTH 767 0
DWIDTH 8 0
BBX 8 9 0 0
BITMAP
001DD500
00483BB0
0000D000
099192D3
3D10007A
5A01303C
5A04B03C
3D18D17A
09EB7ED3
ENDCHAR
STARTCHAR uni047E
ENCODING 1150
SWIDTH 878 0
DWIDTH 10 0
BBX 9 11 0 0
BITMAP
004FFFF100
0000940000
0000000000
2D00A602D0
2D00A602D0
2D00A602D0
2D00A602D0
2D00A602D0
2D00A602D0
1E32EA17B0
06ED69EC30
ENDCHAR
STARTCHAR uni047F
ENCODING 1151
SWIDTH 770 0
DWIDTH 8 0
BBX 8 9 0 0
BITMAP
00EFFF70
0003A000
00000000
5A04B03C
5A04B03C
5A04B03C
5A04B03C
3D18E16B
09EB7ED3
ENDCHAR
STARTCHAR uni0480
ENCODING 1152
SWIDTH 649 0
DWIDTH 7 0
BBX 7 10 0 -2
BITMAP
02BED600
0D713D30
4C000640
6A000000
5A000000
4C000000
0D710000
02BF4000
000C4000
000C4000
ENDCHAR
STARTCHAR uni0481
ENCODING 1153
SWIDTH 534 0
DWIDTH 6 0
BBX 6 8 0 -2
BITMAP
06EE70
3E32D3
690010
690000
3E3000
06E900
006900
006900
ENDCHAR
STARTCHAR uni0482
ENCODING 1154
SWIDTH 623 0
DWIDTH 7 0
BBX 7 7 0 0
BITMAP
00004A00
0099C200
0009D600
251C1610
18D70000
03BA7000
0B301000
ENDCHAR
STARTCHAR uni0483
ENCODING 1155
SWIDTH 0 0
DWIDTH 0 0
BBX 4 3 -5 6
BITMAP
0007
EFFC
9000
ENDCHAR
STARTCHAR uni0484
ENCODING 1156
SWIDTH 0 0
DWIDTH 0 0
BBX 5 2 -5 7
BITMAP
06DB00
DA2A20
ENDCHAR
STARTCHAR uni0485
ENCODING 1157
SWIDTH 0 0
DWIDTH 0 0
BBX 2 2 -4 7
BITMAP
86
27
ENDCHAR
STARTCHAR uni0486
ENCODING 1158
SWIDTH 0 0
DWIDTH 0 0
BBX 3 2 -4 7
BITMAP
0E10
1800
ENDCHAR
STARTCHAR uni0488
ENCODING 1160
SWIDTH 0 0
DWIDTH 0 0
BBX 12 11 -9 -3
BITMAP
00000AB00000
000005510000
00BA00007D10
015500006330
0AB0000007D1
155100000633
000000000000
00C900008C10
014600006420
00000AC00000
000006410000
ENDCHAR
STARTCHAR uni0489
ENCODING 1161
SWIDTH 0 0
DWIDTH 0 0
BBX 10 10 -8 -2
BITMAP
0000270000
0530640000
01A0001870
0000000400
0000000000
99000000A7
0100000001
0030000A00
0870460440
0000710000
ENDCHAR
STARTCHAR uni048A
ENCODING 1162
SWIDTH 754 0
DWIDTH 8 0
BBX 8 13 0 -2
BITMAP
00957700
003DD200
00000000
1F0007D0
1F002ED0
1F00B9D0
1F05C2D0
1F1D32D0
1F9802D0
1FD102D2
1F4002FD
0000004B
00000074
ENDCHAR
STARTCHAR uni048B
ENCODING 1163
SWIDTH 615 0
DWIDTH 7 0
BBX 7 11 0 -2
BITMAP
0683A000
01CE4000
00000000
2C00C800
2C06E800
2C1D8800
2CA57800
2EB07910
2F207F70
00000950
00000A00
ENDCHAR
STARTCHAR uni048C
ENCODING 1164
SWIDTH 627 0
DWIDTH 7 0
BBX 8 8 -1 0
BITMAP
02E00000
4FFF3000
02E00000
02FFFD70
02E002D3
02E00096
02E002D3
02FFFD70
ENDCHAR
STARTCHAR uni048D
ENCODING 1165
SWIDTH 541 0
DWIDTH 6 0
BBX 7 9 -1 0
BITMAP
03C00000
3FFF8000
03C00000
03C00000
03C00000
03FFEA00
03C01B60
03C01B60
03FFFA00
ENDCHAR
STARTCHAR uni048E
ENCODING 1166
SWIDTH 638 0
DWIDTH 7 0
BBX 7 8 0 0
BITMAP
1FFFD700
1E002D40
1E002870
1E00AE50
1FFFED40
1E000130
1E000000
1E000000
ENDCHAR
STARTCHAR uni048F
ENCODING 1167
SWIDTH 566 0
DWIDTH 6 0
BBX 6 8 0 -2
BITMAP
4CCE90
4E32C6
4B0069
4B0169
4E37E6
4DCED6
4B0001
4B0000
ENDCHAR
STARTCHAR uni0490
ENCODING 1168
SWIDTH 548 0
DWIDTH 6 0
BBX 6 10 0 0
BITMAP
00005A
00005A
2FFFFA
2E0000
2E0000
2E0000
2E0000
2E0000
2E0000
2E0000
ENDCHAR
STARTCHAR uni0491
ENCODING 1169
SWIDTH 445 0
DWIDTH 5 0
BBX 5 8 0 0
BITMAP
000870
000870
3FFF70
3C0000
3C0000
3C0000
3C0000
3C0000
ENDCHAR
STARTCHAR uni0492
ENCODING 1170
SWIDTH 556 0
DWIDTH 6 0
BBX 6 8 0 0
BITMAP
1FFFFC
1F0000
1F0000
FFF700
1F0000
1F0000
1F0000
1F0000
ENDCHAR
STARTCHAR uni0493
ENCODING 1171
SWIDTH 419 0
DWIDTH 5 0
BBX 5 6 0 0
BITMAP
3FFF80
3C0000
FFF600
3C0000
3C0000
3C0000
ENDCHAR
STARTCHAR uni0494
ENCODING 1172
SWIDTH 606 0
DWIDTH 7 0
BBX 7 10 0 -2
BITMAP
1FFFFC00
1F000000
1F000000
1F000000
1FFEA100
1F018B00
1F000E10
1F000D20
00005D00
0006C300
ENDCHAR
STARTCHAR uni0495
ENCODING 1173
SWIDTH 502 0
DWIDTH 6 0
BBX 6 8 0 -2
BITMAP
3FFF70
3C0000
3C0000
3FFC30
3C05D0
3C00D1
0005D0
001C30
ENDCHAR
STARTCHAR uni0496
ENCODING 1174
SWIDTH 954 0
DWIDTH 11 0
BBX 11 10 0 -2
BITMAP
4D107800C500
089078089000
00C4784D1000
006FFFF70000
00D5785D1000
07C0780B7000
1E407803E200
9B007800AF50
000000000A50
000000000A50
ENDCHAR
STARTCHAR uni0497
ENCODING 1175
SWIDTH 797 0
DWIDTH 9 0
BBX 9 8 0 -2
BITMAP
5D14A08A00
08A4A4D100
00EFFF5000
06B4A5C000
1E34A0C600
9A04A04FA0
0000000690
0000000690
ENDCHAR
STARTCHAR uni0498
ENCODING 1176
SWIDTH 593 0
DWIDTH 7 0
BBX 6 10 0 -2
BITMAP
07EEC3
5D206D
12006C
009FE3
00006C
22000F
6C217C
08FFB2
004C00
004C00
ENDCHAR
STARTCHAR uni0499
ENCODING 1177
SWIDTH 507 0
DWIDTH 6 0
BBX 5 8 0 -2
BITMAP
1BEE60
2414D0
02FF60
0003E0
5913E0
1AFF50
00B400
00B400
ENDCHAR
STARTCHAR uni049A
ENCODING 1178
SWIDTH 700 0
DWIDTH 8 0
BBX 8 10 0 -2
BITMAP
1F001D60
1F01C700
1F0B9000
1FFE1000
1F0B9000
1F01E400
1F004E10
1F0009F4
000000C4
000000C4
ENDCHAR
STARTCHAR uni049B
ENCODING 1179
SWIDTH 589 0
DWIDTH 6 0
BBX 7 8 0 -2
BITMAP
2D02D300
2D2D3000
2FF80000
2D2E2000
2D06C000
2D00BF30
00000C30
00000C30
ENDCHAR
STARTCHAR uni049C
ENCODING 1180
SWIDTH 629 0
DWIDTH 7 0
BBX 7 8 0 0
BITMAP
2E000D40
2E317A00
2E85D100
2FFFA000
2E85E200
2E219900
2E002F20
2E000A90
ENDCHAR
STARTCHAR uni049D
ENCODING 1181
SWIDTH 561 0
DWIDTH 6 0
BBX 6 6 0 0
BITMAP
3C1099
3C96C0
3FFF50
3C97C0
3C00C5
3C005D
ENDCHAR
STARTCHAR uni049E
ENCODING 1182
SWIDTH 652 0
DWIDTH 7 0
BBX 8 8 -1 0
BITMAP
00E101C7
1FFF6B90
00E1AB00
00EFF200
00E19A00
00E11D60
00E103E2
00E1007C
ENDCHAR
STARTCHAR uni049F
ENCODING 1183
SWIDTH 519 0
DWIDTH 6 0
BBX 7 9 -1 0
BITMAP
02D00000
5FFF1000
02D00000
02D03D20
02D2D300
02FF9000
02D2E200
02D07B00
02D00C60
ENDCHAR
STARTCHAR uni04A0
ENCODING 1184
SWIDTH 818 0
DWIDTH 9 0
BBX 9 8 0 0
BITMAP
AFFE001D50
001E01C700
001E0B8000
001FFE1000
001E0B8000
001E02E400
001E005D10
001E0009A0
ENDCHAR
STARTCHAR uni04A1
ENCODING 1185
SWIDTH 688 0
DWIDTH 8 0
BBX 8 6 0 0
BITMAP
AFF805C1
00785C10
007FF400
00786C00
00780B80
007802E3
ENDCHAR
STARTCHAR uni04A2
ENCODING 1186
SWIDTH 749 0
DWIDTH 8 0
BBX 8 10 0 -2
BITMAP
1E0002E0
1E0002E0
1E0002E0
1FFFFFE0
1E0002E0
1E0002E0
1E0002E0
1E0002FC
0000003C
0000003C
ENDCHAR
STARTCHAR uni04A3
ENCODING 1187
SWIDTH 605 0
DWIDTH 7 0
BBX 7 8 0 -2
BITMAP
2D008800
2D008800
2FFFF800
2D008800
2D008800
2D008F50
00000A50
00000A50
ENDCHAR
STARTCHAR uni04A4
ENCODING 1188
SWIDTH 976 0
DWIDTH 11 0
BBX 11 8 0 0
BITMAP
1E0002FFFF50
1E0002E00000
1E0002E00000
1FFFFFE00000
1E0002E00000
1E0002E00000
1E0002E00000
1E0002E00000
ENDCHAR
STARTCHAR uni04A5
ENCODING 1189
SWIDTH 712 0
DWIDTH 8 0
BBX 8 6 0 0
BITMAP
3C008FF7
3C008700
3FFFF700
3C008700
3C008700
3C008700
ENDCHAR
STARTCHAR uni04A6
ENCODING 1190
SWIDTH 1023 0
DWIDTH 11 0
BBX 11 10 0 -2
BITMAP
1FFFFFD00000
1F0003D00000
1F0003D00000
1F0003D00000
1F0003FFD600
1F0003D03D50
1F0003D00590
1F0003D005A0
000000001B70
00000000B900
ENDCHAR
STARTCHAR uni04A7
ENCODING 1191
SWIDTH 869 0
DWIDTH 10 0
BBX 10 8 0 -2
BITMAP
3FFFF70000
3C00870000
3C00870000
3C008FFC30
3C008705D0
3C008700D2
00000004E0
0000000D40
ENDCHAR
STARTCHAR uni04A8
ENCODING 1192
SWIDTH 741 0
DWIDTH 8 0
BBX 8 8 0 0
BITMAP
04D2AE90
1E46B1C5
4C0A5069
6A0B405A
5A0B505A
3D097078
0B94D4D2
01AEFFEB
ENDCHAR
STARTCHAR uni04A9
ENCODING 1193
SWIDTH 603 0
DWIDTH 7 0
BBX 7 6 0 0
BITMAP
097AE600
4C4D3E00
695A0E10
5A3B0E00
1E4A6A00
04DFFF50
ENDCHAR
STARTCHAR uni04AA
ENCODING 1194
SWIDTH 650 0
DWIDTH 7 0
BBX 7 10 0 -2
BITMAP
02BED700
0C812D50
3D000450
5A000000
5A000000
3D000450
0C712D40
02BFF700
000D2000
000D2000
ENDCHAR
STARTCHAR uni04AB
ENCODING 1195
SWIDTH 523 0
DWIDTH 6 0
BBX 6 8 0 -2
BITMAP
06EE70
3D21C3
780011
780000
3D21B4
06FF70
00A500
00A500
ENDCHAR
STARTCHAR uni04AC
ENCODING 1196
SWIDTH 596 0
DWIDTH 7 0
BBX 7 10 0 -2
BITMAP
BFFFFF50
004C0000
004C0000
004C0000
004C0000
004C0000
004C0000
004FA000
0005A000
0005A000
ENDCHAR
STARTCHAR uni04AD
ENCODING 1197
SWIDTH 480 0
DWIDTH 5 0
BBX 6 8 0 -2
BITMAP
CFFFF1
00D200
00D200
00D200
00D200
00DF00
000F00
000F00
ENDCHAR
STARTCHAR uni04AE
ENCODING 1198
SWIDTH 600 0
DWIDTH 7 0
BBX 7 8 0 0
BITMAP
A8000D30
2E106A00
0981D300
01E89000
008F2000
003C0000
003C0000
003C0000
ENDCHAR
STARTCHAR uni04AF
ENCODING 1199
SWIDTH 500 0
DWIDTH 6 0
BBX 6 8 0 -2
BITMAP
8700D2
3C03C0
0C2960
078D10
01EA00
00B500
00B400
00B400
ENDCHAR
STARTCHAR uni04B0
ENCODING 1200
SWIDTH 600 0
DWIDTH 7 0
BBX 7 8 0 0
BITMAP
A8000D30
2E106A00
0781D200
00C87000
06FFF000
003C0000
003C0000
003C0000
ENDCHAR
STARTCHAR uni04B1
ENCODING 1201
SWIDTH 500 0
DWIDTH 6 0
BBX 6 8 0 -2
BITMAP
8700D2
3C03C0
0C2860
077D10
01EA00
0DFF80
00B400
00B400
ENDCHAR
STARTCHAR uni04B2
ENCODING 1202
SWIDTH 636 0
DWIDTH 7 0
BBX 7 10 0 -2
BITMAP
5D001E40
0B709900
02E5E100
007F6000
007F6000
02E4E100
0B708A00
6C001FF0
000003C0
000003C0
ENDCHAR
STARTCHAR uni04B3
ENCODING 1203
SWIDTH 520 0
DWIDTH 6 0
BBX 6 8 0 -2
BITMAP
6B05C0
0B5D30
02E800
03E900
0C4C40
7A04F8
000078
000078
ENDCHAR
STARTCHAR uni04B4
ENCODING 1204
SWIDTH 896 0
DWIDTH 10 0
BBX 9 10 0 -2
BITMAP
BFFFF60C30
00B5000C30
00B5000C30
00B5000C30
00B5000C30
00B5000C30
00B5000C30
00BFFFFFF0
00000000F0
00000000E0
ENDCHAR
STARTCHAR uni04B5
ENCODING 1205
SWIDTH 669 0
DWIDTH 7 0
BBX 7 8 0 -2
BITMAP
CFFF0A50
05900A50
05900A50
05900A50
05900A50
05FFFFF0
000000E0
000000D0
ENDCHAR
STARTCHAR uni04B6
ENCODING 1206
SWIDTH 716 0
DWIDTH 8 0
BBX 8 10 0 -2
BITMAP
3D000790
3D000790
3D000790
1E401990
05DFED90
00000790
00000790
000007F6
00000096
00000096
ENDCHAR
STARTCHAR uni04B7
ENCODING 1207
SWIDTH 573 0
DWIDTH 6 0
BBX 6 8 0 -2
BITMAP
7800D2
7800D2
5C11D2
0AEEF2
0000D2
0000DF
00000F
00000F
ENDCHAR
STARTCHAR uni04B8
ENCODING 1208
SWIDTH 679 0
DWIDTH 7 0
BBX 7 8 0 0
BITMAP
3D000790
3D000790
3D052790
1E385990
06DFED90
00084790
00021790
00000790
ENDCHAR
STARTCHAR uni04B9
ENCODING 1209
SWIDTH 551 0
DWIDTH 6 0
BBX 6 6 0 0
BITMAP
4B00B4
4B24B4
3E78B4
08EFE4
0035B4
0000B4
ENDCHAR
STARTCHAR uni04BA
ENCODING 1210
SWIDTH 679 0
DWIDTH 7 0
BBX 7 8 0 0
BITMAP
4C000000
4C000000
4C000000
4EDFE900
4C202C50
4C000870
4C000880
4C000880
ENDCHAR
STARTCHAR uni04BB
ENCODING 1211
SWIDTH 550 0
DWIDTH 6 0
BBX 6 8 0 0
BITMAP
4B0000
4B0000
4CBEA0
4E31D4
4B00A5
4B00A5
4B00A5
4B00A5
ENDCHAR
STARTCHAR uni04BC
ENCODING 1212
SWIDTH 772 0
DWIDTH 9 0
BBX 8 8 0 0
BITMAP
0009EE80
319B11A7
88E3003B
1BFFFFFD
00E20000
00C40000
006C3032
0007DEC3
ENDCHAR
STARTCHAR uni04BD
ENCODING 1213
SWIDTH 592 0
DWIDTH 7 0
BBX 7 6 -1 0
BITMAP
011AEC30
1CB704C0
07FFFFF0
00C30000
008A1260
0019ED50
ENDCHAR
STARTCHAR uni04BE
ENCODING 1214
SWIDTH 772 0
DWIDTH 9 0
BBX 8 10 0 -2
BITMAP
0009EE80
319B11A7
88E3003B
1BFFFFFD
00E20000
00C40000
006C3032
0007FFC3
00004B00
00004B00
ENDCHAR
STARTCHAR uni04BF
ENCODING 1215
SWIDTH 592 0
DWIDTH 7 0
BBX 7 8 -1 -2
BITMAP
011AEC30
1CB704C0
07FFFFF0
00C30000
008A1260
0019FF50
0000B400
0000B400
ENDCHAR
STARTCHAR uni04C0
ENCODING 1216
SWIDTH 271 0
DWIDTH 3 0
BBX 1 8 1 0
BITMAP
F0
F0
F0
F0
F0
F0
F0
F0
ENDCHAR
STARTCHAR uni04C1
ENCODING 1217
SWIDTH 907 0
DWIDTH 10 0
BBX 10 11 0 0
BITMAP
0008668000
0002DD2000
0000000000
4D107800C5
0890780890
00C4784D10
006FFFF700
00D5785D10
07C0780B70
1E407803E2
9B007800A9
ENDCHAR
STARTCHAR uni04C2
ENCODING 1218
SWIDTH 765 0
DWIDTH 8 0
BBX 9 9 0 0
BITMAP
00593B0000
001CE40000
0000000000
5D14A08A00
08A4A4D100
00EFFF5000
06B4A5C000
1E34A0C600
9A04A04E10
ENDCHAR
STARTCHAR uni04C3
ENCODING 1219
SWIDTH 629 0
DWIDTH 7 0
BBX 7 10 0 -2
BITMAP
2E002D30
2E02D400
2E1C5000
2FFFC300
2E005E10
2E000960
2E000780
2E000870
00002D30
0000E700
ENDCHAR
STARTCHAR uni04C4
ENCODING 1220
SWIDTH 543 0
DWIDTH 6 0
BBX 6 7 0 -1
BITMAP
3C03C3
3C3C20
3FFE80
3C02C5
3C0078
3C01C5
000880
ENDCHAR
STARTCHAR uni04C5
ENCODING 1221
SWIDTH 749 0
DWIDTH 8 0
BBX 8 10 0 -2
BITMAP
00FFFFC0
01E003C0
02E003C0
02D003C0
03C003C0
05B003C0
1B7003D2
BB1003FC
0000005A
00000083
ENDCHAR
STARTCHAR uni04C6
ENCODING 1222
SWIDTH 616 0
DWIDTH 7 0
BBX 7 8 0 -2
BITMAP
06FFF800
07807800
08707800
09607800
1D307910
BA007F70
00000950
00000A10
ENDCHAR
STARTCHAR uni04C7
ENCODING 1223
SWIDTH 711 0
DWIDTH 8 0
BBX 7 10 0 -2
BITMAP
1F0003D0
1F0003D0
1F0003D0
1FFFFFD0
1F0003D0
1F0003D0
1F0003D0
1F0003D0
000005C0
00007E50
ENDCHAR
STARTCHAR uni04C8
ENCODING 1224
SWIDTH 566 0
DWIDTH 6 0
BBX 6 8 0 -2
BITMAP
3C0087
3C0087
3FFFF7
3C0087
3C0087
3C0087
0000B6
000CC1
ENDCHAR
STARTCHAR uni04C9
ENCODING 1225
SWIDTH 758 0
DWIDTH 8 0
BBX 8 10 0 -2
BITMAP
1E0002E0
1E0002E0
1E0002E0
1FFFFFE0
1E0002E0
1E0002E0
1E0002E2
1E0002FD
0000003B
00000064
ENDCHAR
STARTCHAR uni04CA
ENCODING 1226
SWIDTH 615 0
DWIDTH 7 0
BBX 7 8 0 -2
BITMAP
2D008800
2D008800
2FFFF800
2D008800
2D008910
2D008F70
00000950
00000A00
ENDCHAR
STARTCHAR uni04CB
ENCODING 1227
SWIDTH 684 0
DWIDTH 8 0
BBX 7 10 0 -2
BITMAP
3D000790
3D000790
3D000790
1E401990
05DFED90
00000790
00000790
00005F90
00005A00
00005A00
ENDCHAR
STARTCHAR uni04CC
ENCODING 1228
SWIDTH 543 0
DWIDTH 6 0
BBX 6 8 0 -2
BITMAP
7800D2
7800D2
5C11D2
0AEEF2
0000D2
000CF2
000C40
000C40
ENDCHAR
STARTCHAR uni04CD
ENCODING 1229
SWIDTH 913 0
DWIDTH 10 0
BBX 10 10 0 -2
BITMAP
1F60000DA0
1EC0003EA0
1DC3009AA0
1D6901D5A0
1E1D1695A0
1E096C35A0
1E03DC05B2
1E00C605F9
0000000077
0000000091
ENDCHAR
STARTCHAR uni04CE
ENCODING 1230
SWIDTH 780 0
DWIDTH 9 0
BBX 9 8 0 -2
BITMAP
2F5002F500
2EB008F500
2DB31DB500
2D5968A500
2D0DD2A610
2D07A0AF40
0000000C30
0000001A00
ENDCHAR
STARTCHAR uni04CF
ENCODING 1231
SWIDTH 271 0
DWIDTH 3 0
BBX 1 8 1 0
BITMAP
F0
F0
F0
F0
F0
F0
F0
F0
ENDCHAR
STARTCHAR uni04D0
ENCODING 1232
SWIDTH 652 0
DWIDTH 7 0
BBX 7 11 0 0
BITMAP
00D1B200
006E9000
00000000
001F3000
006C9000
00C3D100
02C09500
08704B00
0EFFFF20
4C000970
A60003D0
ENDCHAR
STARTCHAR uni04D1
ENCODING 1233
SWIDTH 543 0
DWIDTH 6 0
BBX 6 9 0 0
BITMAP
0684A0
01CE30
000000
09EE70
2611D1
08EFF3
4C20C3
5B14E3
0AEBC4
ENDCHAR
STARTCHAR uni04D2
ENCODING 1234
SWIDTH 652 0
DWIDTH 7 0
BBX 7 11 0 0
BITMAP
00101000
00D0A400
00000000
001F3000
006C9000
00C3D100
02C09500
08704B00
0EFFFF20
4C000970
A60003D0
ENDCHAR
STARTCHAR uni04D3
ENCODING 1235
SWIDTH 543 0
DWIDTH 6 0
BBX 6 9 0 0
BITMAP
000010
0773B0
000000
09EE70
2611D1
08EFF3
4C20C3
5B14E3
0AEBC4
ENDCHAR
STARTCHAR uni04D4
ENCODING 1236
SWIDTH 934 0
DWIDTH 10 0
BBX 11 8 0 0
BITMAP
0000AFFFFC00
0004CE100000
000C4D200000
006A0DFFF500
01D20C300000
09FFFF400000
3E100B400000
C6000AFFFF10
ENDCHAR
STARTCHAR uni04D5
ENCODING 1237
SWIDTH 844 0
DWIDTH 9 0
BBX 9 6 0 0
BITMAP
1BED5AEC30
2512F605B0
1BEFFFFFE0
7A10F10000
7915F91120
2CEC4AED60
ENDCHAR
STARTCHAR uni04D6
ENCODING 1238
SWIDTH 568 0
DWIDTH 6 0
BBX 6 11 0 0
BITMAP
03B1C0
00AE60
000000
1FFFFC
1E0000
1E0000
1FFFF5
1E0000
1E0000
1E0000
1FFFFD
ENDCHAR
STARTCHAR uni04D7
ENCODING 1239
SWIDTH 529 0
DWIDTH 6 0
BBX 6 9 0 0
BITMAP
086590
02DD20
000000
06DE70
3C22C3
7FFFF6
790000
3E3161
06DEA1
ENDCHAR
STARTCHAR uni04D8
ENCODING 1240
SWIDTH 690 0
DWIDTH 8 0
BBX 7 8 0 0
BITMAP
06DFD600
03214D50
000005B0
000002E0
7FFFFFE0
690003C0
1D412C50
03BED600
ENDCHAR
STARTCHAR uni04D9
ENCODING 1241
SWIDTH 526 0
DWIDTH 6 0
BBX 6 6 0 0
BITMAP
1BED40
0314E1
0000B5
7FFFF5
4B12D1
09ED40
ENDCHAR
STARTCHAR uni04DA
ENCODING 1242
SWIDTH 690 0
DWIDTH 8 0
BBX 7 11 0 0
BITMAP
00101000
03B0D100
00000000
06DFD600
03214D50
000005B0
000002E0
7FFFFFE0
690003C0
1D412C50
03BED600
ENDCHAR
STARTCHAR uni04DB
ENCODING 1243
SWIDTH 526 0
DWIDTH 6 0
BBX 6 9 0 0
BITMAP
010010
095590
000000
1BED40
0314E1
0000B5
7FFFF5
4B12D1
09ED40
ENDCHAR
STARTCHAR uni04DC
ENCODING 1244
SWIDTH 907 0
DWIDTH 10 0
BBX 10 11 0 0
BITMAP
0001001000
0009549000
0000000000
4D107800C5
0890780890
00C4784D10
006FFFF700
00D5785D10
07C0780B70
1E407803E2
9B007800A9
ENDCHAR
STARTCHAR uni04DD
ENCODING 1245
SWIDTH 765 0
DWIDTH 8 0
BBX 9 9 0 0
BITMAP
0000010000
00672C0000
0000000000
5D14A08A00
08A4A4D100
00EFFF5000
06B4A5C000
1E34A0C600
9A04A04E10
ENDCHAR
STARTCHAR uni04DE
ENCODING 1246
SWIDTH 593 0
DWIDTH 7 0
BBX 6 11 0 0
BITMAP
001010
0591D0
000000
07EEC3
5D206D
12006C
009FE3
00006C
22000F
6C217C
08EEB2
ENDCHAR
STARTCHAR uni04DF
ENCODING 1247
SWIDTH 507 0
DWIDTH 6 0
BBX 5 9 0 0
BITMAP
010000
0C2860
000000
1BEE60
2414D0
02FF60
0003E0
5913E0
1AED50
ENDCHAR
STARTCHAR uni04E0
ENCODING 1248
SWIDTH 582 0
DWIDTH 6 0
BBX 6 8 0 0
BITMAP
3FFFF7
0004B1
005B10
00CEA1
0001A8
23005A
4D21A8
08EEA1
ENDCHAR
STARTCHAR uni04E1
ENCODING 1249
SWIDTH 582 0
DWIDTH 6 0
BBX 6 8 0 -2
BITMAP
3FFFF7
0005B1
005B10
00CE91
0001A7
22005A
4D21A7
07EE91
ENDCHAR
STARTCHAR uni04E2
ENCODING 1250
SWIDTH 712 0
DWIDTH 8 0
BBX 7 10 0 0
BITMAP
00DFFC00
00000000
1F0007D0
1F002ED0
1F00B9D0
1F05C2D0
1F1D32D0
1F9802D0
1FD102D0
1F4002D0
ENDCHAR
STARTCHAR uni04E3
ENCODING 1251
SWIDTH 577 0
DWIDTH 6 0
BBX 6 8 0 0
BITMAP
09FFF0
000000
2C00C8
2C06E8
2C1D88
2CA578
2EB078
2F2078
ENDCHAR
STARTCHAR uni04E4
ENCODING 1252
SWIDTH 712 0
DWIDTH 8 0
BBX 7 11 0 0
BITMAP
00100100
00A45900
00000000
1F0007D0
1F002ED0
1F00B9D0
1F05C2D0
1F1D32D0
1F9802D0
1FD102D0
1F4002D0
ENDCHAR
STARTCHAR uni04E5
ENCODING 1253
SWIDTH 577 0
DWIDTH 6 0
BBX 6 9 0 0
BITMAP
000010
0772C0
000000
2C00C8
2C06E8
2C1D88
2CA578
2EB078
2F2078
ENDCHAR
STARTCHAR uni04E6
ENCODING 1254
SWIDTH 687 0
DWIDTH 8 0
BBX 7 11 0 0
BITMAP
00100000
00C28600
00000000
01AED700
0C813D50
3D0005B0
5A0002D0
5A0002D0
3D0005B0
0C813C60
02BED700
ENDCHAR
STARTCHAR uni04E7
ENCODING 1255
SWIDTH 570 0
DWIDTH 6 0
BBX 6 9 0 0
BITMAP
000010
0863B0
000000
06DE80
3E31B6
78004B
78004B
3D31B7
06DE90
ENDCHAR
STARTCHAR uni04E8
ENCODING 1256
SWIDTH 680 0
DWIDTH 7 0
BBX 7 8 0 0
BITMAP
02BED600
0D512C40
4A0004A0
6FFFFFC0
6A0004C0
4D0007A0
0D814E40
02BED600
ENDCHAR
STARTCHAR uni04E9
ENCODING 1257
SWIDTH 567 0
DWIDTH 6 0
BBX 6 6 0 0
BITMAP
06DE80
3C2196
7FFFFB
79005B
3E32C7
06DE90
ENDCHAR
STARTCHAR uni04EA
ENCODING 1258
SWIDTH 680 0
DWIDTH 7 0
BBX 7 11 0 0
BITMAP
00100000
00B37700
00000000
02BED600
0D512C40
4A0004A0
6FFFFFC0
6A0004C0
4D0007A0
0D814E40
02BED600
ENDCHAR
STARTCHAR uni04EB
ENCODING 1259
SWIDTH 567 0
DWIDTH 6 0
BBX 6 9 0 0
BITMAP
010010
095490
000000
06DE80
3C2196
7FFFFB
79005B
3E32C7
06DE90
ENDCHAR
STARTCHAR uni04EC
ENCODING 1260
SWIDTH 673 0
DWIDTH 7 0
BBX 7 11 0 0
BITMAP
00101000
00D19500
00000000
03BED600
0D613C40
190005A0
004FFFC0
000004C0
180007A0
0D614E40
02BED600
ENDCHAR
STARTCHAR uni04ED
ENCODING 1261
SWIDTH 537 0
DWIDTH 6 0
BBX 6 9 0 0
BITMAP
010010
0A4590
000000
19ED40
3612C1
00DFF4
1100C4
5B14E1
09ED40
ENDCHAR
STARTCHAR uni04EE
ENCODING 1262
SWIDTH 628 0
DWIDTH 7 0
BBX 7 10 0 0
BITMAP
05FFF400
00000000
5C000C60
0D303E10
07A09800
01E2E200
008DA000
002F4000
005D0000
09D40000
ENDCHAR
STARTCHAR uni04EF
ENCODING 1263
SWIDTH 473 0
DWIDTH 5 0
BBX 5 10 0 -2
BITMAP
1FFF80
000000
A602D0
5B0780
0E1C30
098C00
04F700
00E200
04B000
8D3000
ENDCHAR
STARTCHAR uni04F0
ENCODING 1264
SWIDTH 628 0
DWIDTH 7 0
BBX 7 11 0 0
BITMAP
00101000
02C0C200
00000000
5C000C60
0D303E10
07A09800
01E2E200
008DA000
002F4000
005D0000
09D40000
ENDCHAR
STARTCHAR uni04F1
ENCODING 1265
SWIDTH 473 0
DWIDTH 5 0
BBX 5 11 0 -2
BITMAP
010100
0D1950
000000
A602D0
5B0780
0E1C30
098C00
04F700
00E200
04B000
8D3000
ENDCHAR
STARTCHAR uni04F2
ENCODING 1266
SWIDTH 628 0
DWIDTH 7 0
BBX 7 11 0 0
BITMAP
004C8900
0095C100
00000000
5C000C60
0D303E10
07A09800
01E2E200
008DA000
002F4000
005D0000
09D40000
ENDCHAR
STARTCHAR uni04F3
ENCODING 1267
SWIDTH 473 0
DWIDTH 5 0
BBX 6 11 0 -2
BITMAP
01D6D1
057B30
000000
A602D0
5B0780
0E1C30
098C00
04F700
00E200
04B000
8D3000
ENDCHAR
STARTCHAR uni04F4
ENCODING 1268
SWIDTH 684 0
DWIDTH 8 0
BBX 7 11 0 0
BITMAP
00101000
00D19500
00000000
3D000790
3D000790
3D000790
1E401990
05DFED90
00000790
00000790
00000790
ENDCHAR
STARTCHAR uni04F5
ENCODING 1269
SWIDTH 543 0
DWIDTH 6 0
BBX 6 9 0 0
BITMAP
010000
0C2770
000000
7800D2
7800D2
5C11D2
0AEEF2
0000D2
0000D2
ENDCHAR
STARTCHAR uni04F6
ENCODING 1270
SWIDTH 556 0
DWIDTH 6 0
BBX 6 10 0 -2
BITMAP
1FFFFC
1F0000
1F0000
1F0000
1F0000
1F0000
1F0000
1FC000
03C000
03C000
ENDCHAR
STARTCHAR uni04F7
ENCODING 1271
SWIDTH 419 0
DWIDTH 5 0
BBX 5 8 0 -2
BITMAP
3FFF80
3C0000
3C0000
3C0000
3C0000
3FA000
05A000
05A000
ENDCHAR
STARTCHAR uni04F8
ENCODING 1272
SWIDTH 864 0
DWIDTH 10 0
BBX 9 11 0 0
BITMAP
0001000000
000C286000
0000000000
1F00000880
1F00000880
1F00000880
1FFFE80880
1F002D5880
1F00087880
1F002D4880
1FFFE80880
ENDCHAR
STARTCHAR uni04F9
ENCODING 1273
SWIDTH 776 0
DWIDTH 9 0
BBX 8 9 0 0
BITMAP
00000100
00681C00
00000000
2D000078
2D000078
2FFEA078
2D01B678
2D01B678
2FFEA078
ENDCHAR
STARTCHAR uni04FA
ENCODING 1274
SWIDTH 589 0
DWIDTH 6 0
BBX 7 10 0 -2
BITMAP
0AFFFF20
0A500000
0A500000
0A500000
AFFB0000
0A500000
0A500000
0AF30000
01D30000
1EA00000
ENDCHAR
STARTCHAR uni04FB
ENCODING 1275
SWIDTH 458 0
DWIDTH 5 0
BBX 5 8 0 -2
BITMAP
0BFFE0
0B4000
0B4000
AFFB00
0B4000
0BF200
01E100
2E9000
ENDCHAR
STARTCHAR uni04FC
ENCODING 1276
SWIDTH 647 0
DWIDTH 7 0
BBX 7 10 0 -2
BITMAP
5D001E40
0B709900
02E5E100
007F6000
007F6000
02E4E100
0B708A00
6C001EF0
000003D0
00005E70
ENDCHAR
STARTCHAR uni04FD
ENCODING 1277
SWIDTH 531 0
DWIDTH 6 0
BBX 6 8 0 -2
BITMAP
6B05C0
0B5D30
02E800
03E900
0C4C40
7A04FA
000089
0009D3
ENDCHAR
STARTCHAR uni04FE
ENCODING 1278
SWIDTH 626 0
DWIDTH 7 0
BBX 7 8 0 0
BITMAP
4D001D30
08709700
00B5B000
04FFF300
00AF9000
04E4F300
0C708B00
6C001D50
ENDCHAR
STARTCHAR uni04FF
ENCODING 1279
SWIDTH 495 0
DWIDTH 5 0
BBX 6 6 0 0
BITMAP
5B05B0
085B10
0FFF70
05EC00
1D4C50
7A04D1
ENDCHAR
STARTCHAR uni0500
ENCODING 1280
SWIDTH 620 0
DWIDTH 7 0
BBX 7 8 0 0
BITMAP
00000F10
00000F10
00000F10
08EFFF10
5D200F10
78000F10
4D200F10
08EFFF10
ENDCHAR
STARTCHAR uni0501
ENCODING 1281
SWIDTH 563 0
DWIDTH 6 0
BBX 6 8 0 0
BITMAP
000096
000096
07EDC6
3D22C6
690096
680096
3D22C6
07EDB6
ENDCHAR
STARTCHAR uni0502
ENCODING 1282
SWIDTH 822 0
DWIDTH 9 0
BBX 9 8 0 0
BITMAP
00000F1000
00000F1000
00000F1000
08EFFF1110
4D200F1690
78000F14B0
4D200F1990
07EFFFFB10
ENDCHAR
STARTCHAR uni0503
ENCODING 1283
SWIDTH 861 0
DWIDTH 9 0
BBX 9 9 0 0
BITMAP
0000A50000
0000A50000
0000A50000
07ECC50110
2E32C50590
6900A503C0
6900A504C0
3D22C91A80
08EC5DEA10
ENDCHAR
STARTCHAR uni0504
ENCODING 1284
SWIDTH 791 0
DWIDTH 9 0
BBX 8 8 0 0
BITMAP
BFEB2000
0018A000
0003D012
0018903C
0AFE201E
0008B02E
0003E18A
0000BFB2
ENDCHAR
STARTCHAR uni0505
ENCODING 1285
SWIDTH 645 0
DWIDTH 7 0
BBX 7 6 0 0
BITMAP
BFD50000
004E0110
003D0690
4FF704B0
002F1980
000BFB10
ENDCHAR
STARTCHAR uni0506
ENCODING 1286
SWIDTH 535 0
DWIDTH 6 0
BBX 6 10 0 -2
BITMAP
8FE900
002C50
000780
002C40
1FFB00
001B60
000791
0005F7
0000A5
0000A0
ENDCHAR
STARTCHAR uni0507
ENCODING 1287
SWIDTH 503 0
DWIDTH 6 0
BBX 6 8 0 -2
BITMAP
5FEA00
001B60
001B50
0EFC10
000A60
0007F4
0000C3
0001A0
ENDCHAR
STARTCHAR uni0508
ENCODING 1288
SWIDTH 969 0
DWIDTH 11 0
BBX 11 8 0 0
BITMAP
00EFFFB00000
00E104B00000
00F004B00200
01F004B00E00
01E004B00D20
03C004B00D20
199003E16D00
AC2000AFC300
ENDCHAR
STARTCHAR uni0509
ENCODING 1289
SWIDTH 807 0
DWIDTH 9 0
BBX 9 6 0 0
BITMAP
05FFF60000
0690960830
0680960870
0870960780
1C50891C40
AB002DE900
ENDCHAR
STARTCHAR uni050A
ENCODING 1290
SWIDTH 997 0
DWIDTH 11 0
BBX 11 8 0 0
BITMAP
1E0004B00000
1E0004B00000
1E0004B00200
1FFFFFB00E00
1E0004B00D20
1E0004B00D20
1E0002E16D00
1E00009ED300
ENDCHAR
STARTCHAR uni050B
ENCODING 1291
SWIDTH 828 0
DWIDTH 9 0
BBX 9 6 0 0
BITMAP
3C00870000
3C00870750
3FFFF70690
3C00870690
3C006B1B60
3C001CE900
ENDCHAR
STARTCHAR uni050C
ENCODING 1292
SWIDTH 620 0
DWIDTH 7 0
BBX 7 8 0 0
BITMAP
02BED500
0D712200
4D000000
5A000400
5A000C30
4D000B50
0D813E30
02BED600
ENDCHAR
STARTCHAR uni050D
ENCODING 1293
SWIDTH 514 0
DWIDTH 6 0
BBX 6 6 0 0
BITMAP
06EE60
2E3110
690000
6900D2
2E31E2
05DE90
ENDCHAR
STARTCHAR uni050E
ENCODING 1294
SWIDTH 709 0
DWIDTH 8 0
BBX 8 8 0 0
BITMAP
CFFFFF60
004C0000
004C0020
004C00E1
004C00C3
004C00D3
003E15E0
000AFD30
ENDCHAR
STARTCHAR uni050F
ENCODING 1295
SWIDTH 640 0
DWIDTH 7 0
BBX 7 6 0 0
BITMAP
9FFFF400
00B40200
00B40A50
00B40870
00981C40
003DE800
ENDCHAR
STARTCHAR uni0510
ENCODING 1296
SWIDTH 673 0
DWIDTH 7 0
BBX 7 8 0 0
BITMAP
04CEE910
0E511A90
0D400120
03EFC000
0D510000
2D000140
0D6119A0
03BEEA10
ENDCHAR
STARTCHAR uni0511
ENCODING 1297
SWIDTH 539 0
DWIDTH 6 0
BBX 6 6 0 0
BITMAP
1BEE90
4C2151
0CFF00
5B1000
5B12A4
09EE90
ENDCHAR
STARTCHAR uni0512
ENCODING 1298
SWIDTH 750 0
DWIDTH 8 0
BBX 8 10 0 -2
BITMAP
00FFFFC0
01E003C0
02E003C0
02D003C0
03C003C0
05B003C0
1B7003C0
BB1003FC
0000005B
000007E5
ENDCHAR
STARTCHAR uni0513
ENCODING 1299
SWIDTH 618 0
DWIDTH 7 0
BBX 7 8 0 -2
BITMAP
06FFF800
07807800
08707800
09607800
1D307800
BA007F80
00000A70
0000BD20
ENDCHAR
STARTCHAR uni1E00
ENCODING 7680
SWIDTH 652 0
DWIDTH 7 0
BBX 7 11 0 -3
BITMAP
001F3000
006C9000
00C3D100
02C09500
08704B00
0EFFFF20
4C000970
A60003D0
00000000
00295000
00295000
ENDCHAR
STARTCHAR uni1E01
ENCODING 7681
SWIDTH 543 0
DWIDTH 6 0
BBX 6 9 0 -3
BITMAP
09EE70
2611D1
08EFF3
4C20C3
5B14E3
0AEBC4
000000
029500
029500
ENDCHAR
STARTCHAR uni1E3E
ENCODING 7742
SWIDTH 873 0
DWIDTH 10 0
BBX 9 11 0 0
BITMAP
00002E2000
0000760000
0000000000
1F60000DA0
1EC0003EA0
1DC3009AA0
1D6901D5A0
1E1D1695A0
1E096C35A0
1E03DC05A0
1E00C605A0
ENDCHAR
STARTCHAR uni1E3F
ENCODING 7743
SWIDTH 876 0
DWIDTH 10 0
BBX 9 9 0 0
BITMAP
00001D3000
0000670000
0000000000
4CBE96EE50
4E31DA15C0
4B00A501D0
4B00A501D0
4B00A501D0
4B00A501D0
ENDCHAR
STARTCHAR Wgrave
ENCODING 7808
SWIDTH 887 0
DWIDTH 10 0
BBX 10 11 0 0
BITMAP
0005C00000
0000A40000
0000000000
8700980096
5A00DC00D2
1E03BC11E0
0D277854A0
096B249870
069D01DB30
02E900BE00
00E4007B00
ENDCHAR
STARTCHAR wgrave
ENCODING 7809
SWIDTH 751 0
DWIDTH 8 0
BBX 8 9 0 0
BITMAP
003D1000
00086000
00000000
9507A02D
590BD059
1D1B9495
0C7748C1
08E30DB0
03D00A70
ENDCHAR
STARTCHAR Wacute
ENCODING 7810
SWIDTH 887 0
DWIDTH 10 0
BBX 10 11 0 0
BITMAP
00001D4000
0000580000
0000000000
8700980096
5A00DC00D2
1E03BC11E0
0D277854A0
096B249870
069D01DB30
02E900BE00
00E4007B00
ENDCHAR
STARTCHAR wacute
ENCODING 7811
SWIDTH 751 0
DWIDTH 8 0
BBX 8 9 0 0
BITMAP
0000B700
0003A000
00000000
9507A02D
590BD059
1D1B9495
0C7748C1
08E30DB0
03D00A70
ENDCHAR
STARTCHAR Wdieresis
ENCODING 7812
SWIDTH 887 0
DWIDTH 10 0
BBX 10 11 0 0
BITMAP
0001001000
000A459000
0000000000
8700980096
5A00DC00D2
1E03BC11E0
0D277854A0
096B249870
069D01DB30
02E900BE00
00E4007B00
ENDCHAR
STARTCHAR wdieresis
ENCODING 7813
SWIDTH 751 0
DWIDTH 8 0
BBX 8 9 0 0
BITMAP
00000100
00863B00
00000000
9507A02D
590BD059
1D1B9495
0C7748C1
08E30DB0
03D00A70
ENDCHAR
STARTCHAR uni1EA0
ENCODING 7840
SWIDTH 652 0
DWIDTH 7 0
BBX 7 11 0 -3
BITMAP
001F3000
006C9000
00C3D100
02C09500
08704B00
0EFFFF20
4C000970
A60003D0
00000000
000C2000
00010000
ENDCHAR
STARTCHAR uni1EA1
ENCODING 7841
SWIDTH 543 0
DWIDTH 6 0
BBX 6 9 0 -3
BITMAP
09EE70
2611D1
08EFF3
4C20C3
5B14E3
0AEBC4
000000
00C200
001000
ENDCHAR
STARTCHAR uni1EA2
ENCODING 7842
SWIDTH 652 0
DWIDTH 7 0
BBX 7 12 0 0
BITMAP
00086000
0004B000
000B3000
00000000
001F3000
006C9000
00C3D100
02C09500
08704B00
0EFFFF20
4C000970
A60003D0
ENDCHAR
STARTCHAR uni1EA3
ENCODING 7843
SWIDTH 543 0
DWIDTH 6 0
BBX 6 10 0 0
BITMAP
003B10
001A40
003A00
000000
09EE70
2611D1
08EFF3
4C20C3
5B14E3
0AEBC4
ENDCHAR
STARTCHAR uni1EA4
ENCODING 7844
SWIDTH 652 0
DWIDTH 7 0
BBX 7 12 0 0
BITMAP
000005B0
005E8830
01C3C400
00000000
001F3000
006C9000
00C3D100
02C09500
08704B00
0EFFFF20
4C000970
A60003D0
ENDCHAR
STARTCHAR uni1EA5
ENCODING 7845
SWIDTH 543 0
DWIDTH 6 0
BBX 7 10 0 0
BITMAP
00000C40
01BD4A00
0795A000
00000000
09EE7000
2611D100
08EFF300
4C20C300
5B14E300
0AEBC400
ENDCHAR
STARTCHAR uni1EA6
ENCODING 7846
SWIDTH 652 0
DWIDTH 7 0
BBX 7 12 0 0
BITMAP
88000000
1B5E8000
01C3C300
00000000
001F3000
006C9000
00C3D100
02C09500
08704B00
0EFFFF20
4C000970
A60003D0
ENDCHAR
STARTCHAR uni1EA7
ENCODING 7847
SWIDTH 543 0
DWIDTH 6 0
BBX 7 10 -1 0
BITMAP
1D100000
075BD200
00785A00
00000000
009EE700
02611D10
008EFF30
04C20C30
05B14E30
00AEBC40
ENDCHAR
STARTCHAR uni1EA8
ENCODING 7848
SWIDTH 652 0
DWIDTH 7 0
BBX 7 14 0 0
BITMAP
00000930
00000760
00000B10
006D9000
02C1A400
00000000
001F3000
006C9000
00C3D100
02C09500
08704B00
0EFFFF20
4C000970
A60003D0
ENDCHAR
STARTCHAR uni1EA9
ENCODING 7849
SWIDTH 543 0
DWIDTH 6 0
BBX 6 12 0 0
BITMAP
000048
00002B
000066
01CC30
0863B0
000000
09EE70
2611D1
08EFF3
4C20C3
5B14E3
0AEBC4
ENDCHAR
STARTCHAR uni1EAA
ENCODING 7850
SWIDTH 652 0
DWIDTH 7 0
BBX 7 13 0 0
BITMAP
00797000
0077A000
005D7000
02C1B400
00000000
001F3000
006C9000
00C3D100
02C09500
08704B00
0EFFFF20
4C000970
A60003D0
ENDCHAR
STARTCHAR uni1EAB
ENCODING 7851
SWIDTH 543 0
DWIDTH 6 0
BBX 6 11 0 0
BITMAP
01D360
035C30
01BC20
0774A0
000000
09EE70
2611D1
08EFF3
4C20C3
5B14E3
0AEBC4
ENDCHAR
STARTCHAR uni1EAC
ENCODING 7852
SWIDTH 652 0
DWIDTH 7 0
BBX 7 14 0 -3
BITMAP
003E5000
00A3B100
00000000
001F3000
006C9000
00C3D100
02C09500
08704B00
0EFFFF20
4C000970
A60003D0
00000000
000C2000
00010000
ENDCHAR
STARTCHAR uni1EAD
ENCODING 7853
SWIDTH 543 0
DWIDTH 6 0
BBX 6 12 0 -3
BITMAP
009C10
049670
000000
09EE70
2611D1
08EFF3
4C20C3
5B14E3
0AEBC4
000000
00C200
001000
ENDCHAR
STARTCHAR uni1EAE
ENCODING 7854
SWIDTH 652 0
DWIDTH 7 0
BBX 7 13 0 0
BITMAP
00057000
00081000
00D1C200
007E9000
00000000
001F3000
006C9000
00C3D100
02C09500
08704B00
0EFFFF20
4C000970
A60003D0
ENDCHAR
STARTCHAR uni1EAF
ENCODING 7855
SWIDTH 543 0
DWIDTH 6 0
BBX 6 11 0 0
BITMAP
000B10
001700
0774A0
01CD30
000000
09EE70
2611D1
08EFF3
4C20C3
5B14E3
0AEBC4
ENDCHAR
STARTCHAR uni1EB0
ENCODING 7856
SWIDTH 652 0
DWIDTH 7 0
BBX 7 13 0 0
BITMAP
00480000
00090000
00D1C200
007E9000
00000000
001F3000
006C9000
00C3D100
02C09500
08704B00
0EFFFF20
4C000970
A60003D0
ENDCHAR
STARTCHAR uni1EB1
ENCODING 7857
SWIDTH 543 0
DWIDTH 6 0
BBX 6 11 0 0
BITMAP
00B100
004400
0774A0
01CD30
000000
09EE70
2611D1
08EFF3
4C20C3
5B14E3
0AEBC4
ENDCHAR
STARTCHAR uni1EB2
ENCODING 7858
SWIDTH 652 0
DWIDTH 7 0
BBX 7 14 0 0
BITMAP
00076000
0006A000
000B2000
00D1C100
007E8000
00000000
001F3000
006C9000
00C3D100
02C09500
08704B00
0EFFFF20
4C000970
A60003D0
ENDCHAR
STARTCHAR uni1EB3
ENCODING 7859
SWIDTH 543 0
DWIDTH 6 0
BBX 6 12 0 0
BITMAP
002910
001C30
004900
077580
01CD20
000000
09EE70
2611D1
08EFF3
4C20C3
5B14E3
0AEBC4
ENDCHAR
STARTCHAR uni1EB4
ENCODING 7860
SWIDTH 652 0
DWIDTH 7 0
BBX 7 13 0 0
BITMAP
00897100
0076B000
00D1C100
007E9000
00000000
001F3000
006C9000
00C3D100
02C09500
08704B00
0EFFFF20
4C000970
A60003D0
ENDCHAR
STARTCHAR uni1EB5
ENCODING 7861
SWIDTH 543 0
DWIDTH 6 0
BBX 6 11 0 0
BITMAP
01D370
044C40
067590
01CD30
000000
09EE70
2611D1
08EFF3
4C20C3
5B14E3
0AEBC4
ENDCHAR
STARTCHAR uni1EB6
ENCODING 7862
SWIDTH 652 0
DWIDTH 7 0
BBX 7 14 0 -3
BITMAP
00D1B200
006E9000
00000000
001F3000
006C9000
00C3D100
02C09500
08704B00
0EFFFF20
4C000970
A60003D0
00000000
000C2000
00010000
ENDCHAR
STARTCHAR uni1EB7
ENCODING 7863
SWIDTH 543 0
DWIDTH 6 0
BBX 6 12 0 -3
BITMAP
0684A0
01CE30
000000
09EE70
2611D1
08EFF3
4C20C3
5B14E3
0AEBC4
000000
00C200
001000
ENDCHAR
STARTCHAR uni1EB8
ENCODING 7864
SWIDTH 568 0
DWIDTH 6 0
BBX 6 11 0 -3
BITMAP
1FFFFC
1E0000
1E0000
1FFFF5
1E0000
1E0000
1E0000
1FFFFD
000000
003B00
000100
ENDCHAR
STARTCHAR uni1EB9
ENCODING 7865
SWIDTH 529 0
DWIDTH 6 0
BBX 6 8 0 -2
BITMAP
06DE70
3C22C3
7FFFF6
790000
3E3161
06DEA1
000000
007700
ENDCHAR
STARTCHAR uni1EBA
ENCODING 7866
SWIDTH 568 0
DWIDTH 6 0
BBX 6 12 0 0
BITMAP
001A30
000870
000C10
000000
1FFFFC
1E0000
1E0000
1FFFF5
1E0000
1E0000
1E0000
1FFFFD
ENDCHAR
STARTCHAR uni1EBB
ENCODING 7867
SWIDTH 529 0
DWIDTH 6 0
BBX 6 10 0 0
BITMAP
004A10
001B30
004900
000000
06DE70
3C22C3
7FFFF6
790000
3E3161
06DEA1
ENDCHAR
STARTCHAR uni1EBC
ENCODING 7868
SWIDTH 568 0
DWIDTH 6 0
BBX 6 11 0 0
BITMAP
03E593
074AC0
000000
1FFFFC
1E0000
1E0000
1FFFF5
1E0000
1E0000
1E0000
1FFFFD
ENDCHAR
STARTCHAR uni1EBD
ENCODING 7869
SWIDTH 529 0
DWIDTH 6 0
BBX 6 9 0 0
BITMAP
06D2B0
0B2D70
000000
06DE70
3C22C3
7FFFF6
790000
3E3161
06DEA1
ENDCHAR
STARTCHAR uni1EBE
ENCODING 7870
SWIDTH 568 0
DWIDTH 6 0
BBX 7 12 0 0
BITMAP
00000970
009E4B10
04B3C100
00000000
1FFFFC00
1E000000
1E000000
1FFFF500
1E000000
1E000000
1E000000
1FFFFD00
ENDCHAR
STARTCHAR uni1EBF
ENCODING 7871
SWIDTH 529 0
DWIDTH 6 0
BBX 7 10 0 0
BITMAP
00000D30
01CC4900
08779000
00000000
06DE7000
3C22C300
7FFFF600
79000000
3E316100
06DEA100
ENDCHAR
STARTCHAR uni1EC0
ENCODING 7872
SWIDTH 568 0
DWIDTH 6 0
BBX 6 12 0 0
BITMAP
C40000
479E40
05B3C1
000000
1FFFFC
1E0000
1E0000
1FFFF5
1E0000
1E0000
1E0000
1FFFFD
ENDCHAR
STARTCHAR uni1EC1
ENCODING 7873
SWIDTH 529 0
DWIDTH 6 0
BBX 7 10 -1 0
BITMAP
2D100000
085CC200
00877900
00000000
006DE700
03C22C30
07FFFF60
07900000
03E31610
006DEA10
ENDCHAR
STARTCHAR uni1EC2
ENCODING 7874
SWIDTH 568 0
DWIDTH 6 0
BBX 7 14 0 0
BITMAP
00002A00
00001B20
00002900
00AD5000
0591C100
00000000
1FFFFC00
1E000000
1E000000
1FFFF500
1E000000
1E000000
1E000000
1FFFFD00
ENDCHAR
STARTCHAR uni1EC3
ENCODING 7875
SWIDTH 529 0
DWIDTH 6 0
BBX 6 12 0 0
BITMAP
000048
00002B
000075
02CC20
0954A0
000000
06DE70
3C22C3
7FFFF6
790000
3E3161
06DEA1
ENDCHAR
STARTCHAR uni1EC4
ENCODING 7876
SWIDTH 568 0
DWIDTH 6 0
BBX 6 13 0 0
BITMAP
00B570
006B60
009D40
05A2C1
000000
1FFFFC
1E0000
1E0000
1FFFF5
1E0000
1E0000
1E0000
1FFFFD
ENDCHAR
STARTCHAR uni1EC5
ENCODING 7877
SWIDTH 529 0
DWIDTH 6 0
BBX 6 11 0 0
BITMAP
01D450
044D20
01BC10
0965A0
000000
06DE70
3C22C3
7FFFF6
790000
3E3161
06DEA1
ENDCHAR
STARTCHAR uni1EC6
ENCODING 7878
SWIDTH 568 0
DWIDTH 6 0
BBX 6 14 0 -3
BITMAP
006D20
01B4A0
000000
1FFFFC
1E0000
1E0000
1FFFF5
1E0000
1E0000
1E0000
1FFFFD
000000
003B00
000100
ENDCHAR
STARTCHAR uni1EC7
ENCODING 7879
SWIDTH 529 0
DWIDTH 6 0
BBX 6 11 0 -2
BITMAP
00AB00
058750
000000
06DE70
3C22C3
7FFFF6
790000
3E3161
06DEA1
000000
007700
ENDCHAR
STARTCHAR uni1EC8
ENCODING 7880
SWIDTH 271 0
DWIDTH 3 0
BBX 2 12 1 0
BITMAP
A5
69
C2
00
F0
F0
F0
F0
F0
F0
F0
F0
ENDCHAR
STARTCHAR uni1EC9
ENCODING 7881
SWIDTH 247 0
DWIDTH 3 0
BBX 3 10 0 0
BITMAP
1A30
0870
0C10
0000
3C00
3C00
3C00
3C00
3C00
3C00
ENDCHAR
STARTCHAR uni1ECA
ENCODING 7882
SWIDTH 271 0
DWIDTH 3 0
BBX 2 11 0 -3
BITMAP
0F
0F
0F
0F
0F
0F
0F
0F
00
1D
01
ENDCHAR
STARTCHAR uni1ECB
ENCODING 7883
SWIDTH 242 0
DWIDTH 3 0
BBX 2 12 0 -3
BITMAP
01
2C
00
2C
2C
2C
2C
2C
2C
00
3B
01
ENDCHAR
STARTCHAR uni1ECC
ENCODING 7884
SWIDTH 687 0
DWIDTH 8 0
BBX 7 11 0 -3
BITMAP
01AED700
0C813D50
3D0005B0
5A0002D0
5A0002D0
3D0005B0
0C813C60
02BED700
00000000
000A4000
00010000
ENDCHAR
STARTCHAR uni1ECD
ENCODING 7885
SWIDTH 570 0
DWIDTH 6 0
BBX 6 9 0 -3
BITMAP
06DE80
3E31B6
78004B
78004B
3D31B7
06DE90
000000
005900
000100
ENDCHAR
STARTCHAR uni1ECE
ENCODING 7886
SWIDTH 687 0
DWIDTH 8 0
BBX 7 12 0 0
BITMAP
00069000
0002D000
00085000
00000000
01AED700
0C813D50
3D0005B0
5A0002D0
5A0002D0
3D0005B0
0C813C60
02BED700
ENDCHAR
STARTCHAR uni1ECF
ENCODING 7887
SWIDTH 570 0
DWIDTH 6 0
BBX 6 10 0 0
BITMAP
003A10
001B30
004A00
000000
06DE80
3E31B6
78004B
78004B
3D31B7
06DE90
ENDCHAR
STARTCHAR uni1ED0
ENCODING 7888
SWIDTH 687 0
DWIDTH 8 0
BBX 8 12 0 0
BITMAP
000002D1
003DA660
00B4A600
00000000
01AED700
0C813D50
3D0005B0
5A0002D0
5A0002D0
3D0005B0
0C813C60
02BED700
ENDCHAR
STARTCHAR uni1ED1
ENCODING 7889
SWIDTH 570 0
DWIDTH 6 0
BBX 7 10 0 0
BITMAP
00000C30
01CD4900
0786A000
00000000
06DE8000
3E31B600
78004B00
78004B00
3D31B700
06DE9000
ENDCHAR
STARTCHAR uni1ED2
ENCODING 7890
SWIDTH 687 0
DWIDTH 8 0
BBX 7 12 0 0
BITMAP
5B000000
0B4EA000
00B4A600
00000000
01AED700
0C813D50
3D0005B0
5A0002D0
5A0002D0
3D0005B0
0C813C60
02BED700
ENDCHAR
STARTCHAR uni1ED3
ENCODING 7891
SWIDTH 570 0
DWIDTH 6 0
BBX 7 10 -1 0
BITMAP
1D100000
075CD200
00886A00
00000000
006DE800
03E31B60
078004B0
078004B0
03D31B70
006DE900
ENDCHAR
STARTCHAR uni1ED4
ENCODING 7892
SWIDTH 687 0
DWIDTH 8 0
BBX 7 14 0 0
BITMAP
00000750
00000590
00000A20
004DB000
00B28600
00000000
01AED700
0C813D50
3D0005B0
5A0002D0
5A0002D0
3D0005B0
0C813C60
02BED700
ENDCHAR
STARTCHAR uni1ED5
ENCODING 7893
SWIDTH 570 0
DWIDTH 6 0
BBX 6 12 0 0
BITMAP
000048
00002B
000066
01CC20
0864A0
000000
06DE80
3E31B6
78004B
78004B
3D31B7
06DE90
ENDCHAR
STARTCHAR uni1ED6
ENCODING 7894
SWIDTH 687 0
DWIDTH 8 0
BBX 7 13 0 0
BITMAP
005B6200
0064C000
003DA000
00B38600
00000000
01AED700
0C813D50
3D0005B0
5A0002D0
5A0002D0
3D0005B0
0C813C60
02BED700
ENDCHAR
STARTCHAR uni1ED7
ENCODING 7895
SWIDTH 570 0
DWIDTH 6 0
BBX 6 11 0 0
BITMAP
01D360
044D30
01BC20
0864A0
000000
06DE80
3E31B6
78004B
78004B
3D31B7
06DE90
ENDCHAR
STARTCHAR uni1ED8
ENCODING 7896
SWIDTH 687 0
DWIDTH 8 0
BBX 7 14 0 -3
BITMAP
001D8000
0085A300
00000000
01AED700
0C813D50
3D0005B0
5A0002D0
5A0002D0
3D0005B0
0C813C60
02BED700
00000000
000A4000
00010000
ENDCHAR
STARTCHAR uni1ED9
ENCODING 7897
SWIDTH 570 0
DWIDTH 6 0
BBX 6 12 0 -3
BITMAP
00AC10
049760
000000
06DE80
3E31B6
78004B
78004B
3D31B7
06DE90
000000
005900
000100
ENDCHAR
STARTCHAR uni1EDA
ENCODING 7898
SWIDTH 686 0
DWIDTH 8 0
BBX 8 11 0 0
BITMAP
0002E200
00076000
00000026
02BED697
0D713D90
4C0006A0
690003C0
690003C0
4C0006A0
0D713D40
02BED600
ENDCHAR
STARTCHAR uni1EDB
ENCODING 7899
SWIDTH 571 0
DWIDTH 6 0
BBX 7 9 0 0
BITMAP
000B7000
003A0000
00000340
06DE9A40
3E31B900
78004B00
78004B00
3D31B700
06DE9000
ENDCHAR
STARTCHAR uni1EDC
ENCODING 7900
SWIDTH 686 0
DWIDTH 8 0
BBX 8 11 0 0
BITMAP
008A0000
000B2000
00000026
02BED697
0D713D90
4C0006A0
690003C0
690003C0
4C0006A0
0D713D40
02BED600
ENDCHAR
STARTCHAR uni1EDD
ENCODING 7901
SWIDTH 571 0
DWIDTH 6 0
BBX 7 9 0 0
BITMAP
03D10000
00760000
00000340
06DE9A40
3E31B900
78004B00
78004B00
3D31B700
06DE9000
ENDCHAR
STARTCHAR uni1EDE
ENCODING 7902
SWIDTH 686 0
DWIDTH 8 0
BBX 8 12 0 0
BITMAP
00068000
0002D000
00085000
00000026
02BED697
0D713D90
4C0006A0
690003C0
690003C0
4C0006A0
0D713D40
02BED600
ENDCHAR
STARTCHAR uni1EDF
ENCODING 7903
SWIDTH 571 0
DWIDTH 6 0
BBX 7 10 0 0
BITMAP
003B1000
001A4000
003A0000
00000340
06DE9A40
3E31B900
78004B00
78004B00
3D31B700
06DE9000
ENDCHAR
STARTCHAR uni1EE0
ENCODING 7904
SWIDTH 686 0
DWIDTH 8 0
BBX 8 11 0 0
BITMAP
00AB3900
01A4E400
00000026
02BED697
0D713D90
4C0006A0
690003C0
690003C0
4C0006A0
0D713D40
02BED600
ENDCHAR
STARTCHAR uni1EE1
ENCODING 7905
SWIDTH 571 0
DWIDTH 6 0
BBX 7 9 0 0
BITMAP
05D3B000
0A2C9000
00000340
06DE9A40
3E31B900
78004B00
78004B00
3D31B700
06DE9000
ENDCHAR
STARTCHAR uni1EE2
ENCODING 7906
SWIDTH 686 0
DWIDTH 8 0
BBX 8 12 0 -3
BITMAP
00000026
02BED697
0D713D90
4C0006A0
690003C0
690003C0
4C0006A0
0D713D40
02BED600
00000000
000B3000
00010000
ENDCHAR
STARTCHAR uni1EE3
ENCODING 7907
SWIDTH 571 0
DWIDTH 6 0
BBX 7 10 0 -3
BITMAP
00000340
06DE9A40
3E31B900
78004B00
78004B00
3D31B700
06DE9000
00000000
00680000
00010000
ENDCHAR
STARTCHAR uni1EE4
ENCODING 7908
SWIDTH 648 0
DWIDTH 7 0
BBX 7 11 0 -3
BITMAP
4C000960
4C000960
4C000960
4C000960
4C000960
3C000A60
1E514E20
04CFD500
00000000
000D1000
00010000
ENDCHAR
STARTCHAR uni1EE5
ENCODING 7909
SWIDTH 551 0
DWIDTH 6 0
BBX 6 9 0 -3
BITMAP
4B00A5
4B00A5
4B00A5
4B00A5
3D13D5
09ECC5
000000
00B300
001000
ENDCHAR
STARTCHAR uni1EE6
ENCODING 7910
SWIDTH 648 0
DWIDTH 7 0
BBX 7 12 0 0
BITMAP
00086000
0004B000
000B3000
00000000
4C000960
4C000960
4C000960
4C000960
4C000960
3C000A60
1E514E20
04CFD500
ENDCHAR
STARTCHAR uni1EE7
ENCODING 7911
SWIDTH 551 0
DWIDTH 6 0
BBX 6 10 0 0
BITMAP
003A10
001B30
004900
000000
4B00A5
4B00A5
4B00A5
4B00A5
3D13D5
09ECC5
ENDCHAR
STARTCHAR uni1EE8
ENCODING 7912
SWIDTH 695 0
DWIDTH 8 0
BBX 9 11 0 0
BITMAP
0002E20000
0008500000
0000000320
4C00096A40
4C0009D800
4C00096000
4C00096000
4C00096000
3C000A6000
1E514E2000
04CFD50000
ENDCHAR
STARTCHAR uni1EE9
ENCODING 7913
SWIDTH 618 0
DWIDTH 7 0
BBX 7 9 0 0
BITMAP
000B7000
003A0000
00000050
4B00A8B0
4B00A810
4B00A500
4B00A500
3D13D500
09ECC500
ENDCHAR
STARTCHAR uni1EEA
ENCODING 7914
SWIDTH 695 0
DWIDTH 8 0
BBX 9 11 0 0
BITMAP
0099000000
001C100000
0000000320
4C00096A40
4C0009D800
4C00096000
4C00096000
4C00096000
3C000A6000
1E514E2000
04CFD50000
ENDCHAR
STARTCHAR uni1EEB
ENCODING 7915
SWIDTH 618 0
DWIDTH 7 0
BBX 7 9 0 0
BITMAP
03D10000
00860000
00000050
4B00A8B0
4B00A810
4B00A500
4B00A500
3D13D500
09ECC500
ENDCHAR
STARTCHAR uni1EEC
ENCODING 7916
SWIDTH 695 0
DWIDTH 8 0
BBX 9 12 0 0
BITMAP
0007800000
0003C00000
0009400000
0000000320
4C00096A40
4C0009D800
4C00096000
4C00096000
4C00096000
3C000A6000
1E514E2000
04CFD50000
ENDCHAR
STARTCHAR uni1EED
ENCODING 7917
SWIDTH 618 0
DWIDTH 7 0
BBX 7 10 0 0
BITMAP
003A1000
001A4000
003A0000
00000050
4B00A8B0
4B00A810
4B00A500
4B00A500
3D13D500
09ECC500
ENDCHAR
STARTCHAR uni1EEE
ENCODING 7918
SWIDTH 695 0
DWIDTH 8 0
BBX 9 11 0 0
BITMAP
00BA390000
0295E30000
0000000320
4C00096A40
4C0009D800
4C00096000
4C00096000
4C00096000
3C000A6000
1E514E2000
04CFD50000
ENDCHAR
STARTCHAR uni1EEF
ENCODING 7919
SWIDTH 618 0
DWIDTH 7 0
BBX 7 9 0 0
BITMAP
05D3B000
0A2C9000
00000050
4B00A8B0
4B00A810
4B00A500
4B00A500
3D13D500
09ECC500
ENDCHAR
STARTCHAR uni1EF0
ENCODING 7920
SWIDTH 695 0
DWIDTH 8 0
BBX 9 12 0 -3
BITMAP
0000000320
4C00096A40
4C0009D800
4C00096000
4C00096000
4C00096000
3C000A6000
1E514E2000
04CFD50000
0000000000
000B300000
0001000000
ENDCHAR
STARTCHAR uni1EF1
ENCODING 7921
SWIDTH 618 0
DWIDTH 7 0
BBX 7 9 0 -2
BITMAP
00000050
4B00A8B0
4B00A810
4B00A500
4B00A500
3D13D500
09ECC500
00000000
00770000
ENDCHAR
STARTCHAR Ygrave
ENCODING 7922
SWIDTH 600 0
DWIDTH 7 0
BBX 7 11 0 0
BITMAP
01D30000
00590000
00000000
A8000D30
2E106A00
0981D300
01E89000
008F2000
003C0000
003C0000
003C0000
ENDCHAR
STARTCHAR ygrave
ENCODING 7923
SWIDTH 473 0
DWIDTH 5 0
BBX 5 11 0 -2
BITMAP
099000
01C100
000000
A602D0
5B0780
0E1C30
098C00
04F700
00E200
04B000
8D3000
ENDCHAR
STARTCHAR uni1EF4
ENCODING 7924
SWIDTH 600 0
DWIDTH 7 0
BBX 7 11 0 -3
BITMAP
A8000D30
2E106A00
0981D300
01E89000
008F2000
003C0000
003C0000
003C0000
00000000
003B0000
00010000
ENDCHAR
STARTCHAR uni1EF5
ENCODING 7925
SWIDTH 473 0
DWIDTH 5 0
BBX 5 10 0 -4
BITMAP
A602D0
5B0780
0E1C30
098C00
04F700
00E200
04B000
8D3000
000A40
000100
ENDCHAR
STARTCHAR uni1EF6
ENCODING 7926
SWIDTH 600 0
DWIDTH 7 0
BBX 7 12 0 0
BITMAP
001A3000
00087000
000C1000
00000000
A8000D30
2E106A00
0981D300
01E89000
008F2000
003C0000
003C0000
003C0000
ENDCHAR
STARTCHAR uni1EF7
ENCODING 7927
SWIDTH 473 0
DWIDTH 5 0
BBX 5 12 0 -2
BITMAP
007800
003C00
009400
000000
A602D0
5B0780
0E1C30
098C00
04F700
00E200
04B000
8D3000
ENDCHAR
STARTCHAR uni1EF8
ENCODING 7928
SWIDTH 600 0
DWIDTH 7 0
BBX 7 11 0 0
BITMAP
03E59200
084AC000
00000000
A8000D30
2E106A00
0981D300
01E89000
008F2000
003C0000
003C0000
003C0000
ENDCHAR
STARTCHAR uni1EF9
ENCODING 7929
SWIDTH 473 0
DWIDTH 5 0
BBX 5 11 0 -2
BITMAP
0BA390
295E30
000000
A602D0
5B0780
0E1C30
098C00
04F700
00E200
04B000
8D3000
ENDCHAR
STARTCHAR uni1F4D
ENCODING 8013
SWIDTH 721 0
DWIDTH 8 0
BBX 11 8 -3 0
BITMAP
778807DEA100
28906C219B00
0000C4000E20
0000E1000C40
0000E1000B40
0000C4000E20
00006C218B00
000007EEA100
ENDCHAR
STARTCHAR uni2000
ENCODING 8192
SWIDTH 509 0
DWIDTH 6 0
BBX 1 1 0 0
BITMAP
00
ENDCHAR
STARTCHAR uni2001
ENCODING 8193
SWIDTH 1020 0
DWIDTH 11 0
BBX 1 1 0 0
BITMAP
00
ENDCHAR
STARTCHAR uni2002
ENCODING 8194
SWIDTH 509 0
DWIDTH 6 0
BBX 1 1 0 0
BITMAP
00
ENDCHAR
STARTCHAR uni2003
ENCODING 8195
SWIDTH 1020 0
DWIDTH 11 0
BBX 1 1 0 0
BITMAP
00
ENDCHAR
STARTCHAR uni2004
ENCODING 8196
SWIDTH 340 0
DWIDTH 4 0
BBX 1 1 0 0
BITMAP
00
ENDCHAR
STARTCHAR uni2005
ENCODING 8197
SWIDTH 254 0
DWIDTH 3 0
BBX 1 1 0 0
BITMAP
00
ENDCHAR
STARTCHAR uni2006
ENCODING 8198
SWIDTH 169 0
DWIDTH 2 0
BBX 1 1 0 0
BITMAP
00
ENDCHAR
STARTCHAR uni2007
ENCODING 8199
SWIDTH 562 0
DWIDTH 6 0
BBX 1 1 0 0
BITMAP
00
ENDCHAR
STARTCHAR uni2008
ENCODING 8200
SWIDTH 273 0
DWIDTH 3 0
BBX 1 1 0 0
BITMAP
00
ENDCHAR
STARTCHAR uni2009
ENCODING 8201
SWIDTH 204 0
DWIDTH 2 0
BBX 1 1 0 0
BITMAP
00
ENDCHAR
STARTCHAR uni200A
ENCODING 8202
SWIDTH 102 0
DWIDTH 1 0
BBX 1 1 0 0
BITMAP
00
ENDCHAR
STARTCHAR uni200B
ENCODING 8203
SWIDTH 0 0
DWIDTH 0 0
BBX 1 1 0 0
BITMAP
00
ENDCHAR
STARTCHAR uni2010
ENCODING 8208
SWIDTH 275 0
DWIDTH 3 0
BBX 3 1 0 3
BITMAP
CFC0
ENDCHAR
STARTCHAR uni2011
ENCODING 8209
SWIDTH 275 0
DWIDTH 3 0
BBX 3 1 0 3
BITMAP
CFC0
ENDCHAR
STARTCHAR endash
ENCODING 8211
SWIDTH 656 0
DWIDTH 7 0
BBX 7 1 0 3
BITMAP
2FFFFF40
ENDCHAR
STARTCHAR emdash
ENCODING 8212
SWIDTH 780 0
DWIDTH 9 0
BBX 8 1 0 3
BITMAP
3FFFFFFE
ENDCHAR
STARTCHAR uni2015
ENCODING 8213
SWIDTH 780 0
DWIDTH 9 0
BBX 8 1 0 3
BITMAP
3FFFFFFE
ENDCHAR
STARTCHAR underscoredbl
ENCODING 8215
SWIDTH 455 0
DWIDTH 5 0
BBX 5 3 0 -3
BITMAP
BCCCC0
000000
BCCCC0
ENDCHAR
STARTCHAR quoteleft
ENCODING 8216
SWIDTH 199 0
DWIDTH 2 0
BBX 2 3 0 6
BITMAP
1A
59
78
ENDCHAR
STARTCHAR quoteright
ENCODING 8217
SWIDTH 199 0
DWIDTH 2 0
BBX 2 3 0 6
BITMAP
3B
5A
83
ENDCHAR
STARTCHAR quotesinglbase
ENCODING 8218
SWIDTH 198 0
DWIDTH 2 0
BBX 2 3 0 -2
BITMAP
5A
68
92
ENDCHAR
STARTCHAR quotereversed
ENCODING 8219
SWIDTH 199 0
DWIDTH 2 0
BBX 2 3 0 5
BITMAP
96
68
19
ENDCHAR
STARTCHAR quotedblleft
ENCODING 8220
SWIDTH 353 0
DWIDTH 4 0
BBX 4 3 0 6
BITMAP
0A38
4A95
68B4
ENDCHAR
STARTCHAR quotedblright
ENCODING 8221
SWIDTH 356 0
DWIDTH 4 0
BBX 4 3 0 6
BITMAP
2C87
4A95
73A0
ENDCHAR
STARTCHAR quotedblbase
ENCODING 8222
SWIDTH 344 0
DWIDTH 4 0
BBX 4 4 0 -2
BITMAP
1341
4AB4
68D2
9390
ENDCHAR
STARTCHAR dagger
ENCODING 8224
SWIDTH 551 0
DWIDTH 6 0
BBX 6 8 0 0
BITMAP
007800
007800
9FFFFA
007800
007800
007800
007800
007800
ENDCHAR
STARTCHAR daggerdbl
ENCODING 8225
SWIDTH 569 0
DWIDTH 6 0
BBX 6 10 0 -2
BITMAP
006900
006900
8FFFFC
006900
006900
006900
006900
8FFFFC
006900
006900
ENDCHAR
STARTCHAR bullet
ENCODING 8226
SWIDTH 336 0
DWIDTH 4 0
BBX 3 3 0 2
BITMAP
2EA0
3FD0
0420
ENDCHAR
STARTCHAR twodotenleader
ENCODING 8229
SWIDTH 470 0
DWIDTH 5 0
BBX 5 2 0 0
BITMAP
010100
2D0B40
ENDCHAR
STARTCHAR ellipsis
ENCODING 8230
SWIDTH 668 0
DWIDTH 7 0
BBX 7 2 0 0
BITMAP
01010110
2D0B4870
ENDCHAR
STARTCHAR uni2027
ENCODING 8231
SWIDTH 186 0
DWIDTH 2 0
BBX 2 1 0 3
BITMAP
77
ENDCHAR
STARTCHAR perthousand
ENCODING 8240
SWIDTH 958 0
DWIDTH 11 0
BBX 11 8 0 0
BITMAP
3DD200000000
956809000000
955875000000
3DD490000000
000A3DD9E800
0075855C1C10
0190855C1C10
00002DD9E800
ENDCHAR
STARTCHAR minute
ENCODING 8242
SWIDTH 174 0
DWIDTH 2 0
BBX 2 2 0 6
BITMAP
75
74
ENDCHAR
STARTCHAR second
ENCODING 8243
SWIDTH 319 0
DWIDTH 4 0
BBX 3 3 0 5
BITMAP
47B0
47B0
4590
ENDCHAR
STARTCHAR guilsinglleft
ENCODING 8249
SWIDTH 299 0
DWIDTH 3 0
BBX 3 4 0 1
BITMAP
0480
2B10
2B10
0480
ENDCHAR
STARTCHAR guilsinglright
ENCODING 8250
SWIDTH 299 0
DWIDTH 3 0
BBX 3 4 0 1
BITMAP
3900
0770
0770
3900
ENDCHAR
STARTCHAR exclamdbl
ENCODING 8252
SWIDTH 514 0
DWIDTH 6 0
BBX 5 8 0 0
BITMAP
2E04B0
1E04B0
1E04B0
1D04B0
1D03B0
090270
010010
1D03B0
ENDCHAR
STARTCHAR fraction
ENCODING 8260
SWIDTH 454 0
DWIDTH 5 0
BBX 5 6 0 1
BITMAP
000360
000A10
008400
038000
1B1000
630000
ENDCHAR
STARTCHAR uni2074
ENCODING 8308
SWIDTH 366 0
DWIDTH 4 0
BBX 4 4 0 4
BITMAP
03E3
29B3
AFFB
00A3
ENDCHAR
STARTCHAR uni207F
ENCODING 8319
SWIDTH 421 0
DWIDTH 5 0
BBX 5 4 0 4
BITMAP
5BEB00
5A1E10
580C10
580C10
ENDCHAR
STARTCHAR franc
ENCODING 8355
SWIDTH 552 0
DWIDTH 6 0
BBX 6 8 0 0
BITMAP
1FFFFB
1E0000
1E0000
1E0000
1FFFF3
1E0000
FFF800
1E0000
ENDCHAR
STARTCHAR lira
ENCODING 8356
SWIDTH 581 0
DWIDTH 6 0
BBX 7 8 0 0
BITMAP
01BED300
09A16C00
0A500100
8FFF4000
0A600000
8FFF4000
0A500000
7FFFFF10
ENDCHAR
STARTCHAR uni20A6
ENCODING 8358
SWIDTH 791 0
DWIDTH 9 0
BBX 9 8 0 0
BITMAP
0AC100A500
0AEB00A500
CFFFFFFF80
0A53E1A500
CFFFFFFF80
0A502EB500
0A5008F500
0A5001E500
ENDCHAR
STARTCHAR peseta
ENCODING 8359
SWIDTH 820 0
DWIDTH 9 0
BBX 9 8 0 0
BITMAP
2FFE800000
2D02D4D200
2D009FFF40
2D02D4D200
2FFE80D200
2D0000D200
2D0000C400
2D00007E40
ENDCHAR
STARTCHAR uni20A8
ENCODING 8360
SWIDTH 1057 0
DWIDTH 12 0
BBX 11 8 0 0
BITMAP
1FFFC4000000
1E004E100000
1E000D39ED50
1E004E5C14B0
1FFFE41DC710
1E01D30049D0
1E006B6912E0
1E000C59EE60
ENDCHAR
STARTCHAR uni20A9
ENCODING 8361
SWIDTH 739 0
DWIDTH 8 0
BBX 8 8 0 0
BITMAP
9707A05A
690AC078
3B0BC0A5
CFFFFFFF
0D3A84E0
CFFFFFFF
06E53E80
02F10E40
ENDCHAR
STARTCHAR uni20AA
ENCODING 8362
SWIDTH 770 0
DWIDTH 8 0
BBX 8 6 0 0
BITMAP
4FFFC24B
4B00984B
4B2D694B
4B2D694B
4B2D0089
4B2FFFD3
ENDCHAR
STARTCHAR dong
ENCODING 8363
SWIDTH 578 0
DWIDTH 6 0
BBX 7 10 0 -2
BITMAP
000FFF60
00009600
07EDC600
3D22C600
69009600
68009600
3D22C600
07EDB600
00000000
2FFFFC00
ENDCHAR
STARTCHAR Euro
ENCODING 8364
SWIDTH 561 0
DWIDTH 6 0
BBX 6 8 0 0
BITMAP
008DE8
06B211
7FFF80
088000
7FFF80
079000
03E311
005DE8
ENDCHAR
STARTCHAR uni20B1
ENCODING 8369
SWIDTH 731 0
DWIDTH 8 0
BBX 8 8 0 0
BITMAP
0CFFE800
0C402D60
CFFFFFFD
0C4003D0
CFFFFFFD
0C402D82
0CFFE900
0C400000
ENDCHAR
STARTCHAR uni20B9
ENCODING 8377
SWIDTH 516 0
DWIDTH 6 0
BBX 6 8 0 0
BITMAP
AFFFF5
003D20
AFFFF5
002D40
9FE800
2D4000
03D300
004D20
ENDCHAR
STARTCHAR uni20BA
ENCODING 8378
SWIDTH 556 0
DWIDTH 6 0
BBX 6 8 0 0
BITMAP
088000
08BA00
6EB300
69BA00
6EB369
698088
0884E2
07FC40
ENDCHAR
STARTCHAR uni20BC
ENCODING 8380
SWIDTH 660 0
DWIDTH 7 0
BBX 7 6 0 0
BITMAP
000D2000
02CFD500
0D6D5D30
4B0D2780
780D24B0
880D24C0
ENDCHAR
STARTCHAR uni20BD
ENCODING 8381
SWIDTH 663 0
DWIDTH 7 0
BBX 7 8 0 0
BITMAP
0BFFEA10
0B4019A0
0B4003D0
0B4018A0
CFFFEB20
0B400000
CFFF2000
0B400000
ENDCHAR
STARTCHAR uni2105
ENCODING 8453
SWIDTH 737 0
DWIDTH 8 0
BBX 8 8 0 0
BITMAP
0BE50000
49110910
49115600
1CE7A000
000A5DD2
00669568
00909558
00003DD2
ENDCHAR
STARTCHAR uni2113
ENCODING 8467
SWIDTH 475 0
DWIDTH 5 0
BBX 5 9 0 0
BITMAP
00BE40
04C6A0
05A690
05AC40
06FA00
6EC000
04B000
01D200
006C00
ENDCHAR
STARTCHAR uni2116
ENCODING 8470
SWIDTH 1028 0
DWIDTH 11 0
BBX 11 8 0 0
BITMAP
2F300D26ED30
2FB00D2D2690
2DC30D2E04A0
2D4B0D29EE50
2D0B4D202100
2D03CD2CFF80
2D00BF200000
2D003F200000
ENDCHAR
STARTCHAR trademark
ENCODING 8482
SWIDTH 625 0
DWIDTH 7 0
BBX 6 3 0 5
BITMAP
7F9C0B
080B79
080797
ENDCHAR
STARTCHAR uni03A9.dup2
ENCODING 8486
SWIDTH 665 0
DWIDTH 7 0
BBX 7 8 0 0
BITMAP
03CFC400
0D614E20
4C000970
6A000790
5A000780
2D000A40
09705B00
5FF5FF80
ENDCHAR
STARTCHAR estimated
ENCODING 8494
SWIDTH 636 0
DWIDTH 7 0
BBX 7 6 0 0
BITMAP
01AEB200
0B714B00
2F300E20
2FFFFF40
0C511100
01BED500
ENDCHAR
STARTCHAR oneeighth
ENCODING 8539
SWIDTH 768 0
DWIDTH 8 0
BBX 8 8 0 0
BITMAP
18600000
8D701900
06709200
06757000
001A2DF8
00921DF6
03704A3C
00001CE7
ENDCHAR
STARTCHAR threeeighths
ENCODING 8540
SWIDTH 854 0
DWIDTH 9 0
BBX 9 8 0 0
BITMAP
3DE7000000
06F6019000
344B093000
2DE6470000
0001A3EE60
000932EF40
00370685A0
000003DE50
ENDCHAR
STARTCHAR fiveeighths
ENCODING 8541
SWIDTH 851 0
DWIDTH 9 0
BBX 9 8 0 0
BITMAP
2FF7000000
3CE5027000
125A0A1000
2DE4750000
000394EE50
000A12FF40
0054077690
000003DE40
ENDCHAR
STARTCHAR seveneighths
ENCODING 8542
SWIDTH 801 0
DWIDTH 9 0
BBX 9 8 0 0
BITMAP
8FFC000000
0065091000
01B0570000
0A31A00000
000A29FC10
005608FC00
00900D2C20
000008EC10
ENDCHAR
STARTCHAR partialdiff
ENCODING 8706
SWIDTH 569 0
DWIDTH 6 0
BBX 6 8 0 0
BITMAP
0AFD60
0204E2
000088
07EEBA
4D218B
69004A
3D21B5
06DE80
ENDCHAR
STARTCHAR uni0394.dup3
ENCODING 8710
SWIDTH 705 0
DWIDTH 8 0
BBX 8 8 0 0
BITMAP
000B9000
002DD100
00869500
01D14B00
06900D20
0C300780
3C0001D0
9FFFFFF5
ENDCHAR
STARTCHAR product
ENCODING 8719
SWIDTH 694 0
DWIDTH 8 0
BBX 7 9 0 -1
BITMAP
1FFFFFB0
1E0004B0
1E0004B0
1E0004B0
1E0004B0
1E0004B0
1E0004B0
1E0004B0
1E0004B0
ENDCHAR
STARTCHAR summation
ENCODING 8721
SWIDTH 585 0
DWIDTH 6 0
BBX 7 9 0 -1
BITMAP
9FFFFF00
3D200000
04C10000
005C1000
00098000
004C1000
04C10000
3D200000
9FFFFF60
ENDCHAR
STARTCHAR minus
ENCODING 8722
SWIDTH 571 0
DWIDTH 6 0
BBX 6 1 0 3
BITMAP
1FFFF6
ENDCHAR
STARTCHAR radical
ENCODING 8730
SWIDTH 596 0
DWIDTH 7 0
BBX 7 8 0 0
BITMAP
00000D20
00004C00
00009600
0000D100
AF34A000
07AA5000
01ED0000
00990000
ENDCHAR
STARTCHAR infinity
ENCODING 8734
SWIDTH 1028 0
DWIDTH 11 0
BBX 11 6 0 0
BITMAP
05DE705DE700
2E32B8D32C50
69002F5005A0
69001F5005A0
2E31B8D31C50
05DE705DE800
ENDCHAR
STARTCHAR integral
ENCODING 8747
SWIDTH 255 0
DWIDTH 3 0
BBX 5 11 -1 -2
BITMAP
007E60
00F200
01E000
01E000
01E000
01E000
01E000
01E000
01E000
04D000
5E6000
ENDCHAR
STARTCHAR approxequal
ENCODING 8776
SWIDTH 563 0
DWIDTH 6 0
BBX 6 5 0 0
BITMAP
3DC425
523BE4
000000
3DC425
523BE4
ENDCHAR
STARTCHAR notequal
ENCODING 8800
SWIDTH 548 0
DWIDTH 6 0
BBX 6 7 0 0
BITMAP
000030
000280
3FFFF4
005500
3FFFF4
082000
020000
ENDCHAR
STARTCHAR lessequal
ENCODING 8804
SWIDTH 508 0
DWIDTH 6 0
BBX 5 6 0 0
BITMAP
0017A0
29C710
7D5000
028D70
000040
AFFFC0
ENDCHAR
STARTCHAR greaterequal
ENCODING 8805
SWIDTH 522 0
DWIDTH 6 0
BBX 6 6 0 0
BITMAP
4A4000
049C71
0028E3
2BC500
230000
4FFFF3
ENDCHAR
STARTCHAR lozenge
ENCODING 9674
SWIDTH 503 0
DWIDTH 6 0
BBX 6 8 0 0
BITMAP
00D600
069D10
1D1870
7801D1
7801D1
1D1780
06AD10
00D600
ENDCHAR
STARTCHAR uniEE01
ENCODING 60929
SWIDTH 287 0
DWIDTH 3 0
BBX 2 7 1 1
BITMAP
10
D2
00
00
00
10
D2
ENDCHAR
STARTCHAR uniEE02
ENCODING 60930
SWIDTH 319 0
DWIDTH 4 0
BBX 3 2 0 4
BITMAP
65B0
65B0
ENDCHAR
STARTCHAR uniF6C3
ENCODING 63171
SWIDTH 251 0
DWIDTH 3 0
BBX 2 2 0 -1
BITMAP
2C
46
ENDCHAR
STARTCHAR uniFB01
ENCODING 64257
SWIDTH 553 0
DWIDTH 6 0
BBX 6 9 0 0
BITMAP
03DE80
0B5020
0E1000
CFF4C3
0E10C3
0E10C3
0E10C3
0E10C3
0E10C3
ENDCHAR
STARTCHAR uniFB02
ENCODING 64258
SWIDTH 567 0
DWIDTH 6 0
BBX 6 9 0 0
BITMAP
02DFC4
0A70A6
0B4096
AFF796
0C4096
0C4096
0C4096
0C4096
0C4096
ENDCHAR
STARTCHAR uniFB03
ENCODING 64259
SWIDTH 853 0
DWIDTH 9 0
BBX 9 9 0 0
BITMAP
03DC1BEC00
0A707A1300
0B40960000
AFFFFF8780
0C40960780
0C40960780
0C40960780
0C40960780
0C40960780
ENDCHAR
STARTCHAR uniFB04
ENCODING 64260
SWIDTH 853 0
DWIDTH 9 0
BBX 9 9 0 0
BITMAP
03DC1CFD50
0A70790880
0B40960780
AFFFFF9780
0C40960780
0C40960780
0C40960780
0C40960780
0C40960780
ENDCHAR
STARTCHAR uniFEFF
ENCODING 65279
SWIDTH 0 0
DWIDTH 0 0
BBX 1 1 0 0
BITMAP
00
ENDCHAR
STARTCHAR uniFFFC
ENCODING 65532
SWIDTH 1024 0
DWIDTH 11 0
BBX 11 10 0 -2
BITMAP
8F5F5F7E9CE0
810000000090
000000000000
810000000090
00BE6FB00800
8293AFC32890
00BE6FD3E500
810000000090
000000000000
8F5F5F7E9CE0
ENDCHAR
STARTCHAR uniFFFD
ENCODING 65533
SWIDTH 1025 0
DWIDTH 11 0
BBX 11 11 0 -2
BITMAP
00001B300000
0000BFD20000
000AFFFD2000
009F714EC100
09FF6D2BFC10
4FFFFC2EFF80
09FFF1BFFC10
00AFFFFFC100
000AF0ED2000
0000BFD20000
00001B300000
ENDCHAR
STARTCHAR .notdef
ENCODING -1
SWIDTH 443 0
DWIDTH 5 0
BBX 5 8 0 0
BITMAP
6FFE50
410140
431240
407040
407040
431240
410140
6FFE50
ENDCHAR
STARTCHAR glyph369
ENCODING -1
SWIDTH 390 0
DWIDTH 4 0
BBX 4 2 0 6
BITMAP
5879
1991
ENDCHAR
STARTCHAR uni2009.locl
ENCODING -1
SWIDTH 125 0
DWIDTH 1 0
BBX 1 1 0 0
BITMAP
00
ENDCHAR
STARTCHAR f_f.dlig
ENCODING -1
SWIDTH 618 0
DWIDTH 7 0
BBX 7 9 0 0
BITMAP
03DC3DB0
0A70A700
0B40C300
AFFFFF70
0C40C300
0C40C300
0C40C300
0C40C300
0C40C300
ENDCHAR
STARTCHAR longs_t.dlig
ENCODING -1
SWIDTH 616 0
DWIDTH 7 0
BBX 7 9 0 0
BITMAP
03DEA100
0A71C300
0B40C300
AF4DFF50
0C40C300
0C40C300
0C40C300
0C40B500
0C406E40
ENDCHAR
STARTCHAR s_t.dlig
ENCODING -1
SWIDTH 825 0
DWIDTH 9 0
BBX 9 9 0 0
BITMAP
0000AEB100
0005B1A600
0004906900
09EED6FFA0
3C13C06900
1DC7106900
0048D06900
5A12E16B00
09EE602DA0
ENDCHAR
STARTCHAR two.dnom
ENCODING -1
SWIDTH 366 0
DWIDTH 4 0
BBX 4 4 0 0
BITMAP
4EE4
43A4
1A50
8FFA
ENDCHAR
STARTCHAR one.dnom
ENCODING -1
SWIDTH 366 0
DWIDTH 4 0
BBX 3 4 0 0
BITMAP
0790
5DA0
03A0
03A0
ENDCHAR
STARTCHAR zero.dnom
ENCODING -1
SWIDTH 366 0
DWIDTH 4 0
BBX 4 4 0 0
BITMAP
3DD3
8668
8668
3DE3
ENDCHAR
STARTCHAR nine.c2sc
ENCODING -1
SWIDTH 507 0
DWIDTH 6 0
BBX 5 6 0 0
BITMAP
1AEC30
6A15C0
7A14E0
1BECD0
002A80
08D810
ENDCHAR
STARTCHAR eight.c2sc
ENCODING -1
SWIDTH 507 0
DWIDTH 6 0
BBX 5 6 0 0
BITMAP
1BEE60
4D25C0
0BFF40
5B13D0
6B13E0
1AED50
ENDCHAR
STARTCHAR seven.c2sc
ENCODING -1
SWIDTH 507 0
DWIDTH 6 0
BBX 6 6 0 0
BITMAP
AFFFF2
0003B0
000B30
005A00
00D200
078000
ENDCHAR
STARTCHAR six.c2sc
ENCODING -1
SWIDTH 506 0
DWIDTH 6 0
BBX 6 6 0 0
BITMAP
03BE20
1D5100
4DDE70
6C12E1
3D12E1
08EE60
ENDCHAR
STARTCHAR five.c2sc
ENCODING -1
SWIDTH 507 0
DWIDTH 6 0
BBX 6 6 0 0
BITMAP
0CFFE0
0E0000
1FEE70
0212E1
2A12E1
08EE70
ENDCHAR
STARTCHAR four.c2sc
ENCODING -1
SWIDTH 507 0
DWIDTH 6 0
BBX 6 6 0 0
BITMAP
001E60
00AC60
067960
2A0960
AFFFF5
000960
ENDCHAR
STARTCHAR three.c2sc
ENCODING -1
SWIDTH 507 0
DWIDTH 6 0
BBX 5 6 0 0
BITMAP
1BED60
5816C0
02FF40
0004D0
6714D0
1BED40
ENDCHAR
STARTCHAR two.c2sc
ENCODING -1
SWIDTH 507 0
DWIDTH 6 0
BBX 6 6 0 0
BITMAP
1AED50
7A15D0
0006A0
007C10
1A8000
6FFFF3
ENDCHAR
STARTCHAR one.c2sc
ENCODING -1
SWIDTH 507 0
DWIDTH 6 0
BBX 4 6 0 0
BITMAP
04A8
3CA9
0069
0069
0069
0069
ENDCHAR
STARTCHAR zero.c2sc
ENCODING -1
SWIDTH 507 0
DWIDTH 6 0
BBX 5 6 0 0
BITMAP
09ED40
4C14D0
7800E0
7800E0
4C14D0
09ED40
ENDCHAR
STARTCHAR Z.c2sc
ENCODING -1
SWIDTH 517 0
DWIDTH 6 0
BBX 6 6 0 0
BITMAP
8FFFF3
000790
005B00
03C100
2D2000
9FFFF5
ENDCHAR
STARTCHAR Y.c2sc
ENCODING -1
SWIDTH 520 0
DWIDTH 6 0
BBX 6 6 0 0
BITMAP
A700B5
2D15B0
079D30
00D900
00A500
00A500
ENDCHAR
STARTCHAR X.c2sc
ENCODING -1
SWIDTH 541 0
DWIDTH 6 0
BBX 6 6 0 0
BITMAP
6B00C5
0A7890
01DD10
01DD10
0B67A0
7B00B6
ENDCHAR
STARTCHAR W.c2sc
ENCODING -1
SWIDTH 760 0
DWIDTH 8 0
BBX 9 6 0 0
BITMAP
9605C00E10
590AD23C00
1D0C666800
0C582AA300
08C40BC000
04E008A000
ENDCHAR
STARTCHAR V.c2sc
ENCODING -1
SWIDTH 550 0
DWIDTH 6 0
BBX 6 6 0 0
BITMAP
A5005B
4B00A5
0D21D0
078780
01DC20
00AA00
ENDCHAR
STARTCHAR U.c2sc
ENCODING -1
SWIDTH 560 0
DWIDTH 6 0
BBX 6 6 0 0
BITMAP
690078
690078
690078
690078
4D21B6
08EEA0
ENDCHAR
STARTCHAR T.c2sc
ENCODING -1
SWIDTH 518 0
DWIDTH 6 0
BBX 6 6 0 0
BITMAP
CFFFF7
00A500
00A500
00A500
00A500
00A500
ENDCHAR
STARTCHAR S.c2sc
ENCODING -1
SWIDTH 515 0
DWIDTH 6 0
BBX 6 6 0 0
BITMAP
1AEE70
5B12C3
2DB710
0049D1
7911C4
1AEE90
ENDCHAR
STARTCHAR R.c2sc
ENCODING -1
SWIDTH 536 0
DWIDTH 6 0
BBX 6 6 0 0
BITMAP
4FFE90
4B01C5
4B01C5
4FFF90
4B06A0
4B00B6
ENDCHAR
STARTCHAR Q.c2sc
ENCODING -1
SWIDTH 591 0
DWIDTH 7 0
BBX 6 7 0 -1
BITMAP
06DEA1
3D3199
78001D
78001E
3D318A
06DFF2
000069
ENDCHAR
STARTCHAR P.c2sc
ENCODING -1
SWIDTH 544 0
DWIDTH 6 0
BBX 6 6 0 0
BITMAP
4FFEB1
4B0198
4B0098
4FFEB1
4B0000
4B0000
ENDCHAR
STARTCHAR O.c2sc
ENCODING -1
SWIDTH 591 0
DWIDTH 7 0
BBX 6 6 0 0
BITMAP
05DEA1
3D318A
68001E
68001E
3D318A
05DEA1
ENDCHAR
STARTCHAR N.c2sc
ENCODING -1
SWIDTH 610 0
DWIDTH 7 0
BBX 6 6 0 0
BITMAP
4E200F
4EC00F
4B880F
4B0C4F
4B02DF
4B006F
ENDCHAR
STARTCHAR M.c2sc
ENCODING -1
SWIDTH 750 0
DWIDTH 8 0
BBX 8 6 0 0
BITMAP
4F4001E8
4DB007D8
4AC20D78
4B595978
4B0DC278
4B07B078
ENDCHAR
STARTCHAR L.c2sc
ENCODING -1
SWIDTH 462 0
DWIDTH 5 0
BBX 5 6 0 0
BITMAP
4B0000
4B0000
4B0000
4B0000
4B0000
4FFFD0
ENDCHAR
STARTCHAR K.c2sc
ENCODING -1
SWIDTH 541 0
DWIDTH 6 0
BBX 6 6 0 0
BITMAP
4B01C5
4B1C50
4CD700
4F9D10
4B07B0
4B00A8
ENDCHAR
STARTCHAR J.c2sc
ENCODING -1
SWIDTH 476 0
DWIDTH 5 0
BBX 5 6 0 0
BITMAP
000780
000780
000780
000780
960A70
3CFB10
ENDCHAR
STARTCHAR I.c2sc
ENCODING -1
SWIDTH 238 0
DWIDTH 3 0
BBX 2 6 0 0
BITMAP
3C
3C
3C
3C
3C
3C
ENDCHAR
STARTCHAR H.c2sc
ENCODING -1
SWIDTH 610 0
DWIDTH 7 0
BBX 6 6 0 0
BITMAP
4B000F
4B000F
4FFFFF
4B000F
4B000F
4B000F
ENDCHAR
STARTCHAR G.c2sc
ENCODING -1
SWIDTH 583 0
DWIDTH 6 0
BBX 6 6 0 0
BITMAP
06DEB2
3D3078
690000
690BFC
2E304C
05DED6
ENDCHAR
STARTCHAR F.c2sc
ENCODING -1
SWIDTH 474 0
DWIDTH 5 0
BBX 5 6 0 0
BITMAP
4FFFE0
4B0000
4FFF80
4B0000
4B0000
4B0000
ENDCHAR
STARTCHAR dollar.c2sc
ENCODING -1
SWIDTH 515 0
DWIDTH 6 0
BBX 6 10 0 -2
BITMAP
001100
007500
1AFE80
6B12C3
2DA710
0059D1
7911C4
1AEE90
007500
001100
ENDCHAR
STARTCHAR sterling.c2sc
ENCODING -1
SWIDTH 524 0
DWIDTH 6 0
BBX 6 6 0 0
BITMAP
03DE70
0C52E1
0D2010
BFFF40
0E1000
6FFFF6
ENDCHAR
STARTCHAR yen.c2sc
ENCODING -1
SWIDTH 453 0
DWIDTH 5 0
BBX 5 6 0 0
BITMAP
A606A0
2C0C20
099800
8FFF70
8FFF70
00F000
ENDCHAR
STARTCHAR Gamma.c2sc
ENCODING -1
SWIDTH 460 0
DWIDTH 5 0
BBX 5 6 0 0
BITMAP
4FFFD0
4B0000
4B0000
4B0000
4B0000
4B0000
ENDCHAR
STARTCHAR uni0394.c2sc
ENCODING -1
SWIDTH 550 0
DWIDTH 6 0
BBX 6 6 0 0
BITMAP
00AA00
01DC20
077780
0D11D0
4A0095
AFFFFB
ENDCHAR
STARTCHAR Theta.c2sc
ENCODING -1
SWIDTH 591 0
DWIDTH 7 0
BBX 6 6 0 0
BITMAP
05DEA1
3D318A
68FF9E
68001E
3D318A
05DEA1
ENDCHAR
STARTCHAR Lambda.c2sc
ENCODING -1
SWIDTH 550 0
DWIDTH 6 0
BBX 6 6 0 0
BITMAP
00AA00
01DC20
078780
0D21D0
4B00B5
A5005B
ENDCHAR
STARTCHAR Xi.c2sc
ENCODING -1
SWIDTH 441 0
DWIDTH 5 0
BBX 5 6 0 0
BITMAP
AFFF80
000000
5FFF30
000000
000000
AFFF80
ENDCHAR
STARTCHAR Pi.c2sc
ENCODING -1
SWIDTH 600 0
DWIDTH 7 0
BBX 6 6 0 0
BITMAP
4FFFFD
4B002D
4B002D
4B002D
4B002D
4B002D
ENDCHAR
STARTCHAR Sigma.c2sc
ENCODING -1
SWIDTH 491 0
DWIDTH 5 0
BBX 6 6 0 0
BITMAP
AFFFE0
3D2000
05D100
04D100
3D2000
AFFFF3
ENDCHAR
STARTCHAR Phi.c2sc
ENCODING -1
SWIDTH 675 0
DWIDTH 7 0
BBX 7 6 0 0
BITMAP
000C3000
08DFEB20
5B2C46C0
5B1C46C0
08DFEB20
000C3000
ENDCHAR
STARTCHAR Psi.c2sc
ENCODING -1
SWIDTH 636 0
DWIDTH 7 0
BBX 7 6 0 0
BITMAP
780F0870
780F0870
690F0960
2E3F4E20
05DFD400
000F0000
ENDCHAR
STARTCHAR uni03A9.c2sc
ENCODING -1
SWIDTH 618 0
DWIDTH 7 0
BBX 7 6 0 0
BITMAP
05DEC300
2E315D00
5A000D20
4B000D00
0B506900
5FF5FF30
ENDCHAR
STARTCHAR uni0402.c2sc
ENCODING -1
SWIDTH 680 0
DWIDTH 7 0
BBX 8 6 0 0
BITMAP
CFFFF100
00D20000
00DDFD60
00D412E0
00D202E1
00D25D60
ENDCHAR
STARTCHAR uni0404.c2sc
ENCODING -1
SWIDTH 560 0
DWIDTH 6 0
BBX 6 6 0 0
BITMAP
06DEB1
3B2189
7FFE00
790000
3E3189
06DEB1
ENDCHAR
STARTCHAR uni0409.c2sc
ENCODING -1
SWIDTH 906 0
DWIDTH 10 0
BBX 10 6 0 0
BITMAP
06FFFC0000
07803C0000
08703FFFB1
09603C01A7
1D403C01A7
CB003FFEA1
ENDCHAR
STARTCHAR uni040A.c2sc
ENCODING -1
SWIDTH 913 0
DWIDTH 10 0
BBX 10 6 0 0
BITMAP
4B002D0000
4B002D0000
4FFFFFFFB2
4B002D0089
4B002D0098
4B002FFFB1
ENDCHAR
STARTCHAR uni040B.c2sc
ENCODING -1
SWIDTH 681 0
DWIDTH 8 0
BBX 8 6 0 0
BITMAP
CFFFF100
00D20000
00DDFD60
00D413E0
00D200D2
00D200D2
ENDCHAR
STARTCHAR uni040F.c2sc
ENCODING -1
SWIDTH 600 0
DWIDTH 7 0
BBX 6 8 0 -2
BITMAP
4B002D
4B002D
4B002D
4B002D
4B002D
4FFFFD
003C00
003C00
ENDCHAR
STARTCHAR uni0411.c2sc
ENCODING -1
SWIDTH 543 0
DWIDTH 6 0
BBX 6 6 0 0
BITMAP
4FFFE0
4B0000
4FFEA1
4B01A7
4B01A7
4FFEA1
ENDCHAR
STARTCHAR uni0414.c2sc
ENCODING -1
SWIDTH 642 0
DWIDTH 7 0
BBX 7 8 0 -2
BITMAP
03FFFF00
04B00F00
05A00F00
07800F00
1D200F00
BFFFFFB0
B40004B0
B40004B0
ENDCHAR
STARTCHAR uni0416.c2sc
ENCODING -1
SWIDTH 755 0
DWIDTH 8 0
BBX 8 6 0 0
BITMAP
4D15A0A8
07B5A7B0
00DFFF30
06C5A8A0
1E45A1E4
8B05A06D
ENDCHAR
STARTCHAR uni0417.c2sc
ENCODING -1
SWIDTH 530 0
DWIDTH 6 0
BBX 6 6 0 0
BITMAP
1BEE90
4712E1
00EF80
0002D2
6602D2
2BEE70
ENDCHAR
STARTCHAR uni0418.c2sc
ENCODING -1
SWIDTH 615 0
DWIDTH 7 0
BBX 6 6 0 0
BITMAP
4B005F
4B02DF
4B0B4F
4B880F
4EC00F
4E200F
ENDCHAR
STARTCHAR uni041A.c2sc
ENCODING -1
SWIDTH 538 0
DWIDTH 6 0
BBX 6 6 0 0
BITMAP
4B03D2
4B4D20
4FF500
4B5D10
4B0990
4B01D5
ENDCHAR
STARTCHAR uni041B.c2sc
ENCODING -1
SWIDTH 594 0
DWIDTH 7 0
BBX 6 6 0 0
BITMAP
06FFFC
07803C
08703C
09603C
1D303C
BA003C
ENDCHAR
STARTCHAR uni0423.c2sc
ENCODING -1
SWIDTH 515 0
DWIDTH 6 0
BBX 6 6 0 0
BITMAP
9800C5
2E13D0
097960
02DD00
00C700
0EB100
ENDCHAR
STARTCHAR uni0426.c2sc
ENCODING -1
SWIDTH 644 0
DWIDTH 7 0
BBX 7 8 0 -2
BITMAP
4B002D00
4B002D00
4B002D00
4B002D00
4B002D00
4FFFFFC0
000003B0
000003B0
ENDCHAR
STARTCHAR uni0427.c2sc
ENCODING -1
SWIDTH 551 0
DWIDTH 6 0
BBX 6 6 0 0
BITMAP
A500A5
A500A5
8912B5
2BFEE5
0000A5
0000A5
ENDCHAR
STARTCHAR uni0428.c2sc
ENCODING -1
SWIDTH 789 0
DWIDTH 9 0
BBX 8 6 0 0
BITMAP
4B02D01E
4B02D01E
4B02D01E
4B02D01E
4B02D01E
4FFFFFFE
ENDCHAR
STARTCHAR uni0429.c2sc
ENCODING -1
SWIDTH 833 0
DWIDTH 9 0
BBX 9 8 0 -2
BITMAP
4B02D01E00
4B02D01E00
4B02D01E00
4B02D01E00
4B02D01E00
4FFFFFFFD0
00000002C0
00000002C0
ENDCHAR
STARTCHAR uni042A.c2sc
ENCODING -1
SWIDTH 639 0
DWIDTH 7 0
BBX 7 6 0 0
BITMAP
EFD00000
02D00000
02FFEB10
02D00990
02D00980
02FFFB10
ENDCHAR
STARTCHAR uni042B.c2sc
ENCODING -1
SWIDTH 742 0
DWIDTH 8 0
BBX 8 6 0 0
BITMAP
4B000087
4B000087
4FFEA187
4B01A787
4B01A787
4FFEA187
ENDCHAR
STARTCHAR uni042C.c2sc
ENCODING -1
SWIDTH 538 0
DWIDTH 6 0
BBX 6 6 0 0
BITMAP
4B0000
4B0000
4FFEA1
4B01A7
4B01A7
4FFEA1
ENDCHAR
STARTCHAR uni042D.c2sc
ENCODING -1
SWIDTH 560 0
DWIDTH 6 0
BBX 6 6 0 0
BITMAP
0AEE80
7A11A5
00BFF9
000069
6A12D6
09EE80
ENDCHAR
STARTCHAR uni042E.c2sc
ENCODING -1
SWIDTH 807 0
DWIDTH 9 0
BBX 9 6 0 0
BITMAP
4B04CED400
4B0E714E10
4FFE000A50
4B0E000A50
4B0B713E10
4B01BED400
ENDCHAR
STARTCHAR uni042F.c2sc
ENCODING -1
SWIDTH 565 0
DWIDTH 6 0
BBX 6 6 0 0
BITMAP
08EFF7
3D1087
3D1087
07FFF7
088087
3C0087
ENDCHAR
STARTCHAR uni0492.c2sc
ENCODING -1
SWIDTH 508 0
DWIDTH 6 0
BBX 6 6 0 0
BITMAP
0BFFF5
0B4000
0B4000
EFF700
0B4000
0B4000
ENDCHAR
STARTCHAR uni0496.c2sc
ENCODING -1
SWIDTH 784 0
DWIDTH 9 0
BBX 9 8 0 -2
BITMAP
4D15A0A800
07B5A7B000
00DFFF3000
06C5A8B000
1E45A1E500
8B05A06F70
0000000770
0000000650
ENDCHAR
STARTCHAR uni049A.c2sc
ENCODING -1
SWIDTH 559 0
DWIDTH 6 0
BBX 6 8 0 -2
BITMAP
4B03D2
4B4D20
4FF500
4B5D10
4B09A0
4B01DE
00000E
00000E
ENDCHAR
STARTCHAR uni049C.c2sc
ENCODING -1
SWIDTH 629 0
DWIDTH 7 0
BBX 7 6 0 0
BITMAP
4B303D20
4BC4D200
4FFF5000
4BC5D100
4B109A00
4B001D60
ENDCHAR
STARTCHAR uni04A0.c2sc
ENCODING -1
SWIDTH 651 0
DWIDTH 7 0
BBX 7 6 0 0
BITMAP
CFF01C50
00F2C500
00FF8000
00F2E300
00F06D10
00F00A90
ENDCHAR
STARTCHAR uni04A8.c2sc
ENCODING -1
SWIDTH 719 0
DWIDTH 8 0
BBX 8 6 0 0
BITMAP
07D4DE60
3D2C52E1
780E00C3
690C20E1
2E4595C0
04CEFFB3
ENDCHAR
STARTCHAR uni04B0.c2sc
ENCODING -1
SWIDTH 546 0
DWIDTH 6 0
BBX 6 6 0 0
BITMAP
A700B5
2D15B0
079D30
00D900
0DFF80
00A500
ENDCHAR
STARTCHAR uni04B2.c2sc
ENCODING -1
SWIDTH 582 0
DWIDTH 6 0
BBX 7 8 0 -2
BITMAP
6B00C500
0A789000
01DD1000
01DD1000
0B67C100
7B00BF20
00000C20
00000C20
ENDCHAR
STARTCHAR uni04B4.c2sc
ENCODING -1
SWIDTH 797 0
DWIDTH 9 0
BBX 9 8 0 -2
BITMAP
CFFFF1C400
00D200C400
00D200C400
00D200C400
00D200C400
00DFFFFF20
0000000C20
0000000C10
ENDCHAR
STARTCHAR uni04B8.c2sc
ENCODING -1
SWIDTH 551 0
DWIDTH 6 0
BBX 6 6 0 0
BITMAP
A500A5
A521A5
8995B5
2BFEE5
0084A5
0000A5
ENDCHAR
STARTCHAR uni04BA.c2sc
ENCODING -1
SWIDTH 551 0
DWIDTH 6 0
BBX 6 6 0 0
BITMAP
4B0000
4B0000
4EEFC2
4C2189
4B004B
4B004B
ENDCHAR
STARTCHAR uni04BC.c2sc
ENCODING -1
SWIDTH 720 0
DWIDTH 8 0
BBX 8 6 0 0
BITMAP
001BED50
30B813D2
C3E00095
4DFFFFF7
00E40120
004CEE70
ENDCHAR
STARTCHAR uni04D8.c2sc
ENCODING -1
SWIDTH 598 0
DWIDTH 7 0
BBX 7 6 0 0
BITMAP
07EEA200
03119B00
00000F00
7FFFFF10
4B105B00
07DFB200
ENDCHAR
STARTCHAR uni04E0.c2sc
ENCODING -1
SWIDTH 530 0
DWIDTH 6 0
BBX 6 6 0 0
BITMAP
6FFFF0
005A20
00DE70
0002D2
6712D2
2BED70
ENDCHAR
STARTCHAR uni04E8.c2sc
ENCODING -1
SWIDTH 591 0
DWIDTH 7 0
BBX 6 6 0 0
BITMAP
05DEA1
3B205A
6FFFFE
69001E
3E319A
05DEA1
ENDCHAR
STARTCHAR lira.c2sc
ENCODING -1
SWIDTH 524 0
DWIDTH 6 0
BBX 6 6 0 0
BITMAP
05EE90
0D4181
BFFF40
0D2000
BFFF40
6FFFF6
ENDCHAR
STARTCHAR Euro.c2sc
ENCODING -1
SWIDTH 485 0
DWIDTH 5 0
BBX 5 6 0 0
BITMAP
02BEC0
0A8010
AFFF60
0C3000
AFFF70
06DFC0
ENDCHAR
STARTCHAR uni2116.c2sc
ENCODING -1
SWIDTH 1016 0
DWIDTH 11 0
BBX 11 6 0 0
BITMAP
4E200F08EC20
4EC00F1D1870
4B880F1D1870
4B0C4F08EC20
4B02DF000000
4B006F0CFF30
ENDCHAR
STARTCHAR uni20BD.c2sc
ENCODING -1
SWIDTH 583 0
DWIDTH 6 0
BBX 6 6 0 0
BITMAP
0BFFE7
0B403F
CFFFE7
0B4000
CFF900
0B4000
ENDCHAR
STARTCHAR three.dnom
ENCODING -1
SWIDTH 366 0
DWIDTH 4 0
BBX 4 4 0 0
BITMAP
5EE4
09F3
4378
4ED3
ENDCHAR
STARTCHAR four.dnom
ENCODING -1
SWIDTH 366 0
DWIDTH 4 0
BBX 4 4 0 0
BITMAP
03E3
29B3
AFFB
00A3
ENDCHAR
STARTCHAR five.dnom
ENCODING -1
SWIDTH 366 0
DWIDTH 4 0
BBX 4 4 0 0
BITMAP
3FF7
4CE4
2269
3DE4
ENDCHAR
STARTCHAR six.dnom
ENCODING -1
SWIDTH 366 0
DWIDTH 4 0
BBX 4 4 0 0
BITMAP
0AE0
6FE5
8769
3DE4
ENDCHAR
STARTCHAR seven.dnom
ENCODING -1
SWIDTH 366 0
DWIDTH 4 0
BBX 4 4 0 0
BITMAP
AFF9
0083
0390
0B10
ENDCHAR
STARTCHAR eight.dnom
ENCODING -1
SWIDTH 366 0
DWIDTH 4 0
BBX 4 4 0 0
BITMAP
4EE5
3FF3
8778
4EE4
ENDCHAR
STARTCHAR nine.dnom
ENCODING -1
SWIDTH 366 0
DWIDTH 4 0
BBX 4 4 0 0
BITMAP
5ED3
6EE8
01A7
0DB1
ENDCHAR
STARTCHAR glyph550
ENCODING -1
SWIDTH 448 0
DWIDTH 5 0
BBX 5 1 0 3
BITMAP
4FFF30
ENDCHAR
STARTCHAR glyph551
ENCODING -1
SWIDTH 338 0
DWIDTH 4 0
BBX 4 4 0 6
BITMAP
01D1
0470
1D70
1D70
ENDCHAR
STARTCHAR E.c2sc
ENCODING -1
SWIDTH 487 0
DWIDTH 5 0
BBX 6 6 0 0
BITMAP
4FFFF0
4B0000
4FFF90
4B0000
4B0000
4FFFF1
ENDCHAR
STARTCHAR g.ss01
ENCODING -1
SWIDTH 528 0
DWIDTH 6 0
BBX 6 8 0 -2
BITMAP
0AEFF9
6B13E0
6B13E1
0CED50
1C0000
2FFFC2
B602B7
5DFD91
ENDCHAR
STARTCHAR alpha.ss02
ENCODING -1
SWIDTH 595 0
DWIDTH 7 0
BBX 6 6 0 0
BITMAP
07ED5D
2E32DA
690087
690087
3D22DA
08ED4D
ENDCHAR
STARTCHAR R.ss03
ENCODING -1
SWIDTH 662 0
DWIDTH 7 0
BBX 7 8 0 0
BITMAP
1FFFD700
1F002D30
1F000A60
1F002D20
1FFFF900
1F002D30
1F000A50
1F000880
ENDCHAR
STARTCHAR K.ss04
ENCODING -1
SWIDTH 642 0
DWIDTH 7 0
BBX 7 8 0 0
BITMAP
1F001D60
1F01C700
1F0B9000
1FFE1000
1F0B9000
1F01E400
1F004E10
1F0009A0
ENDCHAR
STARTCHAR k.ss04
ENCODING -1
SWIDTH 509 0
DWIDTH 6 0
BBX 6 9 0 0
BITMAP
3C0000
3C0000
3C0000
3C04C1
3C3D20
3FF700
3C3E10
3C08A0
3C01D4
ENDCHAR
STARTCHAR K.ss05
ENCODING -1
SWIDTH 654 0
DWIDTH 7 0
BBX 7 8 0 0
BITMAP
1F003D30
1F02D400
1F2D5000
1FC70000
1FB90000
1F0B8000
1F01C700
1F001C60
ENDCHAR
STARTCHAR k.ss05
ENCODING -1
SWIDTH 507 0
DWIDTH 6 0
BBX 6 9 0 0
BITMAP
3C0000
3C0000
3C0000
3C08B0
3C7C10
3ED100
3DD500
3C2D30
3C04D2
ENDCHAR
STARTCHAR D.c2sc
ENCODING -1
SWIDTH 562 0
DWIDTH 6 0
BBX 6 6 0 0
BITMAP
4FFD70
4B02C5
4B0069
4B0069
4B03D5
4FFD60
ENDCHAR
STARTCHAR C.c2sc
ENCODING -1
SWIDTH 560 0
DWIDTH 6 0
BBX 6 6 0 0
BITMAP
06DEA1
3D3199
780012
780001
3D2199
06DEA1
ENDCHAR
STARTCHAR B.c2sc
ENCODING -1
SWIDTH 539 0
DWIDTH 6 0
BBX 6 6 0 0
BITMAP
4FFEA0
4B02E2
4FFFA0
4B01C4
4B01B5
4FFEA0
ENDCHAR
STARTCHAR A.c2sc
ENCODING -1
SWIDTH 564 0
DWIDTH 6 0
BBX 6 6 0 0
BITMAP
008C00
01DC30
069690
0C31E1
4FFFF7
A6003D
ENDCHAR
STARTCHAR glyph564
ENCODING -1
SWIDTH 248 0
DWIDTH 3 0
BBX 3 2 0 7
BITMAP
0B10
2D00
ENDCHAR
STARTCHAR glyph565
ENCODING -1
SWIDTH 455 0
DWIDTH 5 0
BBX 4 4 0 7
BITMAP
0840
0170
4A2D
0AE6
ENDCHAR
STARTCHAR glyph566
ENCODING -1
SWIDTH 0 0
DWIDTH 0 0
BBX 4 4 -5 7
BITMAP
02C0
0550
4C44
73D1
ENDCHAR
STARTCHAR glyph567
ENCODING -1
SWIDTH 491 0
DWIDTH 5 0
BBX 6 3 0 7
BITMAP
00005B
06E793
2C2C30
ENDCHAR
STARTCHAR glyph568
ENCODING -1
SWIDTH 493 0
DWIDTH 5 0
BBX 6 3 -1 7
BITMAP
970000
2A6E70
02C2C3
ENDCHAR
STARTCHAR glyph569
ENCODING -1
SWIDTH 506 0
DWIDTH 6 0
BBX 6 5 0 7
BITMAP
0000A2
000085
0000B1
07D800
2B1B30
ENDCHAR
STARTCHAR glyph570
ENCODING -1
SWIDTH 494 0
DWIDTH 5 0
BBX 5 4 0 7
BITMAP
088700
078900
06E600
2B1B30
ENDCHAR
STARTCHAR uni0490.c2sc
ENCODING -1
SWIDTH 460 0
DWIDTH 5 0
BBX 5 8 0 0
BITMAP
000290
0002D0
4FFFD0
4B0000
4B0000
4B0000
4B0000
4B0000
ENDCHAR
STARTCHAR glyph572
ENCODING -1
SWIDTH 452 0
DWIDTH 5 0
BBX 4 4 0 7
BITMAP
0093
0090
4A2D
0AE6
ENDCHAR
STARTCHAR glyph573
ENCODING -1
SWIDTH 452 0
DWIDTH 5 0
BBX 4 5 0 7
BITMAP
0193
00A6
01C1
4A2B
0BE4
ENDCHAR
STARTCHAR zero.numr
ENCODING -1
SWIDTH 366 0
DWIDTH 4 0
BBX 4 4 0 4
BITMAP
3DD3
8668
8668
3DE3
ENDCHAR
STARTCHAR four.numr
ENCODING -1
SWIDTH 366 0
DWIDTH 4 0
BBX 4 4 0 4
BITMAP
03E3
29B3
AFFB
00A3
ENDCHAR
STARTCHAR five.numr
ENCODING -1
SWIDTH 366 0
DWIDTH 4 0
BBX 4 4 0 4
BITMAP
3FF7
4CE4
2269
3DE4
ENDCHAR
STARTCHAR six.numr
ENCODING -1
SWIDTH 366 0
DWIDTH 4 0
BBX 4 4 0 4
BITMAP
0AE0
6FE5
8769
3DE4
ENDCHAR
STARTCHAR seven.numr
ENCODING -1
SWIDTH 366 0
DWIDTH 4 0
BBX 4 4 0 4
BITMAP
AFF9
0083
0390
0B10
ENDCHAR
STARTCHAR eight.numr
ENCODING -1
SWIDTH 366 0
DWIDTH 4 0
BBX 4 4 0 4
BITMAP
4EE5
3FF3
8778
4EE4
ENDCHAR
STARTCHAR nine.numr
ENCODING -1
SWIDTH 366 0
DWIDTH 4 0
BBX 4 4 0 4
BITMAP
5ED3
6EE8
01A7
0DB1
ENDCHAR
STARTCHAR C.ss06
ENCODING -1
SWIDTH 687 0
DWIDTH 8 0
BBX 7 8 0 0
BITMAP
019EE910
0AA219A0
2E100190
4B000000
4B000000
2E100180
0AA219A0
019EEA10
ENDCHAR
STARTCHAR G.ss06
ENCODING -1
SWIDTH 709 0
DWIDTH 8 0
BBX 7 8 0 0
BITMAP
019EEB20
0AA216D0
2E100000
4B000000
4B00CFF0
2E1000F0
09B214F0
008EFC50
ENDCHAR
STARTCHAR D.ss06
ENCODING -1
SWIDTH 696 0
DWIDTH 8 0
BBX 7 8 0 0
BITMAP
1FFFC400
1F015E40
1F0006B0
1F0002E0
1F0002E0
1F0006B0
1F015E40
1FFEB400
ENDCHAR
STARTCHAR O.ss06
ENCODING -1
SWIDTH 734 0
DWIDTH 8 0
BBX 8 8 0 0
BITMAP
008EE910
09B21AA0
2E1000E2
4B0000A5
4B0000A5
2E1000E2
09A21AB0
008EE910
ENDCHAR
STARTCHAR Q.ss06
ENCODING -1
SWIDTH 735 0
DWIDTH 8 0
BBX 8 10 0 -2
BITMAP
008EE910
09A21AA0
1E1000E2
4B0000A5
4B0000A5
2E1000E2
09A21AB0
008EFE10
000009B0
00000010
ENDCHAR
STARTCHAR one.oldstyle.pnum
ENCODING -1
SWIDTH 479 0
DWIDTH 5 0
BBX 4 6 0 0
BITMAP
039B
2B8C
002C
002C
002C
002C
ENDCHAR
STARTCHAR two.oldstyle.pnum
ENCODING -1
SWIDTH 563 0
DWIDTH 6 0
BBX 6 6 0 0
BITMAP
05DEA0
2E21C5
1202C2
003C30
06B200
2FFFFA
ENDCHAR
STARTCHAR three.oldstyle.pnum
ENCODING -1
SWIDTH 542 0
DWIDTH 6 0
BBX 6 8 0 -2
BITMAP
8FFFF3
000780
006900
00FD60
0004E2
0000B4
4115D1
7DEC30
ENDCHAR
STARTCHAR four.oldstyle.pnum
ENCODING -1
SWIDTH 601 0
DWIDTH 7 0
BBX 7 8 0 -2
BITMAP
0002E400
000CD400
0086B400
04A0B400
1B10B400
9FFFFF50
0000B400
0000B400
ENDCHAR
STARTCHAR five.oldstyle.pnum
ENCODING -1
SWIDTH 552 0
DWIDTH 6 0
BBX 6 8 0 -2
BITMAP
0CFFF8
0D0000
1D0000
2EDE90
2812C5
000087
2413D4
2BED60
ENDCHAR
STARTCHAR seven.oldstyle.pnum
ENCODING -1
SWIDTH 522 0
DWIDTH 6 0
BBX 6 8 0 -2
BITMAP
9FFFF6
0000C1
000590
000C30
004B00
00A400
02C000
096000
ENDCHAR
STARTCHAR glyph592
ENCODING -1
SWIDTH 455 0
DWIDTH 5 0
BBX 4 4 0 7
BITMAP
0C68
16A7
3A2C
0BE5
ENDCHAR
STARTCHAR glyph593
ENCODING -1
SWIDTH 195 0
DWIDTH 2 0
BBX 2 3 0 -2
BITMAP
78
78
78
ENDCHAR
STARTCHAR OE.c2sc
ENCODING -1
SWIDTH 830 0
DWIDTH 9 0
BBX 9 6 0 0
BITMAP
05DFFFFFC0
3D30880000
68007FFF50
6800780000
3D30780000
05DFFFFFC0
ENDCHAR
STARTCHAR nine.oldstyle.pnum
ENCODING -1
SWIDTH 590 0
DWIDTH 7 0
BBX 6 8 0 -2
BITMAP
05DEA1
2E3198
4B003C
2E317D
05DECC
00007A
0214E4
09FD60
ENDCHAR
STARTCHAR glyph596
ENCODING -1
SWIDTH 248 0
DWIDTH 3 0
BBX 3 3 -1 -2
BITMAP
01E0
03D0
5E60
ENDCHAR
STARTCHAR three.oldstyle
ENCODING -1
SWIDTH 562 0
DWIDTH 6 0
BBX 6 8 0 -2
BITMAP
4FFFF6
0004B1
003B10
00CE80
0002C5
000087
3203D3
5CED50
ENDCHAR
STARTCHAR five.oldstyle
ENCODING -1
SWIDTH 562 0
DWIDTH 6 0
BBX 6 8 0 -2
BITMAP
0BFFF9
0D1000
0E0000
1EDEA0
1812B6
000078
1412C5
2BED70
ENDCHAR
STARTCHAR four.oldstyle
ENCODING -1
SWIDTH 562 0
DWIDTH 6 0
BBX 7 8 0 -2
BITMAP
0004F200
001CE200
00A4D200
0680D200
3A00D200
BFFFFF30
0000D200
0000D200
ENDCHAR
STARTCHAR two.oldstyle
ENCODING -1
SWIDTH 562 0
DWIDTH 6 0
BBX 6 6 0 0
BITMAP
06EE90
3D22C4
1202C1
004C30
07B100
2FFFF9
ENDCHAR
STARTCHAR seven.oldstyle
ENCODING -1
SWIDTH 562 0
DWIDTH 6 0
BBX 6 8 0 -2
BITMAP
6FFFFA
000094
0002C0
000860
001D10
007800
00D100
069000
ENDCHAR
STARTCHAR zero.oldstyle
ENCODING -1
SWIDTH 562 0
DWIDTH 6 0
BBX 6 6 0 0
BITMAP
08DE91
5C21A8
A5003C
95003C
5C21A8
08EE91
ENDCHAR
STARTCHAR six.oldstyle
ENCODING -1
SWIDTH 562 0
DWIDTH 6 0
BBX 6 8 0 0
BITMAP
008D80
09B300
1E1000
4DCEA0
5E31B6
4B0069
1D41B6
04DE90
ENDCHAR
STARTCHAR nine.oldstyle
ENCODING -1
SWIDTH 562 0
DWIDTH 6 0
BBX 6 8 0 -2
BITMAP
08EE80
4D21B5
780069
4D21AA
08EEC9
0000A7
0215E2
0CFC40
ENDCHAR
STARTCHAR eight.oldstyle
ENCODING -1
SWIDTH 562 0
DWIDTH 6 0
BBX 6 8 0 0
BITMAP
07EE90
2E21C4
1D21C3
07FF90
2D22C4
5A0078
3D21C6
07EE90
ENDCHAR
STARTCHAR one.oldstyle
ENCODING -1
SWIDTH 562 0
DWIDTH 6 0
BBX 4 6 1 0
BITMAP
16C4
98C4
00B4
00B4
00B4
00B4
ENDCHAR
STARTCHAR glyph607
ENCODING -1
SWIDTH 252 0
DWIDTH 3 0
BBX 3 8 -1 -2
BITMAP
01E0
01E0
01E0
01E0
01E0
01E0
04D0
5E60
ENDCHAR
STARTCHAR glyph608
ENCODING -1
SWIDTH 251 0
DWIDTH 3 0
BBX 3 8 -1 -2
BITMAP
01E0
01E0
01E0
01E0
01E0
01E0
04D0
5E60
ENDCHAR
STARTCHAR glyph609
ENCODING -1
SWIDTH 247 0
DWIDTH 3 0
BBX 2 6 0 0
BITMAP
3C
3C
3C
3C
3C
3C
ENDCHAR
STARTCHAR glyph610
ENCODING -1
SWIDTH 247 0
DWIDTH 3 0
BBX 2 8 0 -2
BITMAP
3C
3C
3C
3C
3C
8F
D1
CB
ENDCHAR
STARTCHAR glyph611
ENCODING -1
SWIDTH 247 0
DWIDTH 3 0
BBX 2 6 0 0
BITMAP
3C
3C
3C
3C
3C
3C
ENDCHAR
STARTCHAR germandbls.sc
ENCODING -1
SWIDTH 539 0
DWIDTH 6 0
BBX 6 6 0 0
BITMAP
08EE80
2E3A30
4B7FB1
4B01B6
4B11B5
4BAEA0
ENDCHAR
STARTCHAR zero.oldstyle.pnum
ENCODING -1
SWIDTH 625 0
DWIDTH 7 0
BBX 7 6 0 0
BITMAP
04CEC300
1E416D00
4B000C20
4B000C20
1E415D00
04CEC300
ENDCHAR
STARTCHAR seven.pnum
ENCODING -1
SWIDTH 515 0
DWIDTH 6 0
BBX 6 8 0 0
BITMAP
AFFFF3
0001C0
000670
000C10
004A00
00B300
03C000
096000
ENDCHAR
STARTCHAR b.ss06
ENCODING -1
SWIDTH 561 0
DWIDTH 6 0
BBX 6 8 0 0
BITMAP
4B0000
4B0000
4DBEA1
4E31B7
4B004B
4B004B
4E31B7
4BBEA1
ENDCHAR
STARTCHAR c.ss06
ENCODING -1
SWIDTH 524 0
DWIDTH 6 0
BBX 6 6 0 0
BITMAP
07EE80
3D21C4
780011
780000
3D21B4
06DE70
ENDCHAR
STARTCHAR d.ss06
ENCODING -1
SWIDTH 571 0
DWIDTH 6 0
BBX 6 8 0 0
BITMAP
000088
000088
07EDB8
3E31B8
780088
780088
3E31B8
07EDA8
ENDCHAR
STARTCHAR g.ss06
ENCODING -1
SWIDTH 568 0
DWIDTH 6 0
BBX 6 8 0 -2
BITMAP
07EDA8
3E31B8
780088
780088
3E31C8
07EDC7
0412C4
08EE80
ENDCHAR
STARTCHAR o.ss06
ENCODING -1
SWIDTH 577 0
DWIDTH 6 0
BBX 6 6 0 0
BITMAP
06DE90
3E31B7
79003C
78003C
3E31A8
06DE91
ENDCHAR
STARTCHAR p.ss06
ENCODING -1
SWIDTH 568 0
DWIDTH 6 0
BBX 6 8 0 -2
BITMAP
4BBEA0
4E31B7
4B004B
4B005B
4E31B7
4DCEA0
4B0000
4B0000
ENDCHAR
STARTCHAR q.ss06
ENCODING -1
SWIDTH 576 0
DWIDTH 6 0
BBX 6 8 0 -2
BITMAP
07EDA8
3E31B8
780088
780088
3E31B8
07EDC8
000088
000088
ENDCHAR
STARTCHAR e.ss07
ENCODING -1
SWIDTH 529 0
DWIDTH 6 0
BBX 6 6 0 0
BITMAP
06EE80
3C11B4
7FFFF6
790000
3E4140
05DEB1
ENDCHAR
STARTCHAR g.ss07
ENCODING -1
SWIDTH 561 0
DWIDTH 6 0
BBX 6 8 0 -2
BITMAP
07EDA6
3E22C6
690096
690096
3D22C6
07EDC6
0312D3
08EE70
ENDCHAR
STARTCHAR one.pnum
ENCODING -1
SWIDTH 434 0
DWIDTH 5 0
BBX 4 8 0 0
BITMAP
15B7
79A7
0087
0087
0087
0087
0087
0087
ENDCHAR
STARTCHAR ampersand.c2sc
ENCODING -1
SWIDTH 604 0
DWIDTH 7 0
BBX 7 6 0 0
BITMAP
08EC2000
0E2B5000
06DA0100
1C8C4C00
6A15F600
1BFD9C10
ENDCHAR
STARTCHAR Lslash.c2sc
ENCODING -1
SWIDTH 462 0
DWIDTH 5 0
BBX 5 6 0 0
BITMAP
4B0000
4B0000
5DC200
ED3000
4B0000
4FFFD0
ENDCHAR
STARTCHAR AE.c2sc
ENCODING -1
SWIDTH 777 0
DWIDTH 9 0
BBX 9 6 0 0
BITMAP
000AFFFE00
004AE10000
00D3DFF900
07A0D20000
2EFFF30000
A800CFFF30
ENDCHAR
STARTCHAR Thorn.c2sc
ENCODING -1
SWIDTH 496 0
DWIDTH 5 0
BBX 5 6 0 0
BITMAP
4B0000
4FFD50
4B03E0
4B03E0
4FFD60
4B0000
ENDCHAR
STARTCHAR Oslash.c2sc
ENCODING -1
SWIDTH 591 0
DWIDTH 7 0
BBX 6 8 0 -1
BITMAP
000002
05DEC8
3E32DA
680A2E
68751E
3D918A
1CDEA1
120000
ENDCHAR
STARTCHAR Hbar.c2sc
ENCODING -1
SWIDTH 610 0
DWIDTH 7 0
BBX 7 6 0 0
BITMAP
4B000F00
BFFFFF70
4B000F00
4FFFFF00
4B000F00
4B000F00
ENDCHAR
STARTCHAR Eng.c2sc
ENCODING -1
SWIDTH 610 0
DWIDTH 7 0
BBX 6 8 0 -2
BITMAP
4E200F
4EC00F
4B780F
4B0A4F
4B01CF
4B003F
00003E
0004E7
ENDCHAR
STARTCHAR Dcroat.c2sc
ENCODING -1
SWIDTH 562 0
DWIDTH 6 0
BBX 7 6 -1 0
BITMAP
04FFD700
04B02C50
5FFF1690
04B00690
04B03D50
04FFD600
ENDCHAR
STARTCHAR Eth.c2sc
ENCODING -1
SWIDTH 562 0
DWIDTH 6 0
BBX 7 6 -1 0
BITMAP
04FFD700
04B02C50
5FFF1690
04B00690
04B03D50
04FFD600
ENDCHAR
STARTCHAR Tbar.c2sc
ENCODING -1
SWIDTH 518 0
DWIDTH 6 0
BBX 6 6 0 0
BITMAP
CFFFF7
00A500
0DFF80
00A500
00A500
00A500
ENDCHAR
STARTCHAR Agrave.c2sc
ENCODING -1
SWIDTH 564 0
DWIDTH 6 0
BBX 6 9 0 0
BITMAP
03D100
008600
000000
008C00
01DC30
069690
0C31E1
4FFFF7
A6003D
ENDCHAR
STARTCHAR Aacute.c2sc
ENCODING -1
SWIDTH 564 0
DWIDTH 6 0
BBX 6 9 0 0
BITMAP
000B70
003A00
000000
008C00
01DC30
069690
0C31E1
4FFFF7
A6003D
ENDCHAR
STARTCHAR Acircumflex.c2sc
ENCODING -1
SWIDTH 564 0
DWIDTH 6 0
BBX 6 9 0 0
BITMAP
009C10
049670
000000
008C00
01DC30
069690
0C31E1
4FFFF7
A6003D
ENDCHAR
STARTCHAR Atilde.c2sc
ENCODING -1
SWIDTH 564 0
DWIDTH 6 0
BBX 6 9 0 0
BITMAP
05D3B0
0A2C90
000000
008C00
01DC30
069690
0C31E1
4FFFF7
A6003D
ENDCHAR
STARTCHAR Adieresis.c2sc
ENCODING -1
SWIDTH 564 0
DWIDTH 6 0
BBX 6 9 0 0
BITMAP
000010
0773B0
000000
008C00
01DC30
069690
0C31E1
4FFFF7
A6003D
ENDCHAR
STARTCHAR Aring.c2sc
ENCODING -1
SWIDTH 564 0
DWIDTH 6 0
BBX 6 9 0 0
BITMAP
009920
009920
000000
008C00
01DC30
069690
0C31E1
4FFFF7
A6003D
ENDCHAR
STARTCHAR Aringacute.c2sc
ENCODING -1
SWIDTH 564 0
DWIDTH 6 0
BBX 6 10 0 0
BITMAP
000860
000A00
009D00
009D00
008C00
01DC30
069690
0C31E1
4FFFF7
A6003D
ENDCHAR
STARTCHAR Ccedilla.c2sc
ENCODING -1
SWIDTH 560 0
DWIDTH 6 0
BBX 6 9 0 -3
BITMAP
06DEA1
3D3199
780012
780001
3D2199
06DEA1
003B10
002C30
003600
ENDCHAR
STARTCHAR Egrave.c2sc
ENCODING -1
SWIDTH 487 0
DWIDTH 5 0
BBX 6 9 0 0
BITMAP
07B000
00A300
000000
4FFFF0
4B0000
4FFF90
4B0000
4B0000
4FFFF1
ENDCHAR
STARTCHAR Eacute.c2sc
ENCODING -1
SWIDTH 487 0
DWIDTH 5 0
BBX 6 9 0 0
BITMAP
001D30
006700
000000
4FFFF0
4B0000
4FFF90
4B0000
4B0000
4FFFF1
ENDCHAR
STARTCHAR Ecircumflex.c2sc
ENCODING -1
SWIDTH 487 0
DWIDTH 5 0
BBX 6 9 0 0
BITMAP
01C900
076930
000000
4FFFF0
4B0000
4FFF90
4B0000
4B0000
4FFFF1
ENDCHAR
STARTCHAR Edieresis.c2sc
ENCODING -1
SWIDTH 487 0
DWIDTH 5 0
BBX 6 9 0 0
BITMAP
010000
0B3680
000000
4FFFF0
4B0000
4FFF90
4B0000
4B0000
4FFFF1
ENDCHAR
STARTCHAR Igrave.c2sc
ENCODING -1
SWIDTH 238 0
DWIDTH 3 0
BBX 3 9 -1 0
BITMAP
1D30
0590
0000
03C0
03C0
03C0
03C0
03C0
03C0
ENDCHAR
STARTCHAR Iacute.c2sc
ENCODING -1
SWIDTH 238 0
DWIDTH 3 0
BBX 3 9 0 0
BITMAP
08A0
1B10
0000
3C00
3C00
3C00
3C00
3C00
3C00
ENDCHAR
STARTCHAR Icircumflex.c2sc
ENCODING -1
SWIDTH 238 0
DWIDTH 3 0
BBX 4 9 -1 0
BITMAP
07D2
2B49
0000
03C0
03C0
03C0
03C0
03C0
03C0
ENDCHAR
STARTCHAR Idieresis.c2sc
ENCODING -1
SWIDTH 238 0
DWIDTH 3 0
BBX 4 9 -1 0
BITMAP
0101
490D
0000
03C0
03C0
03C0
03C0
03C0
03C0
ENDCHAR
STARTCHAR Ntilde.c2sc
ENCODING -1
SWIDTH 610 0
DWIDTH 7 0
BBX 6 9 0 0
BITMAP
02E583
074AC0
000000
4E200F
4EC00F
4B880F
4B0C4F
4B02DF
4B006F
ENDCHAR
STARTCHAR Ograve.c2sc
ENCODING -1
SWIDTH 591 0
DWIDTH 7 0
BBX 6 9 0 0
BITMAP
02E200
006800
000000
05DEA1
3D318A
68001E
68001E
3D318A
05DEA1
ENDCHAR
STARTCHAR Oacute.c2sc
ENCODING -1
SWIDTH 591 0
DWIDTH 7 0
BBX 6 9 0 0
BITMAP
000990
001B10
000000
05DEA1
3D318A
68001E
68001E
3D318A
05DEA1
ENDCHAR
STARTCHAR Ocircumflex.c2sc
ENCODING -1
SWIDTH 591 0
DWIDTH 7 0
BBX 6 9 0 0
BITMAP
008D20
02B490
000000
05DEA1
3D318A
68001E
68001E
3D318A
05DEA1
ENDCHAR
STARTCHAR Otilde.c2sc
ENCODING -1
SWIDTH 591 0
DWIDTH 7 0
BBX 6 9 0 0
BITMAP
03E4A1
093BB0
000000
05DEA1
3D318A
68001E
68001E
3D318A
05DEA1
ENDCHAR
STARTCHAR Odieresis.c2sc
ENCODING -1
SWIDTH 591 0
DWIDTH 7 0
BBX 6 9 0 0
BITMAP
001010
0591D0
000000
05DEA1
3D318A
68001E
68001E
3D318A
05DEA1
ENDCHAR
STARTCHAR Ugrave.c2sc
ENCODING -1
SWIDTH 560 0
DWIDTH 6 0
BBX 6 9 0 0
BITMAP
04D100
008500
000000
690078
690078
690078
690078
4D21B6
08EEA0
ENDCHAR
STARTCHAR Uacute.c2sc
ENCODING -1
SWIDTH 560 0
DWIDTH 6 0
BBX 6 9 0 0
BITMAP
000B60
003A00
000000
690078
690078
690078
690078
4D21B6
08EEA0
ENDCHAR
STARTCHAR Ucircumflex.c2sc
ENCODING -1
SWIDTH 560 0
DWIDTH 6 0
BBX 6 9 0 0
BITMAP
00AC10
049760
000000
690078
690078
690078
690078
4D21B6
08EEA0
ENDCHAR
STARTCHAR Udieresis.c2sc
ENCODING -1
SWIDTH 560 0
DWIDTH 6 0
BBX 6 9 0 0
BITMAP
000010
0863B0
000000
690078
690078
690078
690078
4D21B6
08EEA0
ENDCHAR
STARTCHAR Yacute.c2sc
ENCODING -1
SWIDTH 520 0
DWIDTH 6 0
BBX 6 9 0 0
BITMAP
001D30
006700
000000
A700B5
2D15B0
079D30
00D900
00A500
00A500
ENDCHAR
STARTCHAR Amacron.c2sc
ENCODING -1
SWIDTH 564 0
DWIDTH 6 0
BBX 6 8 0 0
BITMAP
0AFFE0
000000
008C00
01DC30
069690
0C31E1
4FFFF7
A6003D
ENDCHAR
STARTCHAR Abreve.c2sc
ENCODING -1
SWIDTH 564 0
DWIDTH 6 0
BBX 6 9 0 0
BITMAP
0684A0
01CE30
000000
008C00
01DC30
069690
0C31E1
4FFFF7
A6003D
ENDCHAR
STARTCHAR Aogonek.c2sc
ENCODING -1
SWIDTH 564 0
DWIDTH 6 0
BBX 6 8 0 -2
BITMAP
008C00
01DC30
069690
0C31E1
4FFFF7
A6003D
000085
0000AD
ENDCHAR
STARTCHAR Cacute.c2sc
ENCODING -1
SWIDTH 560 0
DWIDTH 6 0
BBX 6 9 0 0
BITMAP
000B70
002B00
000000
06DEA1
3D3199
780012
780001
3D2199
06DEA1
ENDCHAR
STARTCHAR Ccircumflex.c2sc
ENCODING -1
SWIDTH 560 0
DWIDTH 6 0
BBX 6 9 0 0
BITMAP
009C10
03A670
000000
06DEA1
3D3199
780012
780001
3D2199
06DEA1
ENDCHAR
STARTCHAR Cdotaccent.c2sc
ENCODING -1
SWIDTH 560 0
DWIDTH 6 0
BBX 6 9 0 0
BITMAP
000100
005900
000000
06DEA1
3D3199
780012
780001
3D2199
06DEA1
ENDCHAR
STARTCHAR Ccaron.c2sc
ENCODING -1
SWIDTH 560 0
DWIDTH 6 0
BBX 6 9 0 0
BITMAP
03A680
008B00
000000
06DEA1
3D3199
780012
780001
3D2199
06DEA1
ENDCHAR
STARTCHAR Dcaron.c2sc
ENCODING -1
SWIDTH 562 0
DWIDTH 6 0
BBX 6 9 0 0
BITMAP
0A4B20
01D500
000000
4FFD70
4B02C5
4B0069
4B0069
4B03D5
4FFD60
ENDCHAR
STARTCHAR Emacron.c2sc
ENCODING -1
SWIDTH 487 0
DWIDTH 5 0
BBX 6 8 0 0
BITMAP
0DFFB0
000000
4FFFF0
4B0000
4FFF90
4B0000
4B0000
4FFFF1
ENDCHAR
STARTCHAR Ebreve.c2sc
ENCODING -1
SWIDTH 487 0
DWIDTH 5 0
BBX 6 9 0 0
BITMAP
0A4860
03EC10
000000
4FFFF0
4B0000
4FFF90
4B0000
4B0000
4FFFF1
ENDCHAR
STARTCHAR Edotaccent.c2sc
ENCODING -1
SWIDTH 487 0
DWIDTH 5 0
BBX 6 9 0 0
BITMAP
001000
009500
000000
4FFFF0
4B0000
4FFF90
4B0000
4B0000
4FFFF1
ENDCHAR
STARTCHAR Eogonek.c2sc
ENCODING -1
SWIDTH 487 0
DWIDTH 5 0
BBX 6 8 0 -2
BITMAP
4FFFF0
4B0000
4FFF90
4B0000
4B0000
4FFFF1
000A30
000CB0
ENDCHAR
STARTCHAR Ecaron.c2sc
ENCODING -1
SWIDTH 487 0
DWIDTH 5 0
BBX 6 9 0 0
BITMAP
076A40
00B800
000000
4FFFF0
4B0000
4FFF90
4B0000
4B0000
4FFFF1
ENDCHAR
STARTCHAR Gcircumflex.c2sc
ENCODING -1
SWIDTH 583 0
DWIDTH 6 0
BBX 6 9 0 0
BITMAP
009C10
03A670
000000
06DEB2
3D3078
690000
690BFC
2E304C
05DED6
ENDCHAR
STARTCHAR Gbreve.c2sc
ENCODING -1
SWIDTH 583 0
DWIDTH 6 0
BBX 6 9 0 0
BITMAP
0684A0
01CE30
000000
06DEB2
3D3078
690000
690BFC
2E304C
05DED6
ENDCHAR
STARTCHAR Gdotaccent.c2sc
ENCODING -1
SWIDTH 583 0
DWIDTH 6 0
BBX 6 9 0 0
BITMAP
000100
005900
000000
06DEB2
3D3078
690000
690BFC
2E304C
05DED6
ENDCHAR
STARTCHAR uni0122.c2sc
ENCODING -1
SWIDTH 583 0
DWIDTH 6 0
BBX 6 9 0 -3
BITMAP
06DEB2
3D3078
690000
690BFC
2E304C
05DED6
000000
005900
007400
ENDCHAR
STARTCHAR Hcircumflex.c2sc
ENCODING -1
SWIDTH 610 0
DWIDTH 7 0
BBX 6 9 0 0
BITMAP
007D20
02B490
000000
4B000F
4B000F
4FFFFF
4B000F
4B000F
4B000F
ENDCHAR
STARTCHAR Itilde.c2sc
ENCODING -1
SWIDTH 238 0
DWIDTH 3 0
BBX 5 9 -1 0
BITMAP
3E5920
84AC00
000000
03C000
03C000
03C000
03C000
03C000
03C000
ENDCHAR
STARTCHAR Imacron.c2sc
ENCODING -1
SWIDTH 238 0
DWIDTH 3 0
BBX 5 8 -1 0
BITMAP
7FFF20
000000
03C000
03C000
03C000
03C000
03C000
03C000
ENDCHAR
STARTCHAR Ibreve.c2sc
ENCODING -1
SWIDTH 238 0
DWIDTH 3 0
BBX 4 9 -1 0
BITMAP
3A2C
0AE5
0000
03C0
03C0
03C0
03C0
03C0
03C0
ENDCHAR
STARTCHAR Iogonek.c2sc
ENCODING -1
SWIDTH 238 0
DWIDTH 3 0
BBX 2 8 0 -2
BITMAP
3C
3C
3C
3C
3C
7F
D1
BC
ENDCHAR
STARTCHAR Idotaccent.c2sc
ENCODING -1
SWIDTH 238 0
DWIDTH 3 0
BBX 2 9 0 0
BITMAP
01
3B
00
3C
3C
3C
3C
3C
3C
ENDCHAR
STARTCHAR Jcircumflex.c2sc
ENCODING -1
SWIDTH 476 0
DWIDTH 5 0
BBX 6 9 0 0
BITMAP
001BA0
006794
000000
000780
000780
000780
000780
960A70
3CFB10
ENDCHAR
STARTCHAR uni0136.c2sc
ENCODING -1
SWIDTH 541 0
DWIDTH 6 0
BBX 6 9 0 -3
BITMAP
4B01C5
4B1C50
4CD700
4F9D10
4B07B0
4B00A8
000000
00A400
00A100
ENDCHAR
STARTCHAR Lacute.c2sc
ENCODING -1
SWIDTH 462 0
DWIDTH 5 0
BBX 5 9 0 0
BITMAP
099000
1B0000
000000
4B0000
4B0000
4B0000
4B0000
4B0000
4FFFD0
ENDCHAR
STARTCHAR uni013B.c2sc
ENCODING -1
SWIDTH 462 0
DWIDTH 5 0
BBX 5 9 0 -3
BITMAP
4B0000
4B0000
4B0000
4B0000
4B0000
4FFFD0
000000
00A400
00A100
ENDCHAR
STARTCHAR Lcaron.c2sc
ENCODING -1
SWIDTH 462 0
DWIDTH 5 0
BBX 5 6 0 0
BITMAP
4B1D00
4B4700
4B0000
4B0000
4B0000
4FFFD0
ENDCHAR
STARTCHAR Ldot.c2sc
ENCODING -1
SWIDTH 462 0
DWIDTH 5 0
BBX 5 6 0 0
BITMAP
4B0000
4B0100
4B3B00
4B0000
4B0000
4FFFD0
ENDCHAR
STARTCHAR Nacute.c2sc
ENCODING -1
SWIDTH 610 0
DWIDTH 7 0
BBX 6 9 0 0
BITMAP
0008A0
001B10
000000
4E200F
4EC00F
4B880F
4B0C4F
4B02DF
4B006F
ENDCHAR
STARTCHAR uni0145.c2sc
ENCODING -1
SWIDTH 610 0
DWIDTH 7 0
BBX 6 9 0 -3
BITMAP
4E200F
4EC00F
4B880F
4B0C4F
4B02DF
4B006F
000000
003B00
005600
ENDCHAR
STARTCHAR Ncaron.c2sc
ENCODING -1
SWIDTH 610 0
DWIDTH 7 0
BBX 6 9 0 0
BITMAP
01B3A0
005D10
000000
4E200F
4EC00F
4B880F
4B0C4F
4B02DF
4B006F
ENDCHAR
STARTCHAR Omacron.c2sc
ENCODING -1
SWIDTH 591 0
DWIDTH 7 0
BBX 6 8 0 0
BITMAP
08FFF1
000000
05DEA1
3D318A
68001E
68001E
3D318A
05DEA1
ENDCHAR
STARTCHAR Obreve.c2sc
ENCODING -1
SWIDTH 591 0
DWIDTH 7 0
BBX 6 9 0 0
BITMAP
0492C0
00BE50
000000
05DEA1
3D318A
68001E
68001E
3D318A
05DEA1
ENDCHAR
STARTCHAR Ohungarumlaut.c2sc
ENCODING -1
SWIDTH 591 0
DWIDTH 7 0
BBX 6 9 0 0
BITMAP
0079B6
00B5A0
000000
05DEA1
3D318A
68001E
68001E
3D318A
05DEA1
ENDCHAR
STARTCHAR Racute.c2sc
ENCODING -1
SWIDTH 536 0
DWIDTH 6 0
BBX 6 9 0 0
BITMAP
002E20
007600
000000
4FFE90
4B01C5
4B01C5
4FFF90
4B06A0
4B00B6
ENDCHAR
STARTCHAR uni0156.c2sc
ENCODING -1
SWIDTH 536 0
DWIDTH 6 0
BBX 6 9 0 -3
BITMAP
4FFE90
4B01C5
4B01C5
4FFF90
4B06A0
4B00B6
000000
00A300
00A000
ENDCHAR
STARTCHAR Rcaron.c2sc
ENCODING -1
SWIDTH 536 0
DWIDTH 6 0
BBX 6 9 0 0
BITMAP
095B30
01C700
000000
4FFE90
4B01C5
4B01C5
4FFF90
4B06A0
4B00B6
ENDCHAR
STARTCHAR Sacute.c2sc
ENCODING -1
SWIDTH 515 0
DWIDTH 6 0
BBX 6 9 0 0
BITMAP
001D40
005800
000000
1AEE70
5B12C3
2DB710
0049D1
7911C4
1AEE90
ENDCHAR
STARTCHAR Scircumflex.c2sc
ENCODING -1
SWIDTH 515 0
DWIDTH 6 0
BBX 6 9 0 0
BITMAP
01BA00
067940
000000
1AEE70
5B12C3
2DB710
0049D1
7911C4
1AEE90
ENDCHAR
STARTCHAR Scedilla.c2sc
ENCODING -1
SWIDTH 515 0
DWIDTH 6 0
BBX 6 9 0 -3
BITMAP
1AEE70
5B12C3
2DB710
0049D1
7911C4
1AEE90
005900
003D10
005500
ENDCHAR
STARTCHAR Scaron.c2sc
ENCODING -1
SWIDTH 515 0
DWIDTH 6 0
BBX 6 9 0 0
BITMAP
076940
00B900
000000
1AEE70
5B12C3
2DB710
0049D1
7911C4
1AEE90
ENDCHAR
STARTCHAR uni021A.c2sc
ENCODING -1
SWIDTH 518 0
DWIDTH 6 0
BBX 6 9 0 -3
BITMAP
CFFFF7
00A500
00A500
00A500
00A500
00A500
000000
00A400
00A100
ENDCHAR
STARTCHAR Tcaron.c2sc
ENCODING -1
SWIDTH 518 0
DWIDTH 6 0
BBX 6 9 0 0
BITMAP
086A30
00B800
000000
CFFFF7
00A500
00A500
00A500
00A500
00A500
ENDCHAR
STARTCHAR uni0162.c2sc
ENCODING -1
SWIDTH 518 0
DWIDTH 6 0
BBX 6 9 0 -3
BITMAP
CFFFF7
00A500
00A500
00A500
00A500
00A500
007800
004D00
006400
ENDCHAR
STARTCHAR Utilde.c2sc
ENCODING -1
SWIDTH 560 0
DWIDTH 6 0
BBX 6 9 0 0
BITMAP
06D3B0
0A2C80
000000
690078
690078
690078
690078
4D21B6
08EEA0
ENDCHAR
STARTCHAR Umacron.c2sc
ENCODING -1
SWIDTH 560 0
DWIDTH 6 0
BBX 6 8 0 0
BITMAP
0AFFE0
000000
690078
690078
690078
690078
4D21B6
08EEA0
ENDCHAR
STARTCHAR Ubreve.c2sc
ENCODING -1
SWIDTH 560 0
DWIDTH 6 0
BBX 6 9 0 0
BITMAP
077490
01CD30
000000
690078
690078
690078
690078
4D21B6
08EEA0
ENDCHAR
STARTCHAR Uring.c2sc
ENCODING -1
SWIDTH 560 0
DWIDTH 6 0
BBX 6 9 0 0
BITMAP
009910
009910
000000
690078
690078
690078
690078
4D21B6
08EEA0
ENDCHAR
STARTCHAR Uhungarumlaut.c2sc
ENCODING -1
SWIDTH 560 0
DWIDTH 6 0
BBX 6 9 0 0
BITMAP
00A8D4
01B680
000000
690078
690078
690078
690078
4D21B6
08EEA0
ENDCHAR
STARTCHAR Uogonek.c2sc
ENCODING -1
SWIDTH 560 0
DWIDTH 6 0
BBX 6 8 0 -2
BITMAP
690078
690078
690078
690078
4D21B7
08EFA1
003A10
003E60
ENDCHAR
STARTCHAR Wcircumflex.c2sc
ENCODING -1
SWIDTH 760 0
DWIDTH 8 0
BBX 9 9 0 0
BITMAP
0008D10000
002A580000
0000000000
9605C00E10
590AD23C00
1D0C666800
0C582AA300
08C40BC000
04E008A000
ENDCHAR
STARTCHAR Ycircumflex.c2sc
ENCODING -1
SWIDTH 520 0
DWIDTH 6 0
BBX 6 9 0 0
BITMAP
01C900
076A30
000000
A700B5
2D15B0
079D30
00D900
00A500
00A500
ENDCHAR
STARTCHAR Ydieresis.c2sc
ENCODING -1
SWIDTH 520 0
DWIDTH 6 0
BBX 6 9 0 0
BITMAP
010000
0B3770
000000
A700B5
2D15B0
079D30
00D900
00A500
00A500
ENDCHAR
STARTCHAR Zacute.c2sc
ENCODING -1
SWIDTH 517 0
DWIDTH 6 0
BBX 6 9 0 0
BITMAP
001D30
006700
000000
8FFFF3
000790
005B00
03C100
2D2000
9FFFF5
ENDCHAR
STARTCHAR Zdotaccent.c2sc
ENCODING -1
SWIDTH 517 0
DWIDTH 6 0
BBX 6 9 0 0
BITMAP
001000
009500
000000
8FFFF3
000790
005B00
03C100
2D2000
9FFFF5
ENDCHAR
STARTCHAR Zcaron.c2sc
ENCODING -1
SWIDTH 517 0
DWIDTH 6 0
BBX 6 9 0 0
BITMAP
086A30
00B800
000000
8FFFF3
000790
005B00
03C100
2D2000
9FFFF5
ENDCHAR
STARTCHAR two.pnum
ENCODING -1
SWIDTH 561 0
DWIDTH 6 0
BBX 6 8 0 0
BITMAP
08EE90
4C22D4
3300A5
0002C1
001C30
01C400
1B5000
5FFFFC
ENDCHAR
STARTCHAR three.pnum
ENCODING -1
SWIDTH 561 0
DWIDTH 6 0
BBX 6 8 0 0
BITMAP
08EE80
4C21C4
1102C3
00EF80
0002D3
110096
5C12D4
08EE70
ENDCHAR
STARTCHAR four.pnum
ENCODING -1
SWIDTH 561 0
DWIDTH 6 0
BBX 6 8 0 0
BITMAP
0008D0
003DD0
00C5D0
0862D0
3B02D0
AFFFFE
0002D0
0002D0
ENDCHAR
STARTCHAR five.pnum
ENCODING -1
SWIDTH 561 0
DWIDTH 6 0
BBX 5 8 1 0
BITMAP
8FFF80
A40000
B30000
CDEB10
421A80
2004A0
E31A80
4DEA10
ENDCHAR
STARTCHAR six.pnum
ENCODING -1
SWIDTH 571 0
DWIDTH 6 0
BBX 6 8 0 0
BITMAP
007DA0
07C300
0E3000
2EBEB1
3E4199
2D004B
0C5198
02CEA1
ENDCHAR
STARTCHAR eight.pnum
ENCODING -1
SWIDTH 581 0
DWIDTH 6 0
BBX 6 8 0 0
BITMAP
06DEA0
1E31B6
0E31B5
05FFB0
1D31B6
4B005A
2E31A7
05DEA1
ENDCHAR
STARTCHAR nine.pnum
ENCODING -1
SWIDTH 571 0
DWIDTH 6 0
BBX 6 8 0 0
BITMAP
08ED50
4D23D2
780095
4D22C7
08ECC6
0000C3
0028C0
05EA10
ENDCHAR
STARTCHAR zero.pnum
ENCODING -1
SWIDTH 581 0
DWIDTH 6 0
BBX 6 8 0 0
BITMAP
04DE90
0E41C5
3C0069
4B005A
4B005A
3C0068
0E41C5
04DE90
ENDCHAR
STARTCHAR G_acutecomb.ccmp
ENCODING -1
SWIDTH 681 0
DWIDTH 8 0
BBX 7 11 0 0
BITMAP
0004D100
000A3000
00000000
02BED700
0C812C60
3D000340
5B000000
5B02FFA0
3D0005A0
0B9118A0
01AEEB20
ENDCHAR
STARTCHAR g_acutecomb.ccmp
ENCODING -1
SWIDTH 561 0
DWIDTH 6 0
BBX 6 11 0 -2
BITMAP
000C50
004900
000000
07EDB6
3E22C6
690096
690096
3E22C6
07EDC6
0412D3
09EE70
ENDCHAR
STARTCHAR N_gravecomb.ccmp
ENCODING -1
SWIDTH 712 0
DWIDTH 8 0
BBX 7 11 0 0
BITMAP
006B0000
000A3000
00000000
1F4002E0
1FD102E0
1EA802E0
1E1E32E0
1E05C2E0
1E00B8E0
1E002EE0
1E0007E0
ENDCHAR
STARTCHAR n_gravecomb.ccmp
ENCODING -1
SWIDTH 551 0
DWIDTH 6 0
BBX 6 9 0 0
BITMAP
04D100
008500
000000
4CBEA0
4E31D4
4B00A5
4B00A5
4B00A5
4B00A5
ENDCHAR
STARTCHAR A_uni030F.ccmp
ENCODING -1
SWIDTH 652 0
DWIDTH 7 0
BBX 7 11 0 0
BITMAP
0C8D2000
01C77000
00000000
001F3000
006C9000
00C3D100
02C09500
08704B00
0EFFFF20
4C000970
A60003D0
ENDCHAR
STARTCHAR a_uni030F.ccmp
ENCODING -1
SWIDTH 543 0
DWIDTH 6 0
BBX 6 9 0 0
BITMAP
4DA900
078B10
000000
09EE70
2611D1
08EFF3
4C20C3
5B14E3
0AEBC4
ENDCHAR
STARTCHAR E_uni030F.ccmp
ENCODING -1
SWIDTH 568 0
DWIDTH 6 0
BBX 6 11 0 0
BITMAP
2D8B00
04BA30
000000
1FFFFC
1E0000
1E0000
1FFFF5
1E0000
1E0000
1E0000
1FFFFD
ENDCHAR
STARTCHAR e_uni030F.ccmp
ENCODING -1
SWIDTH 529 0
DWIDTH 6 0
BBX 6 9 0 0
BITMAP
6CA700
088B00
000000
06DE70
3C22C3
7FFFF6
790000
3E3161
06DEA1
ENDCHAR
STARTCHAR I_uni030F.ccmp
ENCODING -1
SWIDTH 271 0
DWIDTH 3 0
BBX 5 11 -2 0
BITMAP
1D8D10
02C850
000000
000F00
000F00
000F00
000F00
000F00
000F00
000F00
000F00
ENDCHAR
STARTCHAR dotlessi_uni030F.ccmp
ENCODING -1
SWIDTH 247 0
DWIDTH 3 0
BBX 5 9 -2 0
BITMAP
2D8C00
04B930
000000
003C00
003C00
003C00
003C00
003C00
003C00
ENDCHAR
STARTCHAR O_uni030F.ccmp
ENCODING -1
SWIDTH 687 0
DWIDTH 8 0
BBX 7 11 0 0
BITMAP
09AD4000
00B79000
00000000
01AED700
0C813D50
3D0005B0
5A0002D0
5A0002D0
3D0005B0
0C813C60
02BED700
ENDCHAR
STARTCHAR o_uni030F.ccmp
ENCODING -1
SWIDTH 570 0
DWIDTH 6 0
BBX 6 9 0 0
BITMAP
5DA800
078B10
000000
06DE80
3E31B6
78004B
78004B
3D31B7
06DE90
ENDCHAR
STARTCHAR R_uni030F.ccmp
ENCODING -1
SWIDTH 615 0
DWIDTH 7 0
BBX 7 11 0 0
BITMAP
3D8B0000
05AA3000
00000000
1FFFC400
1E004E10
1E000D30
1E004E10
1FFFE400
1E01D300
1E006B00
1E000C50
ENDCHAR
STARTCHAR r_uni030F.ccmp
ENCODING -1
SWIDTH 338 0
DWIDTH 4 0
BBX 5 9 -1 0
BITMAP
4D9A00
069B20
000000
04CC80
04E300
04B000
04B000
04B000
04B000
ENDCHAR
STARTCHAR U_uni030F.ccmp
ENCODING -1
SWIDTH 648 0
DWIDTH 7 0
BBX 7 11 0 0
BITMAP
0C8D2000
01C77000
00000000
4C000960
4C000960
4C000960
4C000960
4C000960
3C000A60
1E514E20
04CFD500
ENDCHAR
STARTCHAR u_uni030F.ccmp
ENCODING -1
SWIDTH 551 0
DWIDTH 6 0
BBX 6 9 0 0
BITMAP
6CA700
088B00
000000
4B00A5
4B00A5
4B00A5
4B00A5
3D13D5
09ECC5
ENDCHAR
STARTCHAR Upsilon1_acutecomb.ccmp
ENCODING -1
SWIDTH 581 0
DWIDTH 6 0
BBX 9 9 -2 0
BITMAP
6700000000
628C101C70
0009708900
0002D1E200
0000AB9000
00004F3000
00001F0000
00001F0000
00001F0000
ENDCHAR
STARTCHAR B_dotbelowcomb.ccmp
ENCODING -1
SWIDTH 622 0
DWIDTH 7 0
BBX 7 11 0 -3
BITMAP
1FFFD500
1E004E00
1E005D00
1FFFF400
1E004E10
1E000D30
1E004E10
1FFFD500
00000000
003B0000
00010000
ENDCHAR
STARTCHAR b_dotbelowcomb.ccmp
ENCODING -1
SWIDTH 561 0
DWIDTH 6 0
BBX 6 11 0 -3
BITMAP
4B0000
4B0000
4DBEA0
4E31C6
4B0069
4B0069
4E31C6
4CCEA0
000000
004A00
000100
ENDCHAR
STARTCHAR D_dotbelowcomb.ccmp
ENCODING -1
SWIDTH 655 0
DWIDTH 7 0
BBX 7 11 0 -3
BITMAP
1FFEB200
1E017D10
1E000A60
1E000780
1E000780
1E000B60
1E017D10
1FFEA200
00000000
003B0000
00010000
ENDCHAR
STARTCHAR d_dotbelowcomb.ccmp
ENCODING -1
SWIDTH 563 0
DWIDTH 6 0
BBX 6 11 0 -3
BITMAP
000096
000096
07EDC6
3D22C6
690096
680096
3D22C6
07EDB6
000000
003B00
000100
ENDCHAR
STARTCHAR D_uniF6C3.ccmp
ENCODING -1
SWIDTH 655 0
DWIDTH 7 0
BBX 7 11 0 -3
BITMAP
1FFEB200
1E017D10
1E000A60
1E000780
1E000780
1E000B60
1E017D10
1FFEA200
00000000
003B0000
00650000
ENDCHAR
STARTCHAR d_uniF6C3.ccmp
ENCODING -1
SWIDTH 563 0
DWIDTH 6 0
BBX 6 11 0 -3
BITMAP
000096
000096
07EDC6
3D22C6
690096
680096
3D22C6
07EDB6
000000
003B00
005600
ENDCHAR
STARTCHAR H_dotbelowcomb.ccmp
ENCODING -1
SWIDTH 712 0
DWIDTH 8 0
BBX 7 11 0 -3
BITMAP
1E0002E0
1E0002E0
1E0002E0
1FFFFFE0
1E0002E0
1E0002E0
1E0002E0
1E0002E0
00000000
000A4000
00010000
ENDCHAR
STARTCHAR h_dotbelowcomb.ccmp
ENCODING -1
SWIDTH 550 0
DWIDTH 6 0
BBX 6 11 0 -3
BITMAP
4B0000
4B0000
4CBEA0
4E31D4
4B00A5
4B00A5
4B00A5
4B00A5
000000
005900
000100
ENDCHAR
STARTCHAR K_acutecomb.ccmp
ENCODING -1
SWIDTH 626 0
DWIDTH 7 0
BBX 7 11 0 0
BITMAP
00099000
001B0000
00000000
1E002D40
1E01C500
1E0B7000
1EAC0000
1FAD5000
1E03E200
1E007C00
1E000B80
ENDCHAR
STARTCHAR k_acutecomb.ccmp
ENCODING -1
SWIDTH 506 0
DWIDTH 6 0
BBX 6 12 0 0
BITMAP
001D40
005800
000000
4B0000
4B0000
4B0000
4B05C1
4B4D10
4DE400
4E8B00
4B0A70
4B01D3
ENDCHAR
STARTCHAR K_dotbelowcomb.ccmp
ENCODING -1
SWIDTH 626 0
DWIDTH 7 0
BBX 7 11 0 -3
BITMAP
1E002D40
1E01C500
1E0B7000
1EAC0000
1FAD5000
1E03E200
1E007C00
1E000B80
00000000
000D0000
00010000
ENDCHAR
STARTCHAR k_dotbelowcomb.ccmp
ENCODING -1
SWIDTH 506 0
DWIDTH 6 0
BBX 6 12 0 -3
BITMAP
4B0000
4B0000
4B0000
4B05C1
4B4D10
4DE400
4E8B00
4B0A70
4B01D3
000000
00A400
001000
ENDCHAR
STARTCHAR L_dotbelowcomb.ccmp
ENCODING -1
SWIDTH 538 0
DWIDTH 6 0
BBX 6 11 0 -3
BITMAP
1E0000
1E0000
1E0000
1E0000
1E0000
1E0000
1E0000
1FFFFA
000000
003B00
000100
ENDCHAR
STARTCHAR l_dotbelowcomb.ccmp
ENCODING -1
SWIDTH 242 0
DWIDTH 3 0
BBX 2 12 0 -3
BITMAP
2C
2C
2C
2C
2C
2C
2C
2C
2C
00
3B
01
ENDCHAR
STARTCHAR M_dotbelowcomb.ccmp
ENCODING -1
SWIDTH 873 0
DWIDTH 10 0
BBX 9 11 0 -3
BITMAP
1F60000DA0
1EC0003EA0
1DC3009AA0
1D6901D5A0
1E1D1695A0
1E096C35A0
1E03DC05A0
1E00C605A0
0000000000
0000A40000
0000100000
ENDCHAR
STARTCHAR m_dotbelowcomb.ccmp
ENCODING -1
SWIDTH 876 0
DWIDTH 10 0
BBX 9 9 0 -3
BITMAP
4CBE96EE50
4E31DA15C0
4B00A501D0
4B00A501D0
4B00A501D0
4B00A501D0
0000000000
0000A40000
0000100000
ENDCHAR
STARTCHAR N_dotbelowcomb.ccmp
ENCODING -1
SWIDTH 712 0
DWIDTH 8 0
BBX 7 11 0 -3
BITMAP
1F4002E0
1FD102E0
1EA802E0
1E1E32E0
1E05C2E0
1E00B8E0
1E002EE0
1E0007E0
00000000
000A4000
00010000
ENDCHAR
STARTCHAR n_dotbelowcomb.ccmp
ENCODING -1
SWIDTH 551 0
DWIDTH 6 0
BBX 6 8 0 -2
BITMAP
4CBEA0
4E31D4
4B00A5
4B00A5
4B00A5
4B00A5
000000
007700
ENDCHAR
STARTCHAR O_tildecomb_acutecomb.ccmp
ENCODING -1
SWIDTH 687 0
DWIDTH 8 0
BBX 7 13 0 0
BITMAP
0002B000
00064000
005B5300
0074D100
00000000
01AED700
0C813D50
3D0005B0
5A0002D0
5A0002D0
3D0005B0
0C813C60
02BED700
ENDCHAR
STARTCHAR P_acutecomb.ccmp
ENCODING -1
SWIDTH 630 0
DWIDTH 7 0
BBX 7 11 0 0
BITMAP
00099000
001B1000
00000000
1FFFD700
1E002D40
1E000870
1E002C50
1FFFE800
1E000000
1E000000
1E000000
ENDCHAR
STARTCHAR p_acutecomb.ccmp
ENCODING -1
SWIDTH 561 0
DWIDTH 6 0
BBX 6 11 0 -2
BITMAP
0007B0
000B10
000000
4CCE90
4E32C6
4B0069
4B0069
4E31C6
4DCE90
4B0000
4B0000
ENDCHAR
STARTCHAR R_dotbelowcomb.ccmp
ENCODING -1
SWIDTH 615 0
DWIDTH 7 0
BBX 7 11 0 -3
BITMAP
1FFFC400
1E004E10
1E000D30
1E004E10
1FFFE400
1E01D300
1E006B00
1E000C50
00000000
003B0000
00010000
ENDCHAR
STARTCHAR r_dotbelowcomb.ccmp
ENCODING -1
SWIDTH 338 0
DWIDTH 4 0
BBX 4 9 0 -3
BITMAP
4CC8
4E30
4B00
4B00
4B00
4B00
0000
3B00
0100
ENDCHAR
STARTCHAR S_dotbelowcomb.ccmp
ENCODING -1
SWIDTH 593 0
DWIDTH 7 0
BBX 7 11 0 -3
BITMAP
06DFC300
3E316D00
4D000500
09D83000
0028D800
33001F10
5C204E00
07DFC400
00000000
002C0000
00010000
ENDCHAR
STARTCHAR s_dotbelowcomb.ccmp
ENCODING -1
SWIDTH 515 0
DWIDTH 6 0
BBX 6 8 0 -2
BITMAP
09ED60
3C13C0
1DC710
0048D0
5A12E1
09EE60
000000
007700
ENDCHAR
STARTCHAR T_dotbelowcomb.ccmp
ENCODING -1
SWIDTH 596 0
DWIDTH 7 0
BBX 7 11 0 -3
BITMAP
BFFFFF50
004C0000
004C0000
004C0000
004C0000
004C0000
004C0000
004C0000
00000000
003B0000
00010000
ENDCHAR
STARTCHAR t_dotbelowcomb.ccmp
ENCODING -1
SWIDTH 326 0
DWIDTH 4 0
BBX 4 10 0 -3
BITMAP
0D10
EFF3
0D10
0D10
0D10
0D30
08E3
0000
01D0
0010
ENDCHAR
STARTCHAR U_tildecomb_acutecomb.ccmp
ENCODING -1
SWIDTH 648 0
DWIDTH 7 0
BBX 7 13 0 0
BITMAP
00068000
00091000
00897000
0077B000
00000000
4C000960
4C000960
4C000960
4C000960
4C000960
3C000A60
1E514E20
04CFD500
ENDCHAR
STARTCHAR V_tildecomb.ccmp
ENCODING -1
SWIDTH 636 0
DWIDTH 7 0
BBX 7 11 0 0
BITMAP
01D86500
0577D100
00000000
A70007A0
5C000C50
0E202E00
09707900
03C0C300
00D4D000
007D7000
002F2000
ENDCHAR
STARTCHAR v_tildecomb.ccmp
ENCODING -1
SWIDTH 484 0
DWIDTH 5 0
BBX 5 9 0 0
BITMAP
0BA380
295E30
000000
A501E0
5A0590
0D1A40
095D00
04D800
00D300
ENDCHAR
STARTCHAR V_dotbelowcomb.ccmp
ENCODING -1
SWIDTH 636 0
DWIDTH 7 0
BBX 7 11 0 -3
BITMAP
A70007A0
5C000C50
0E202E00
09707900
03C0C300
00D4D000
007D7000
002F2000
00000000
000D0000
00010000
ENDCHAR
STARTCHAR v_dotbelowcomb.ccmp
ENCODING -1
SWIDTH 484 0
DWIDTH 5 0
BBX 5 9 0 -3
BITMAP
A501E0
5A0590
0D1A40
095D00
04D800
00D300
000000
00C200
001000
ENDCHAR
STARTCHAR W_dotbelowcomb.ccmp
ENCODING -1
SWIDTH 887 0
DWIDTH 10 0
BBX 10 11 0 -3
BITMAP
8700980096
5A00DC00D2
1E03BC11E0
0D277854A0
096B249870
069D01DB30
02E900BE00
00E4007B00
0000000000
0000860000
0000100000
ENDCHAR
STARTCHAR w_dotbelowcomb.ccmp
ENCODING -1
SWIDTH 751 0
DWIDTH 8 0
BBX 8 9 0 -3
BITMAP
9507A02D
590BD059
1D1B9495
0C7748C1
08E30DB0
03D00A70
00000000
00068000
00001000
ENDCHAR
STARTCHAR Z_dotbelowcomb.ccmp
ENCODING -1
SWIDTH 598 0
DWIDTH 7 0
BBX 7 11 0 -3
BITMAP
7FFFFF00
00009800
0005C000
001D3000
00B70000
06B00000
2D200000
8FFFFF20
00000000
003B0000
00010000
ENDCHAR
STARTCHAR z_dotbelowcomb.ccmp
ENCODING -1
SWIDTH 495 0
DWIDTH 5 0
BBX 6 9 0 -3
BITMAP
7FFFE0
000B60
008A00
04C100
2D2000
8FFFF1
000000
00A400
001000
ENDCHAR
STARTCHAR Alphatonos.c2sc
ENCODING -1
SWIDTH 564 0
DWIDTH 6 0
BBX 6 7 0 0
BITMAP
0D0000
178C00
01DC30
069690
0C31E1
4FFFF7
A6003D
ENDCHAR
STARTCHAR Epsilontonos.c2sc
ENCODING -1
SWIDTH 516 0
DWIDTH 6 0
BBX 7 7 -1 0
BITMAP
A3000000
90EFFF50
00E10000
00EFFE00
00E10000
00E10000
00EFFF60
ENDCHAR
STARTCHAR Etatonos.c2sc
ENCODING -1
SWIDTH 640 0
DWIDTH 7 0
BBX 8 7 -1 0
BITMAP
86000000
81E100A4
00E100A4
00EFFFF4
00E100A4
00E100A4
00E100A4
ENDCHAR
STARTCHAR Iotatonos.c2sc
ENCODING -1
SWIDTH 267 0
DWIDTH 3 0
BBX 4 7 -1 0
BITMAP
7600
71D2
00D2
00D2
00D2
00D2
00D2
ENDCHAR
STARTCHAR Omicrontonos.c2sc
ENCODING -1
SWIDTH 596 0
DWIDTH 7 0
BBX 7 7 -1 0
BITMAP
1C000000
275DEB20
02E318B0
069000E0
069000E0
02E317B0
005DEB20
ENDCHAR
STARTCHAR Upsilontonos.c2sc
ENCODING -1
SWIDTH 550 0
DWIDTH 6 0
BBX 8 7 -2 0
BITMAP
1C000000
275C006A
000B51D2
0002D980
00008D10
00005A00
00005A00
ENDCHAR
STARTCHAR Omegatonos.c2sc
ENCODING -1
SWIDTH 623 0
DWIDTH 7 0
BBX 7 7 0 0
BITMAP
D0000000
84CEC300
1E415D00
4B000C20
3B000D10
0B506900
4FF5FF30
ENDCHAR
STARTCHAR Alpha.c2sc
ENCODING -1
SWIDTH 564 0
DWIDTH 6 0
BBX 6 6 0 0
BITMAP
008C00
01DC30
069690
0C31E1
4FFFF7
A6003D
ENDCHAR
STARTCHAR Beta.c2sc
ENCODING -1
SWIDTH 539 0
DWIDTH 6 0
BBX 6 6 0 0
BITMAP
4FFEA0
4B02E2
4FFFA0
4B01C4
4B01B5
4FFEA0
ENDCHAR
STARTCHAR Epsilon.c2sc
ENCODING -1
SWIDTH 487 0
DWIDTH 5 0
BBX 6 6 0 0
BITMAP
4FFFF0
4B0000
4FFF90
4B0000
4B0000
4FFFF1
ENDCHAR
STARTCHAR Zeta.c2sc
ENCODING -1
SWIDTH 517 0
DWIDTH 6 0
BBX 6 6 0 0
BITMAP
8FFFF3
000790
005B00
03C100
2D2000
9FFFF5
ENDCHAR
STARTCHAR Eta.c2sc
ENCODING -1
SWIDTH 610 0
DWIDTH 7 0
BBX 6 6 0 0
BITMAP
4B000F
4B000F
4FFFFF
4B000F
4B000F
4B000F
ENDCHAR
STARTCHAR Iota.c2sc
ENCODING -1
SWIDTH 238 0
DWIDTH 3 0
BBX 2 6 0 0
BITMAP
3C
3C
3C
3C
3C
3C
ENDCHAR
STARTCHAR Kappa.c2sc
ENCODING -1
SWIDTH 541 0
DWIDTH 6 0
BBX 6 6 0 0
BITMAP
4B01C5
4B1C50
4CD700
4F9D10
4B07B0
4B00A8
ENDCHAR
STARTCHAR Mu.c2sc
ENCODING -1
SWIDTH 750 0
DWIDTH 8 0
BBX 8 6 0 0
BITMAP
4F4001E8
4DB007D8
4AC20D78
4B595978
4B0DC278
4B07B078
ENDCHAR
STARTCHAR Nu.c2sc
ENCODING -1
SWIDTH 610 0
DWIDTH 7 0
BBX 6 6 0 0
BITMAP
4E200F
4EC00F
4B880F
4B0C4F
4B02DF
4B006F
ENDCHAR
STARTCHAR Omicron.c2sc
ENCODING -1
SWIDTH 591 0
DWIDTH 7 0
BBX 6 6 0 0
BITMAP
05DEA1
3D318A
68001E
68001E
3D318A
05DEA1
ENDCHAR
STARTCHAR Rho.c2sc
ENCODING -1
SWIDTH 544 0
DWIDTH 6 0
BBX 6 6 0 0
BITMAP
4FFEB1
4B0198
4B0098
4FFEB1
4B0000
4B0000
ENDCHAR
STARTCHAR Tau.c2sc
ENCODING -1
SWIDTH 518 0
DWIDTH 6 0
BBX 6 6 0 0
BITMAP
CFFFF7
00A500
00A500
00A500
00A500
00A500
ENDCHAR
STARTCHAR Upsilon.c2sc
ENCODING -1
SWIDTH 520 0
DWIDTH 6 0
BBX 6 6 0 0
BITMAP
A700B5
2D15B0
079D30
00D900
00A500
00A500
ENDCHAR
STARTCHAR Chi.c2sc
ENCODING -1
SWIDTH 541 0
DWIDTH 6 0
BBX 6 6 0 0
BITMAP
6B00C5
0A7890
01DD10
01DD10
0B67A0
7B00B6
ENDCHAR
STARTCHAR Iotadieresis.c2sc
ENCODING -1
SWIDTH 238 0
DWIDTH 3 0
BBX 4 9 -1 0
BITMAP
0101
490D
0000
03C0
03C0
03C0
03C0
03C0
03C0
ENDCHAR
STARTCHAR Upsilondieresis.c2sc
ENCODING -1
SWIDTH 520 0
DWIDTH 6 0
BBX 6 9 0 0
BITMAP
010000
0B3770
000000
A700B5
2D15B0
079D30
00D900
00A500
00A500
ENDCHAR
STARTCHAR uni0401.c2sc
ENCODING -1
SWIDTH 487 0
DWIDTH 5 0
BBX 6 9 0 0
BITMAP
010000
0B3680
000000
4FFFF0
4B0000
4FFF90
4B0000
4B0000
4FFFF1
ENDCHAR
STARTCHAR uni0403.c2sc
ENCODING -1
SWIDTH 460 0
DWIDTH 5 0
BBX 5 9 0 0
BITMAP
001D30
006700
000000
4FFFD0
4B0000
4B0000
4B0000
4B0000
4B0000
ENDCHAR
STARTCHAR uni0405.c2sc
ENCODING -1
SWIDTH 515 0
DWIDTH 6 0
BBX 6 6 0 0
BITMAP
1AEE70
5B12C3
2DB710
0049D1
7911C4
1AEE90
ENDCHAR
STARTCHAR uni0406.c2sc
ENCODING -1
SWIDTH 238 0
DWIDTH 3 0
BBX 2 6 0 0
BITMAP
3C
3C
3C
3C
3C
3C
ENDCHAR
STARTCHAR uni0407.c2sc
ENCODING -1
SWIDTH 238 0
DWIDTH 3 0
BBX 4 9 -1 0
BITMAP
0101
490D
0000
03C0
03C0
03C0
03C0
03C0
03C0
ENDCHAR
STARTCHAR uni0408.c2sc
ENCODING -1
SWIDTH 476 0
DWIDTH 5 0
BBX 5 6 0 0
BITMAP
000780
000780
000780
000780
960A70
3CFB10
ENDCHAR
STARTCHAR uni040C.c2sc
ENCODING -1
SWIDTH 541 0
DWIDTH 6 0
BBX 6 9 0 0
BITMAP
002E20
007600
000000
4B01C5
4B1C50
4CD700
4F9D10
4B07B0
4B00A8
ENDCHAR
STARTCHAR uni040E.c2sc
ENCODING -1
SWIDTH 515 0
DWIDTH 6 0
BBX 6 9 0 0
BITMAP
0A3860
04EC10
000000
9800C5
2E13D0
097960
02DD00
00C700
0EB100
ENDCHAR
STARTCHAR uni0410.c2sc
ENCODING -1
SWIDTH 564 0
DWIDTH 6 0
BBX 6 6 0 0
BITMAP
008C00
01DC30
069690
0C31E1
4FFFF7
A6003D
ENDCHAR
STARTCHAR uni0412.c2sc
ENCODING -1
SWIDTH 539 0
DWIDTH 6 0
BBX 6 6 0 0
BITMAP
4FFEA0
4B02E2
4FFFA0
4B01C4
4B01B5
4FFEA0
ENDCHAR
STARTCHAR uni0413.c2sc
ENCODING -1
SWIDTH 460 0
DWIDTH 5 0
BBX 5 6 0 0
BITMAP
4FFFD0
4B0000
4B0000
4B0000
4B0000
4B0000
ENDCHAR
STARTCHAR uni0415.c2sc
ENCODING -1
SWIDTH 487 0
DWIDTH 5 0
BBX 6 6 0 0
BITMAP
4FFFF0
4B0000
4FFF90
4B0000
4B0000
4FFFF1
ENDCHAR
STARTCHAR uni0419.c2sc
ENCODING -1
SWIDTH 615 0
DWIDTH 7 0
BBX 6 9 0 0
BITMAP
02B1D0
00AE60
000000
4B005F
4B02DF
4B0B4F
4B880F
4EC00F
4E200F
ENDCHAR
STARTCHAR uni041C.c2sc
ENCODING -1
SWIDTH 750 0
DWIDTH 8 0
BBX 8 6 0 0
BITMAP
4F4001E8
4DB007D8
4AC20D78
4B595978
4B0DC278
4B07B078
ENDCHAR
STARTCHAR uni041D.c2sc
ENCODING -1
SWIDTH 610 0
DWIDTH 7 0
BBX 6 6 0 0
BITMAP
4B000F
4B000F
4FFFFF
4B000F
4B000F
4B000F
ENDCHAR
STARTCHAR uni041E.c2sc
ENCODING -1
SWIDTH 591 0
DWIDTH 7 0
BBX 6 6 0 0
BITMAP
05DEA1
3D318A
68001E
68001E
3D318A
05DEA1
ENDCHAR
STARTCHAR uni041F.c2sc
ENCODING -1
SWIDTH 600 0
DWIDTH 7 0
BBX 6 6 0 0
BITMAP
4FFFFD
4B002D
4B002D
4B002D
4B002D
4B002D
ENDCHAR
STARTCHAR uni0420.c2sc
ENCODING -1
SWIDTH 544 0
DWIDTH 6 0
BBX 6 6 0 0
BITMAP
4FFEB1
4B0198
4B0098
4FFEB1
4B0000
4B0000
ENDCHAR
STARTCHAR uni0421.c2sc
ENCODING -1
SWIDTH 560 0
DWIDTH 6 0
BBX 6 6 0 0
BITMAP
06DEA1
3D3199
780012
780001
3D2199
06DEA1
ENDCHAR
STARTCHAR uni0422.c2sc
ENCODING -1
SWIDTH 518 0
DWIDTH 6 0
BBX 6 6 0 0
BITMAP
CFFFF7
00A500
00A500
00A500
00A500
00A500
ENDCHAR
STARTCHAR uni0425.c2sc
ENCODING -1
SWIDTH 541 0
DWIDTH 6 0
BBX 6 6 0 0
BITMAP
6B00C5
0A7890
01DD10
01DD10
0B67A0
7B00B6
ENDCHAR
STARTCHAR uni0498.c2sc
ENCODING -1
SWIDTH 530 0
DWIDTH 6 0
BBX 6 8 0 -2
BITMAP
1BEE90
4712E1
00EF80
0002D2
6602D3
2CFE80
00C400
00C400
ENDCHAR
STARTCHAR uni04A2.c2sc
ENCODING -1
SWIDTH 610 0
DWIDTH 7 0
BBX 7 8 0 -2
BITMAP
4B000F00
4B000F00
4FFFFF00
4B000F00
4B000F00
4B000FD0
000002D0
000002D0
ENDCHAR
STARTCHAR uni04AA.c2sc
ENCODING -1
SWIDTH 560 0
DWIDTH 6 0
BBX 6 8 0 -2
BITMAP
06DEA1
3D3199
780012
780001
3D2189
07EFB1
005A00
005A00
ENDCHAR
STARTCHAR uni04AE.c2sc
ENCODING -1
SWIDTH 520 0
DWIDTH 6 0
BBX 6 6 0 0
BITMAP
A700B5
2D15B0
079D30
00D900
00A500
00A500
ENDCHAR
STARTCHAR uni04BE.c2sc
ENCODING -1
SWIDTH 720 0
DWIDTH 8 0
BBX 8 8 0 -2
BITMAP
001BED50
30B813D2
C3E00095
4DFFFFF7
00E40120
004CFF70
0000A500
0000A500
ENDCHAR
STARTCHAR uni04E2.c2sc
ENCODING -1
SWIDTH 615 0
DWIDTH 7 0
BBX 6 8 0 0
BITMAP
06FFF3
000000
4B005F
4B02DF
4B0B4F
4B880F
4EC00F
4E200F
ENDCHAR
STARTCHAR uni04EE.c2sc
ENCODING -1
SWIDTH 515 0
DWIDTH 6 0
BBX 6 8 0 0
BITMAP
0EFFA0
000000
9800C5
2E13D0
097960
02DD00
00C700
0EB100
ENDCHAR
STARTCHAR uni0424.c2sc
ENCODING -1
SWIDTH 675 0
DWIDTH 7 0
BBX 7 6 0 0
BITMAP
000C3000
08DFEB20
5B2C46C0
5B1C46C0
08DFEB20
000C3000
ENDCHAR
STARTCHAR IJ.c2sc
ENCODING -1
SWIDTH 714 0
DWIDTH 8 0
BBX 8 6 0 0
BITMAP
3C0000D2
3C0000D2
3C0000D2
3C0000D2
3C1C22E1
3C07EE70
ENDCHAR
STARTCHAR AEacute.c2sc
ENCODING -1
SWIDTH 777 0
DWIDTH 9 0
BBX 9 9 0 0
BITMAP
00002E3000
0000760000
0000000000
000AFFFE00
004AE10000
00D3DFF900
07A0D20000
2EFFF30000
A800CFFF30
ENDCHAR
STARTCHAR Oslashacute.c2sc
ENCODING -1
SWIDTH 591 0
DWIDTH 7 0
BBX 6 10 0 -1
BITMAP
000990
001B10
000002
05DEC8
3E32DA
680A2E
68751E
3D918A
1CDEA1
120000
ENDCHAR
STARTCHAR uni0218.c2sc
ENCODING -1
SWIDTH 515 0
DWIDTH 6 0
BBX 6 9 0 -3
BITMAP
1AEE70
5B12C3
2DB710
0049D1
7911C4
1AEE90
000000
008600
009200
ENDCHAR
STARTCHAR Wgrave.c2sc
ENCODING -1
SWIDTH 760 0
DWIDTH 8 0
BBX 9 9 0 0
BITMAP
002E200000
0006700000
0000000000
9605C00E10
590AD23C00
1D0C666800
0C582AA300
08C40BC000
04E008A000
ENDCHAR
STARTCHAR Wacute.c2sc
ENCODING -1
SWIDTH 760 0
DWIDTH 8 0
BBX 9 9 0 0
BITMAP
0000980000
0002B00000
0000000000
9605C00E10
590AD23C00
1D0C666800
0C582AA300
08C40BC000
04E008A000
ENDCHAR
STARTCHAR Wdieresis.c2sc
ENCODING -1
SWIDTH 760 0
DWIDTH 8 0
BBX 9 9 0 0
BITMAP
0000010000
00681C0000
0000000000
9605C00E10
590AD23C00
1D0C666800
0C582AA300
08C40BC000
04E008A000
ENDCHAR
STARTCHAR Ygrave.c2sc
ENCODING -1
SWIDTH 520 0
DWIDTH 6 0
BBX 6 9 0 0
BITMAP
07B000
00B300
000000
A700B5
2D15B0
079D30
00D900
00A500
00A500
ENDCHAR
STARTCHAR Aogonek.locl
ENCODING -1
SWIDTH 652 0
DWIDTH 7 0
BBX 7 10 0 -2
BITMAP
001F3000
006C9000
00C3D100
02C09500
08704B00
0EFFFF20
4C000970
A62903D0
00950000
007E2000
ENDCHAR
STARTCHAR aogonek.locl
ENCODING -1
SWIDTH 543 0
DWIDTH 6 0
BBX 6 8 0 -2
BITMAP
09EE70
2611D1
08EFF3
4C20C3
5B14E3
0CFBC4
095000
07E200
ENDCHAR
STARTCHAR Eogonek.locl
ENCODING -1
SWIDTH 568 0
DWIDTH 6 0
BBX 6 10 0 -2
BITMAP
1FFFFC
1E0000
1E0000
1FFFF5
1E0000
1E0000
1E0000
1FFFFD
00D100
00CB00
ENDCHAR
STARTCHAR eogonek.locl
ENCODING -1
SWIDTH 529 0
DWIDTH 6 0
BBX 6 8 0 -2
BITMAP
06DE70
3C22C3
7FFFF6
790000
3E3161
06FFA1
04A100
02E700
ENDCHAR
STARTCHAR Aogonek.c2sc.locl
ENCODING -1
SWIDTH 564 0
DWIDTH 6 0
BBX 6 8 0 -2
BITMAP
008C00
01DC30
069690
0C31E1
4FFFF7
A6743D
02B100
01D900
ENDCHAR
STARTCHAR Eogonek.c2sc.locl
ENCODING -1
SWIDTH 487 0
DWIDTH 5 0
BBX 6 8 0 -2
BITMAP
4FFFF0
4B0000
4FFF90
4B0000
4B0000
4FFFF1
067000
04E400
ENDCHAR
STARTCHAR glyph1293
ENCODING -1
SWIDTH 247 0
DWIDTH 3 0
BBX 2 9 0 -3
BITMAP
3C
3C
3C
3C
3C
3C
00
3B
01
ENDCHAR
ENDFONT
